<svg width="297" height="300" viewBox="0 0 297 300" fill="none" xmlns="http://www.w3.org/2000/svg">
<path d="M236.326 277.127C267.489 279.847 323.918 237.1 280.512 173.94C235.589 100.756 312.283 48.3993 249.123 7.85208C203.341 -21.5389 148.311 41.9643 111.467 29.3572C32.8714 7.85208 -16.8646 87.2998 17.7962 137.811C43.6965 175.556 -19.1202 201.491 6.09983 231.382C34.1708 264.651 56.4153 228.686 97.5909 236.216C157.372 247.147 200.219 273.976 236.326 277.127Z" fill="#65C3C8"/>
<path d="M177.077 18.9608L177.573 19.2564L178.063 19.555C184.982 23.8081 183.205 30.6159 192.298 40.7315C211.993 62.6413 230.823 85.3755 248.732 108.859L250.144 110.715L250.554 111.256C257.219 120.076 260.152 125.746 260.316 132.548C260.438 137.578 265.6 140.958 261.857 144.855L261.655 145.063L261.635 145.08L261.573 145.149C260.682 146.105 259.686 146.954 258.599 147.678L258.307 147.867L258.217 147.931C253.634 151.055 248.238 152.353 243.207 151.394L242.938 151.341L242.719 151.294L242.691 151.486C237.592 185.111 227.197 217.928 212.009 248.359L211.548 249.28L211.073 250.219L210.801 250.751L210.523 251.286C209.114 253.967 208.093 255.449 206.567 256.809C204.434 258.711 201.73 259.772 198.394 260.203C196.031 260.508 193.808 260.505 190.055 260.29L189.397 260.252C174.333 259.338 159.208 259.343 144.135 260.267L142.723 260.356L141.555 260.433L141.385 260.452C139.104 260.694 137.036 260.868 135.057 260.976L134.564 261.002L134.012 261.027L133.912 261.035C131.564 261.244 129.219 261.476 126.877 261.729L122.883 262.181L119.521 262.566L118.042 262.728C117.584 262.776 117.156 262.82 116.739 262.861L115.157 263.008L115.046 263.092C114.99 263.132 114.933 263.171 114.876 263.21L114.699 263.323L114.515 263.431L113.919 263.754L113.519 263.456L113.404 263.365L113.295 263.268L113.192 263.166L112.927 263.185C107.182 263.584 102.41 263.437 97.9091 262.577L97.5006 262.496L97.1051 262.415C86.9054 260.255 78.4462 253.561 76.2305 244.831C67.8812 211.932 56.2008 179.879 41.4267 149.321L41.2258 148.907L41.1281 148.965C37.6243 150.95 33.2218 150.463 29.3444 147.947L29.1443 147.815L28.9411 147.677L28.8941 147.657C27.6781 147.117 26.5982 146.149 25.8281 144.932L25.7203 144.757L25.6439 144.588L25.6152 144.6C24.3598 143.059 23.4307 141.331 22.9113 139.531L22.8365 139.26L22.7679 138.989C21.1049 132.083 23.244 124.967 28.4804 115.939C30.002 113.315 39.2511 97.8468 51.6553 90.5056C65.3004 82.43 62.7596 83.1449 65.6908 80.6287C67.9603 77.7704 58.8504 61.3586 50.8057 53.0782C42.761 44.7978 74.4262 36.3742 76.8881 37.2845C77.5333 37.5231 78.1288 37.8185 78.6792 38.1708L78.9124 38.3253L78.9379 38.3431L79.0003 38.183L79.1837 38.5198L79.2742 38.587C80.3879 39.4359 81.3013 40.5481 82.0607 41.924L82.2013 42.1851L82.318 42.4119C83.1741 44.1098 84.8402 44.9695 85.6347 48.1397L86.1742 50.3332L86.3284 50.9505L86.4792 51.5389C87.1016 53.9327 88.2342 55.6258 88.9295 57.0652L89.0137 57.2369L89.0564 57.322L89.2509 57.0647C100.736 41.9458 113.977 30.2571 130.876 21.6105L130.753 21.6132C128.885 21.6132 133.77 19.4123 146.127 15.0391L146.828 14.7932L147.553 14.5442C156.682 11.4387 167.49 13.303 177.077 18.9608Z" fill="white"/>
<path d="M245.216 150.095L244.947 150.041L244.728 149.994L244.7 150.187C239.601 183.812 229.206 216.629 214.019 247.059L213.557 247.981L213.083 248.919L212.811 249.452C211.253 252.475 210.201 254.062 208.577 255.51C206.444 257.412 203.74 258.472 200.403 258.903C198.041 259.208 196.393 258.247 190.368 257.702C210.867 246.52 214.043 225.379 221.213 211.627C242.039 171.686 229.116 160.817 245.216 150.095Z" fill="#E7EAEE"/>
<path d="M153.528 297.251C153.26 297.888 152.394 298.13 151.866 297.716C152.187 297.267 152.523 296.805 152.993 296.543C153.462 296.28 154.106 296.279 154.465 296.694C154.188 296.897 153.911 297.101 153.634 297.305L153.528 297.251Z" fill="#00160A"/>
<path d="M153.717 299.315C153.1 299.37 152.483 299.425 151.866 299.48C152.136 299.136 152.406 298.792 152.676 298.448C153.031 298.432 153.417 298.424 153.703 298.606C153.989 298.787 154.05 299.236 153.731 299.37L153.717 299.315Z" fill="#00160A"/>
<path d="M173.919 274.008C173.634 273.874 173.652 273.498 173.824 273.259C173.996 273.02 174.273 272.847 174.433 272.602C174.604 272.34 174.623 272.026 174.639 271.725C174.689 270.753 174.739 269.781 174.789 268.81C175.283 269.611 175.38 270.592 175.05 271.455C175.55 271.38 176.091 271.632 176.298 272.037C175.557 272.74 174.762 273.399 173.919 274.008Z" fill="#00160A"/>
<path d="M173.114 273.488C172.313 273.327 171.667 272.587 171.619 271.774C172.171 271.981 172.793 271.573 173.059 271.049C173.326 270.526 173.343 269.918 173.424 269.337C173.606 268.014 174.148 266.741 174.975 265.69C175.483 266.506 175.288 267.683 174.543 268.291C173.398 269.228 174.425 271.297 173.516 272.462C173.27 272.777 172.875 273.168 173.114 273.488Z" fill="#00160A"/>
<path d="M82.7275 77.6622C79.2642 81.3988 73.2009 83.0221 68.8637 80.3401C65.3147 78.1454 63.7814 73.8875 62.0999 70.0774C60.3728 66.1641 58.2481 62.4252 55.7689 58.9364C54.1199 56.6157 51.7645 54.1689 48.9381 54.5598C49.4723 53.6326 50.7805 53.3966 51.7891 53.7612C52.7977 54.1258 53.5677 54.9388 54.2722 55.7452C57.8201 59.8063 60.7379 64.413 62.8903 69.3518C63.9491 71.7812 64.8368 74.3141 66.3342 76.5024C67.8317 78.6906 70.0841 80.5445 72.7275 80.8203C75.025 81.06 77.2584 80.099 79.3673 79.1593C80.4874 78.6603 81.6074 78.1612 82.7275 77.6622Z" fill="#00160A"/>
<path d="M121.444 292.744C124.962 291.056 128.972 290.896 132.858 290.765C137.95 290.594 143.107 290.428 148.079 291.563C149.789 291.954 151.799 292.909 151.858 294.695C151.918 296.481 151.619 298.279 150.985 299.945C150.218 298.528 148.239 298.581 146.668 298.809C138.297 300.025 129.688 300.737 121.452 298.79C120.482 298.56 119.428 298.228 118.903 297.365C118.385 296.514 118.566 295.36 119.125 294.538C119.685 293.715 120.556 293.171 121.444 292.744ZM131.255 298.434C128.587 298.229 125.925 297.951 123.271 297.599C122.492 297.496 121.685 297.376 121.026 296.939C120.368 296.502 119.903 295.654 120.147 294.892C119.374 295.05 119.181 296.202 119.646 296.851C120.111 297.5 120.934 297.748 121.701 297.93C129.995 299.904 138.656 298.946 147.118 297.963C148.814 297.765 150.949 297.139 151.103 295.405C151.262 293.607 149.119 292.617 147.379 292.291C140.305 290.965 133.028 291.481 125.882 292.312C124.788 292.439 123.67 292.582 122.69 293.092C121.711 293.603 120.883 294.565 120.831 295.686C123.327 297.615 126.839 296.942 129.92 297.507C130.485 297.611 131.143 297.86 131.255 298.434Z" fill="#00160A"/>
<path d="M123.141 223.174C123.709 223.77 123.955 224.648 123.685 225.406C123.415 226.165 122.598 226.745 121.747 226.701C120.896 226.658 120.124 225.933 120.157 225.133C120.2 224.088 120.484 222.761 121.58 222.566C122.159 222.462 122.749 222.761 123.141 223.174ZM121.294 224.683C120.863 225.239 121.731 226.06 122.41 225.805C123.09 225.549 123.288 224.666 122.979 224.043C122.881 223.846 122.74 223.662 122.545 223.546C121.909 223.168 120.955 223.929 121.25 224.579L121.294 224.683Z" fill="#00160A"/>
<path d="M149.975 282.338C149.739 282.177 149.503 282.016 149.266 281.854C149.961 280.209 150.069 278.322 149.569 276.607C151.733 277.551 149.598 281.875 151.727 282.894C151.856 280.915 153.414 279.261 155.214 278.441C157.014 277.621 159.036 277.477 161.009 277.345C168.545 276.841 176.261 276.355 183.52 278.449C184.915 278.851 186.512 279.616 186.681 281.062C186.849 282.502 185.459 283.633 184.122 284.181C181.971 285.062 179.606 285.237 177.286 285.335C170.759 285.612 164.211 285.364 157.724 284.594C155.917 284.38 153.95 284.039 152.759 282.66C151.916 283.592 150.409 283.83 149.32 283.205C149.539 282.916 149.757 282.627 149.975 282.338ZM156.272 278.984C155.752 279.086 155.18 279.227 154.881 279.667C154.479 280.257 154.805 281.117 155.382 281.534C155.96 281.952 156.703 282.043 157.411 282.121C162.645 282.696 167.88 283.272 173.115 283.847C168.127 284.247 163.084 283.96 158.173 282.995C156.651 282.697 155.067 282.294 153.936 281.229C153.527 281.616 153.674 282.348 154.089 282.729C154.504 283.111 155.087 283.232 155.641 283.333C164.158 284.888 172.913 285.123 181.5 284.029C182.787 283.864 184.182 283.612 185.042 282.638C185.901 281.663 185.699 279.746 184.434 279.455C175.217 277.333 165.555 277.171 156.272 278.984Z" fill="#00160A"/>
<path d="M120.591 206.123C120.302 206.448 120.504 206.962 120.653 207.377C120.97 208.257 120.974 209.221 120.974 210.161C120.973 212.578 120.973 214.994 120.973 217.411C120.973 217.853 120.848 218.442 120.423 218.46C120.409 215.539 120.394 212.618 120.379 209.697C120.373 208.581 120.345 207.388 119.729 206.475C119.35 205.913 120.211 205.177 120.817 205.448C121.422 205.719 121.669 206.467 121.796 207.141C122.069 208.586 122.098 210.067 122.127 211.539C122.163 213.377 122.198 215.215 122.234 217.053C122.248 217.796 122.104 218.76 121.404 218.905C121.734 216.491 121.722 214.041 121.709 211.602C121.699 209.703 121.649 207.669 120.591 206.123Z" fill="#00160A"/>
<path d="M118.879 264.202C119.325 264.925 119.772 265.648 120.219 266.371C120.194 264.965 120.81 263.559 121.867 262.611C121.356 263.753 121.205 265.046 121.437 266.272C122.115 265.135 122.576 263.873 122.79 262.572C122.88 263.527 122.97 264.481 123.059 265.436C125.299 264.361 127.861 264.193 130.348 264.042C132.72 263.899 135.093 263.756 137.466 263.612C144.804 263.169 152.172 262.726 159.501 263.304C161.72 263.479 164.026 263.78 165.874 265.002C167.188 265.87 168.244 267.389 167.922 268.914C167.471 271.054 164.831 271.835 162.64 272.184C156.125 273.222 149.572 274.029 142.998 274.602C135.036 275.296 126.687 275.586 119.404 272.344C118.292 271.849 117.136 271.193 116.666 270.083C116.197 268.973 116.878 267.377 118.099 267.38C117.875 266.582 117.282 265.892 116.52 265.542C117.43 265.027 118.775 265.687 118.905 266.711C118.896 265.875 118.887 265.039 118.879 264.202ZM122.592 271.431C126.423 271.973 130.254 272.516 134.085 273.059C129.226 273.392 124.307 272.854 119.64 271.481C122.217 272.807 125.045 273.658 127.935 273.976C130.104 274.214 132.294 274.155 134.474 274.065C144.674 273.645 154.847 272.57 164.905 270.848C166.83 270.518 167.221 267.656 165.927 266.214C164.633 264.773 162.511 264.438 160.565 264.261C151.272 263.416 141.914 264.134 132.61 264.851C128.904 265.137 125.154 265.432 121.629 266.592C120.438 266.985 119.086 267.735 119.063 268.972C119.034 270.53 121.025 271.208 122.592 271.431ZM117.958 268.186C117.208 268.462 117.167 269.575 117.668 270.188C118.013 270.609 118.537 270.882 119.083 270.927C118.34 270.351 118.036 269.284 118.366 268.412C118.312 268.252 118.125 268.148 117.958 268.186H117.958Z" fill="#00160A"/>
<path d="M144.252 186.169C144.422 186.099 144.593 186.33 144.588 186.546C144.582 186.763 144.464 186.948 144.351 187.117C144.003 187.64 143.585 188.207 143.028 188.236C143.026 187.333 143.542 186.462 144.252 186.169Z" fill="#00160A"/>
<path d="M171.411 200.482C161.112 206.468 150.787 212.466 139.886 217.266C138.128 218.041 136.143 218.792 134.339 218.132C133.072 217.668 132.146 216.585 131.326 215.512C128.478 211.785 126.18 207.637 124.531 203.244C124.117 202.141 123.739 200.989 123.801 199.813C123.863 198.636 124.457 197.419 125.528 196.93C128.327 195.651 131.126 194.372 133.926 193.093C134.378 192.886 134.848 192.666 135.154 192.274C135.515 191.813 135.588 191.196 135.648 190.614C136.096 186.241 136.544 181.868 136.992 177.495C137.103 176.418 137.271 175.227 138.103 174.534C138.935 173.842 140.592 174.274 140.526 175.355C140.484 176.062 141.189 176.555 141.806 176.899C145.098 178.731 148.39 180.563 151.682 182.395C152.299 182.739 153.049 183.088 153.678 182.766C156.472 181.337 159.322 180.017 162.219 178.81C163.197 178.402 164.286 178.003 165.289 178.342C166.098 178.616 166.677 179.317 167.195 179.997C170.183 183.918 172.648 188.238 174.505 192.806C175.004 194.032 175.466 195.367 175.16 196.655C174.736 198.446 173.001 199.558 171.411 200.482ZM125.02 200.987C126.047 204.621 127.875 208.025 130.335 210.889C131.609 212.372 133.136 213.76 135.028 214.248C137.401 214.861 139.878 213.961 142.136 213.007C148.892 210.154 155.375 206.701 161.848 203.254C165.605 201.253 169.363 199.251 173.12 197.25C173.634 196.976 174.193 196.65 174.369 196.094C174.511 195.644 174.361 195.16 174.206 194.714C172.476 189.752 169.918 185.081 166.67 180.952C166.084 180.207 165.407 179.436 164.483 179.228C163.527 179.013 162.559 179.455 161.679 179.886C149.87 185.668 138.151 191.636 126.528 197.785C125.878 198.128 125.177 198.529 124.922 199.219C124.714 199.782 124.856 200.409 125.02 200.987ZM173.044 198.239C170.929 199.377 168.814 200.514 166.699 201.651C158.566 206.024 150.42 210.404 141.93 214.034C139.041 215.269 135.486 216.351 132.96 214.481C131.639 213.504 130.884 211.871 129.482 211.015C130.995 213.979 133.188 217.376 136.513 217.311C137.699 217.288 138.82 216.796 139.901 216.306C151.369 211.105 162.457 205.061 173.044 198.239ZM140.514 177.571C140.141 177.643 139.947 178.041 139.705 178.334C139.463 178.628 138.939 178.808 138.749 178.479C138.824 178.145 138.899 177.811 138.975 177.476C138.853 177.272 138.526 177.298 138.358 177.465C138.19 177.633 138.14 177.882 138.098 178.116C137.342 182.356 136.803 186.636 136.485 190.932C136.463 191.234 136.478 191.605 136.745 191.747C137.618 191.356 137.524 190.116 137.419 189.165C137.176 186.954 137.708 184.626 139.071 182.87C140.434 181.113 142.659 180.001 144.874 180.179C145.122 179.973 144.833 179.59 144.561 179.417C143.472 178.727 142.316 178.144 141.114 177.679C140.922 177.605 140.717 177.532 140.514 177.571ZM140.556 186.739C140.427 187.538 140.333 188.596 139.543 188.767C139.389 189.316 140.342 189.565 140.721 189.14C141.1 188.715 141.064 188.079 141.113 187.512C141.249 185.962 142.249 184.517 143.652 183.847C145.054 183.177 146.805 183.306 148.094 184.176C148.771 184.633 149.675 185.284 150.276 184.729C150.641 184.393 150.582 183.763 150.27 183.376C149.958 182.99 149.47 182.795 148.995 182.653C147.299 182.147 145.423 182.117 143.796 182.813C142.169 183.509 140.84 184.99 140.556 186.739ZM148.05 181.296C145.787 180.382 143.07 180.697 141.074 182.104C139.079 183.511 137.868 185.966 137.964 188.407C137.986 188.971 138.073 189.53 138.16 190.088C138.206 190.384 138.335 190.757 138.634 190.76C139.031 190.764 139.063 190.181 138.987 189.792C138.572 187.683 139.215 185.392 140.667 183.808C142.118 182.224 144.342 181.385 146.476 181.617C147.037 181.678 147.725 181.757 148.05 181.296ZM141.901 188.764C143.751 188.747 144.992 186.958 146.231 185.581C146.33 185.471 146.44 185.357 146.584 185.319C146.785 185.267 147.016 185.406 147.064 185.609C146.855 185.849 146.645 186.089 146.435 186.329C147.187 186.485 148.02 186.05 148.323 185.344C147.188 184.182 145.267 183.884 143.834 184.647C142.4 185.411 141.573 187.171 141.901 188.764ZM138.642 176.295C139.192 176.423 139.812 176.103 140.026 175.58C139.456 175.045 138.371 175.287 138.081 176.014C138.259 176.125 138.436 176.237 138.614 176.348L138.642 176.295ZM151.087 183.402C150.916 183.819 151.641 184.193 151.908 183.83C152.175 183.468 151.698 182.885 151.276 183.041C151.131 183.095 151.015 183.205 150.904 183.312L151.087 183.402Z" fill="#00160A"/>
<path d="M201.939 210.558C199.667 209.051 198.933 206.095 198.519 203.401C197.412 196.179 197.317 188.803 198.238 181.555C198.375 180.476 198.56 179.341 199.25 178.5C200.517 176.958 202.85 177.039 204.844 177.132C210.112 177.379 215.42 176.756 220.488 175.296C221.333 175.052 222.241 175.632 222.667 176.402C223.093 177.172 223.151 178.085 223.2 178.964C223.467 183.728 223.733 188.492 223.999 193.257C224.226 197.313 224.379 201.67 222.208 205.105C219.394 209.558 213.621 211.013 208.376 211.51C206.172 211.718 203.784 211.781 201.939 210.558ZM202.577 177.931C201.992 177.972 201.389 178.047 200.881 178.341C199.936 178.888 199.552 180.039 199.297 181.101C198.359 185.002 198.138 189.074 198.65 193.054C202.654 193.246 206.675 193.084 210.65 192.57C210.871 192.542 211.104 192.507 211.281 192.372C211.606 192.125 211.625 191.653 211.612 191.246C211.514 188.142 211.264 185.043 210.864 181.964C210.739 181.007 210.57 179.987 209.906 179.287C209.312 178.661 208.43 178.41 207.583 178.243C205.938 177.919 204.25 177.814 202.577 177.931ZM206.981 209.004C208.115 208.923 209.449 208.715 209.957 207.699C210.137 207.342 210.179 206.933 210.219 206.535C210.511 203.617 210.803 200.698 211.094 197.78C211.141 197.314 211.178 196.807 210.92 196.416C210.427 195.669 209.302 195.86 208.442 196.109C205.394 196.989 202.233 197.477 199.062 197.557C198.217 199.695 199.426 202.034 199.731 204.312C199.83 205.049 199.835 205.81 200.1 206.505C200.568 207.731 201.79 208.544 203.063 208.867C204.335 209.189 205.672 209.097 206.981 209.004ZM217.396 205.238C215.788 207.113 212.935 207.871 211.945 210.134C218.25 209.655 223.591 203.591 223.271 197.278C222.957 191.069 222.642 184.859 222.327 178.649C222.303 178.165 222.273 177.662 222.036 177.239C221.513 176.308 220.216 176.151 219.176 176.392C218.135 176.632 217.15 177.156 216.082 177.182C219.153 178.98 219.501 183.201 219.492 186.758C219.487 188.372 219.483 189.987 219.479 191.601C220.264 190.839 221.779 191.417 222.048 192.476C222.318 193.536 221.519 194.671 220.479 195.009C218.9 195.522 218.905 197.704 218.984 199.362C219.084 201.439 218.75 203.66 217.396 205.238ZM214.506 177.6C213.968 177.532 213.424 177.611 212.888 177.69C212.327 177.773 211.766 177.856 211.206 177.938C212.98 179.563 213.898 181.94 214.291 184.313C214.684 186.685 214.61 189.107 214.726 191.509C214.736 191.719 214.765 191.959 214.939 192.076C215.074 192.167 215.253 192.15 215.415 192.129C216.145 192.035 216.876 191.941 217.606 191.847C217.785 191.824 217.976 191.796 218.111 191.677C218.28 191.528 218.315 191.282 218.338 191.058C218.68 187.826 219.012 184.488 218.057 181.382C217.518 179.633 216.322 177.829 214.506 177.6ZM210.014 210.087C211.021 209.66 211.993 209.002 212.463 208.015C212.801 207.306 212.848 206.497 212.889 205.712C213.127 201.184 213.364 196.656 213.602 192.128C213.85 187.392 213.93 182.137 210.83 178.548C213.287 187.049 212.327 196.114 211.346 204.909C211.112 207.014 210.402 209.641 208.305 209.939C206.253 209.872 204.201 209.805 202.149 209.739C204.543 211.015 207.516 211.147 210.014 210.087ZM218.237 198.644C218.269 197.772 218.3 196.9 218.332 196.028C216.955 195.958 215.567 196.123 214.245 196.512C213.937 199.78 213.785 203.063 213.792 206.346C213.792 206.413 213.792 206.483 213.821 206.544C213.934 206.78 214.289 206.668 214.507 206.524C215.244 206.039 215.991 205.544 216.569 204.878C218.009 203.22 218.158 200.838 218.237 198.644ZM199.285 196.974C202.485 196.388 205.686 195.802 208.886 195.217C209.662 195.075 210.559 194.963 211.154 195.481C211.32 195.054 211.489 194.601 211.415 194.15C211.341 193.698 210.925 193.268 210.475 193.354C207.182 193.984 203.798 194.142 200.46 193.822C199.704 193.749 198.928 194.235 198.662 194.947C198.397 195.659 198.665 196.534 199.285 196.974ZM219.676 192.201C218.198 192.521 216.72 192.842 215.242 193.162C215.021 193.21 214.785 193.266 214.635 193.434C214.447 193.644 214.451 193.957 214.465 194.238C214.49 194.718 214.515 195.197 214.54 195.677C216.079 195.337 217.618 194.998 219.157 194.658C219.781 194.52 220.445 194.36 220.881 193.893C221.316 193.426 221.358 192.544 220.801 192.231C220.466 192.043 220.052 192.12 219.676 192.201Z" fill="#00160A"/>
<path d="M179.156 17.9208L179.652 18.2164C186.804 22.5238 192.348 27.7784 201.655 38.1319C221.35 60.0417 240.18 82.7759 258.089 106.26L259.501 108.115L259.911 108.656C266.576 117.477 269.509 123.146 269.673 129.948C269.795 134.979 267.68 139.918 263.936 143.815L263.734 144.023L263.714 144.04L263.652 144.109C262.762 145.065 261.765 145.914 260.678 146.638L260.387 146.827L260.296 146.891C255.714 150.015 250.318 151.313 245.286 150.354L245.017 150.301L244.798 150.254L244.77 150.446C239.671 184.071 229.276 216.888 214.089 247.319L213.627 248.24L213.153 249.179L212.881 249.711C211.323 252.735 210.271 254.321 208.647 255.769C206.513 257.671 203.81 258.732 200.473 259.163C198.11 259.468 195.887 259.465 192.135 259.25L191.476 259.212C176.412 258.298 161.288 258.303 146.215 259.227L144.802 259.316L143.635 259.393L143.464 259.412C141.184 259.654 139.116 259.828 137.137 259.936L136.644 259.962L136.092 259.987L135.991 259.995C133.643 260.204 131.298 260.436 128.956 260.689L124.962 261.141L121.6 261.526C120.53 261.646 119.653 261.739 118.818 261.821C109.266 262.205 102.989 262.11 99.9884 261.537L99.5799 261.456L99.1845 261.375C88.9848 259.215 80.5256 252.521 78.3098 243.791C69.9605 210.892 58.2802 178.839 43.5061 148.281L43.3052 147.867L43.2074 147.925C39.7037 149.91 35.3012 149.423 31.4237 146.907L31.2236 146.775L31.0204 146.637L30.9735 146.617C29.7575 146.077 28.6776 145.109 27.9075 143.892L27.7996 143.717L27.7418 143.617L27.6945 143.56C26.4392 142.019 25.51 140.291 24.9906 138.491L24.9158 138.22L24.8472 137.949C23.1842 131.043 25.3233 123.927 30.5597 114.899C40.0914 98.4652 51.8045 86.1228 65.7718 79.2072L66.1957 78.9993L66.9576 80.3569C54.623 88.2741 43.9311 98.7397 35.7521 110.902C30.144 119.241 27.0608 126.905 27.0512 134.196L27.0529 134.527L27.0572 134.801L27.0712 134.775C30.589 127.856 36.4675 122.085 45.8522 115.237L46.2565 114.943L46.6332 114.671C56.8879 107.275 68.0578 100.3 80.9667 93.0887L82.6983 92.1257C92.2425 86.8416 100.362 82.6296 116.191 74.6614L132.712 66.3448C137.248 64.0476 140.647 62.3023 144.456 60.3177L145.415 59.8142C153.171 55.7131 159.054 51.8535 163.702 47.4873C169.687 41.8644 173.099 35.7702 173.604 28.9408C174.013 23.4236 171.969 18.1964 168.064 15.7511C164.268 13.3745 159.392 13.5495 152.603 15.5493C128.126 22.7592 106.204 38.372 91.389 59.1466C90.477 60.4253 91.0982 61.586 91.389 62.2776C93.2912 66.8026 92.1277 71.8886 89.8799 76.2501L89.7553 76.487L87.9919 79.7718L89.4152 71.9116C89.2883 59.1466 86.8968 52.1135 81.6083 41.4712L81.3863 41.0286L81.2558 40.7745L81.1695 40.9446C78.7101 45.6721 73.9859 49.3569 68.2224 51.3838L67.9233 51.4871L67.6371 51.5827C62.8576 53.1518 58.7343 53.6132 50.3637 53.8398L48.3833 53.8879L48.1464 53.5233C46.7101 51.3119 48.1109 48.5574 50.7942 46.3835C56.4956 41.7643 63.1763 38.3616 70.2651 36.4662C73.8435 35.5095 76.5056 35.3341 78.9675 36.2445C79.6126 36.483 80.2081 36.7785 80.7586 37.1308L80.9918 37.2853L81.0172 37.303L81.0796 37.1429L81.2631 37.4798L81.3536 37.5469C82.4673 38.3958 83.3806 39.5081 84.1401 40.884L84.2807 41.1451L84.3974 41.3718C85.2534 43.0698 85.7788 44.6966 86.5733 47.8669L87.1128 50.0604L87.267 50.6776C87.9527 53.3893 88.5373 55.2262 89.2883 56.7809L89.3725 56.9525L89.4152 57.0376L89.6097 56.7803C104.447 37.2496 125.084 22.1822 148.206 13.999L148.908 13.7532L149.632 13.5041C158.761 10.3987 169.569 12.263 179.156 17.9208ZM139.728 150.549C130.125 151.056 120.711 155.354 113.848 162.309C110.74 165.459 108.738 168.603 108.001 171.922L107.936 172.226C107.505 174.344 107.536 176.286 107.904 180.104L115.793 259.047C115.854 259.662 115.928 260.095 116.04 260.422L116.068 260.501L116.616 260.456L116.691 260.386C117.628 259.48 118.252 258.095 118.442 256.578L118.469 256.327L118.475 256.265C118.603 254.794 118.454 253.554 117.935 250.948L117.789 250.217L117.569 249.094C115.995 240.896 115.24 233.37 114.305 219.289L114.011 214.839C112.799 196.84 111.803 188.472 109.214 178.375C108.046 173.818 109.401 168.65 112.573 164.546C115.26 161.069 119.077 158.341 124.021 156.042C130.019 153.251 136.262 151.7 142.368 151.598C147.297 151.515 152.188 152.29 158.983 153.977L159.638 154.142C165.23 155.569 168.536 156.961 171.344 159.52C174.166 162.093 175.989 165.543 177.671 170.654C181.398 181.971 182.827 194.446 182.62 209.474L182.589 211.216C182.489 216.034 182.265 220.531 181.797 227.805L181.119 238.1C180.798 243.124 180.636 246.216 180.503 249.856L180.489 250.297C180.434 252.286 180.546 253.346 181.009 254.401C181.466 255.441 182.359 256.214 183.275 256.416L183.402 256.44L183.958 218.703C184.163 203.342 184.026 195.927 183.143 186.999L183.114 186.713C182.638 181.962 182.011 178.047 181.072 174.384C180.596 172.527 180.026 170.695 179.366 168.896C177.499 163.811 175.217 160.074 172.076 157.537C168.54 154.682 164.724 153.482 156.866 152.165L156.162 152.048C147.998 150.712 144.29 150.309 139.728 150.549ZM119.761 257.961L119.756 257.981C119.539 258.8 119.21 259.572 118.776 260.258L120.439 260.085C120.917 260.033 121.432 259.976 122.003 259.912L124.791 259.591C124.582 259.564 124.374 259.536 124.167 259.507L123.664 259.433L123.015 259.335L123 258.623L122.93 258.664C122.306 259.009 121.617 259.235 120.908 259.32L120.73 259.338L120.027 259.398L119.761 257.961ZM96.4324 258.584L96.3819 258.653C96.3021 258.757 96.2122 258.85 96.1135 258.934C97.2153 259.297 98.3492 259.604 99.5075 259.849C99.8804 259.928 100.255 260.002 100.632 260.07C99.2714 259.698 97.9363 259.233 96.6403 258.675L96.4324 258.584ZM140.006 115.727C107.552 117.511 74.2681 126.085 40.618 140.596L39.4553 141.1L40.6478 141.661C43.3687 142.94 44.91 145.127 46.9381 149.574L50.1381 156.672C56.0492 169.831 59.5015 177.838 63.038 186.769C68.0272 199.369 71.8651 210.812 74.7215 221.999L76.2737 228.197C76.4706 228.973 76.6509 229.673 76.8299 230.354L77.0669 231.247C78.7211 237.414 80.2916 241.904 82.3428 245.881C84.9684 250.971 88.2433 254.787 92.4739 257.386C93.6461 258.106 95.0773 258.063 95.2205 257.497L95.2297 257.446L95.3502 256.359L96.3385 256.827C101.5 259.272 107.4 260.135 113.048 259.289L113.356 259.241L105.602 182.072L105.528 181.334C105.032 176.302 105.037 173.445 105.844 170.396C106.912 166.361 109.483 162.66 113.27 159.194C119.868 153.154 128.416 149.286 137.309 148.316C143.264 147.666 149.283 148.18 157.638 149.717L158.367 149.853C164.833 151.08 168.817 152.381 172.439 154.854C177.071 158.017 180.262 162.769 182.332 168.997C183.977 173.946 184.856 179.489 185.383 186.718C187.012 209.052 187.012 231.505 185.383 253.839C185.229 255.951 188.01 257.375 191.729 257.549L191.915 257.556L192.439 257.574L193.071 257.592C199.519 257.752 203.207 257.089 206.152 254.643C207.765 253.304 208.841 251.714 210.505 248.543L210.638 248.289C225.664 219.455 235.995 188.18 241.105 156.07L241.258 155.096C241.815 151.522 242.414 149.01 243.391 146.771C244.645 143.896 246.421 141.884 248.884 140.868L249.085 140.788L249.323 140.696L249.218 140.616C247.174 139.058 244.731 137.601 241.539 135.943L240.83 135.578C211.12 120.385 176.109 113.742 140.006 115.727ZM141.493 154.058C136.295 154.264 130.934 155.677 125.493 158.138C117.654 161.683 112.369 166.868 111.58 173.042C111.53 173.438 111.497 173.843 111.482 174.257L111.474 174.56C111.438 176.316 111.664 177.902 112.286 180.794L112.767 182.982C114.349 190.249 115.201 197.346 116.047 208.478L116.692 217.243C118.067 235.641 119.174 246.022 121.225 257.301L121.29 257.658L121.397 257.629C122.021 257.439 122.6 257.095 123.059 256.633L123.172 256.515L124.488 255.072L124.547 257.984L124.877 258.03C128.156 258.461 131.587 258.59 135.332 258.457L135.956 258.433L137.115 258.332C138.694 258.197 140.274 258.071 141.852 257.956L143.466 257.843L144.745 257.702C146.418 257.513 148.019 257.312 151.077 256.916L153.735 256.575C162.201 255.507 166.608 255.144 171.713 255.25L172.403 255.267L174.355 255.333L174.88 255.344C176.237 255.362 177.258 255.291 178.187 255.082L178.273 255.061L178.258 253.958C178.2 248.596 178.377 243.176 178.796 235.647L179.154 229.595L179.493 223.96C179.754 219.476 179.887 216.717 179.996 213.471C180.557 196.703 179.363 183.787 175.474 172.01C173.705 166.655 171.69 163.043 168.669 160.606C166.052 158.495 163.086 157.41 157.535 156.133L156.725 155.948C150.204 154.476 145.93 153.883 141.493 154.058ZM184.957 256.784L184.949 257.312L185.601 257.341C185.365 257.168 185.15 256.982 184.957 256.784ZM179.842 255.544L179.856 256.226L179.294 256.4C177.994 256.801 176.685 256.928 174.851 256.904L174.162 256.888L172.588 256.833L172.358 256.826C169.728 256.751 167.33 256.797 164.513 256.998C170.105 256.931 175.697 256.989 181.285 257.174C180.712 256.752 180.214 256.192 179.842 255.544ZM250.492 141.644L249.834 142.139C248.088 143.453 246.686 145.222 245.796 147.217L245.729 147.37L245.758 147.376C248.058 147.859 249.399 147.89 250.671 147.365L250.79 147.314C252.451 146.582 253.249 144.305 252.219 143.255C251.728 142.754 251.219 142.274 250.685 141.809L250.492 141.644ZM40.3541 147.031L39.5587 147.306C39.2254 147.418 38.9226 147.512 38.6436 147.587C39.9339 147.559 41.1737 147.25 42.2987 146.645C41.8483 146.595 41.2705 146.722 40.3541 147.031ZM173.568 17.8508L173.588 17.895C176.755 25.3074 176.395 34.1752 172.512 41.258C168.768 48.0851 163.012 52.6756 152.299 58.6929L150.42 59.7383C142.441 64.1528 135.245 67.8898 122.286 74.4163L109.133 81.029C95.5492 87.8813 88.2427 91.7112 79.6518 96.5404C66.497 103.935 55.3023 111.125 45.1701 118.877L44.4423 119.436C38.2211 124.249 34.2503 128.038 31.151 132.531C29.0501 135.576 28.0529 138.274 28.3905 140.815C28.4651 141.377 28.6402 141.943 28.9006 142.478L29.0023 142.677L29.03 142.727L29.05 142.752C29.7647 143.601 30.5816 144.372 31.4634 145.034L31.7299 145.229L31.7747 145.261L31.8618 145.295C32.3163 145.462 32.7759 145.541 33.2306 145.528L33.2578 145.526L33.2472 145.409C33.022 142.493 35.6823 139.975 39.6862 138.223L39.8779 138.141C75.7223 122.841 111.015 114.137 145.279 113.032C183.258 111.808 219.866 120.216 250.041 137.956C250.962 138.498 251.748 139.004 252.413 139.507L252.862 139.861C254.108 140.889 254.871 141.937 255.287 143.278C255.713 144.655 255.369 146.212 254.564 147.359L254.514 147.428C256.103 147.198 257.679 146.627 259.161 145.751L259.394 145.61L259.514 145.535L259.705 145.403C260.538 144.815 261.33 144.167 262.067 143.472L262.379 143.172L262.565 142.986L262.642 142.904C263.735 141.7 264.626 140.336 265.257 138.892C267.501 133.764 267.172 127.401 264.68 121.281L264.499 120.844C262.582 116.282 260.08 112.58 254.742 105.739C240.156 87.0449 224.748 68.3234 208.436 49.4282L206.855 47.5991C199.991 39.6713 195.667 34.9849 190.82 30.4726L190.589 30.2579C185.009 25.0885 179.534 21.0283 173.801 17.9739L173.568 17.8508ZM38.5336 141.525L38.4 141.592C37.3632 142.113 36.7763 142.565 36.3296 143.203C35.666 144.152 35.7721 145.53 36.5288 145.998C37.0922 146.346 37.6958 146.29 39.1346 145.803L39.5093 145.673C40.3114 145.391 40.95 145.199 41.5 145.111L41.5518 145.103L41.2448 144.704C40.8802 144.238 40.5051 143.779 40.1199 143.33L39.7314 142.883L38.5336 141.525ZM71.3363 38.9833L71.1502 39.0221L71.171 39.229C71.3272 40.8176 70.3406 42.1375 68.6309 43.3222L68.4782 43.4264C65.981 45.1039 63.2011 46.3585 60.291 47.1212C57.9191 47.743 56.0449 47.7698 54.4464 46.9029C54.2736 46.8092 53.8747 46.956 53.3725 47.373C52.2218 48.3286 51.2124 49.4547 50.3867 50.702L50.2164 50.9649L56.1327 50.9286C58.1228 50.9071 59.2352 50.8584 60.504 50.7229L60.6457 50.7074C67.5579 49.9416 74.126 46.3749 78.5321 40.9945L78.7173 40.7624C79.1185 40.2445 79.3059 39.8837 79.3494 39.5185C79.3939 39.1448 79.1737 38.7773 78.965 38.7475C76.4342 38.387 73.8427 38.4754 71.3363 38.9833ZM70.2612 39.2948C63.8775 39.844 57.932 43.0714 55.3023 46.3551C55.3023 46.5905 55.5113 46.738 55.8792 46.8052C56.7361 45.7534 57.9321 44.7092 59.3717 43.7589C59.8678 45.2294 62.9551 44.6079 65.1021 44.0596C67.9753 42.4956 70.2612 40.5689 70.2612 39.2948ZM170.42 15.5781L170.478 15.6285C170.641 15.7756 170.8 15.9275 170.955 16.0838L170.741 15.6903L170.478 15.5977L170.42 15.5781Z" fill="#00160A"/>
<path d="M167.691 144.136C180.146 150.747 186.703 162.108 185.267 162.763C183.83 163.419 172.148 142.917 143.26 145.313C106.003 146.603 101.394 172.36 99.8993 171.853C98.404 171.345 104.202 154.935 118.037 146.178C131.872 137.421 155.237 137.525 167.691 144.136Z" fill="#E7EAEE"/>
<path d="M160.005 197.647C159.891 197.254 159.712 196.883 159.476 196.548C159.126 196.106 158.747 195.688 158.342 195.295C157.826 194.759 155.811 193.058 155.708 192.611C155.671 192.536 155.614 192.473 155.542 192.431C155.434 192.347 155.315 192.277 155.205 192.197C154.936 192.002 154.674 191.795 154.397 191.611C154.296 191.544 154.13 191.562 154.043 191.485C153.695 191.174 153.384 190.819 153.024 190.523C152.591 190.165 152.111 189.865 151.674 189.512C151.272 189.223 150.814 189.021 150.329 188.919C149.717 188.734 149.064 188.733 148.452 188.916C147.89 189.09 147.546 189.475 147.192 189.864C146.856 190.233 146.7 190.732 146.768 191.227C146.718 191.222 146.669 191.215 146.62 191.204C145.844 190.981 145.181 191.261 144.578 191.702C144.189 191.982 143.872 192.351 143.653 192.777C143.446 193.147 143.339 193.565 143.343 193.988C143.335 194.147 143.318 194.306 143.293 194.463C143.256 194.892 143.221 195.322 143.187 195.752C143.17 195.985 143.223 196.247 143.133 196.445C142.937 196.841 142.866 197.286 142.927 197.724C142.962 197.95 142.984 198.179 143.214 198.232C143.161 198.325 143.119 198.425 143.091 198.528C143.061 198.734 143.058 198.944 143.044 199.153C143.001 199.801 142.948 200.449 142.919 201.098C142.904 201.43 142.947 201.763 142.938 202.095C142.884 202.899 143.033 203.704 143.371 204.435C143.588 204.908 143.905 205.328 144.3 205.666C144.67 205.961 145.055 206.239 145.539 206.311C145.813 206.352 146.091 206.369 146.367 206.394C146.574 206.412 146.994 206.438 147.149 206.457C147.356 206.401 147.604 206.419 147.802 206.374C147.872 206.358 147.941 206.342 148.011 206.326C148.432 206.167 148.917 205.943 149.204 205.809C149.836 205.51 150.392 205.073 150.831 204.529C151.137 204.196 151.345 203.786 151.433 203.343C151.524 202.761 151.465 202.166 151.263 201.613C151.018 200.961 150.74 200.322 150.484 199.674C150.222 199.009 149.958 198.344 149.722 197.669C149.614 197.438 149.576 197.18 149.614 196.928C149.641 196.641 149.609 196.353 149.52 196.08C149.426 195.654 149.3 195.236 149.187 194.815L149.289 194.775C149.355 194.877 149.416 194.981 149.487 195.079C149.656 195.362 149.858 195.624 150.088 195.86C150.315 196.066 150.483 196.328 150.576 196.619C150.729 197.015 150.828 197.432 150.996 197.82C151.328 198.589 151.68 199.349 152.05 200.101C152.19 200.396 152.375 200.668 152.597 200.908C153.302 201.654 154.226 202.157 155.234 202.345C155.826 202.447 156.433 202.423 157.015 202.275C157.778 202.12 158.475 201.735 159.012 201.173C159.191 200.974 159.348 200.757 159.479 200.524C159.708 200.17 159.905 199.797 160.071 199.409C160.291 198.826 160.183 198.22 160.005 197.647ZM152.531 190.371C152.967 190.766 153.394 191.17 153.852 191.596C153.667 191.653 153.551 191.734 153.415 191.539C153.271 191.383 153.113 191.241 152.943 191.115C152.887 191.034 152.844 190.945 152.815 190.851C152.703 190.845 152.503 190.858 152.546 190.61C152.409 190.571 152.282 190.534 152.121 190.488C152.27 190.281 152.402 190.253 152.531 190.371ZM152.293 190.201L151.871 190.336L151.966 190.024L151.684 190.111C151.572 190.015 151.479 189.907 151.584 189.741C151.803 189.883 152.023 190.026 152.293 190.201ZM151.08 189.466L151.579 189.739C151.334 189.838 151.174 189.729 151.047 189.536L151.08 189.466ZM147.498 192.258L147.719 192.558L147.636 192.625L147.424 192.311L147.498 192.258ZM143.68 196.085C143.748 195.308 143.794 194.527 143.902 193.755C143.938 193.397 144.061 193.053 144.26 192.753C144.612 192.29 145.008 191.847 145.659 191.739C146.035 191.643 146.432 191.67 146.792 191.816C146.856 191.84 146.911 191.883 146.95 191.939C147.208 192.456 147.548 192.927 147.958 193.334C148.274 193.687 148.493 194.115 148.595 194.577C148.676 194.889 148.716 195.212 148.771 195.53C148.78 195.607 148.784 195.685 148.784 195.762C147.914 195.524 147.056 195.603 146.216 195.709C145.378 195.814 144.556 196.05 143.704 196.233C143.688 196.186 143.68 196.136 143.68 196.085ZM147.763 192.718L147.846 192.684L148.06 192.87C147.975 192.895 147.889 192.94 147.869 192.92C147.824 192.859 147.788 192.791 147.763 192.718ZM148.112 193.051C148.158 193.054 148.226 193.037 148.246 193.061C148.314 193.141 148.436 193.227 148.223 193.38L148.112 193.051ZM143.205 197.224C143.218 196.967 143.26 196.758 143.584 196.67C143.913 196.581 144.205 196.359 144.532 196.255C144.941 196.125 145.361 196.029 145.787 195.97C146.305 195.892 146.828 195.853 147.351 195.856C147.855 195.878 148.357 195.938 148.852 196.035C149.135 196.124 149.346 196.36 149.401 196.651C149 196.772 148.092 196.785 148.033 196.795C147.5 196.877 146.964 196.945 146.431 197.029C146.183 197.069 145.939 197.141 145.691 197.185C145.61 197.2 144.954 197.344 144.75 197.397C144.252 197.525 143.747 197.629 143.206 197.752C143.205 197.584 143.196 197.404 143.205 197.224ZM144.278 205.343L143.674 204.539L143.714 204.502C143.764 204.556 143.814 204.611 143.863 204.666C143.992 204.811 144.125 204.952 144.245 205.104C144.284 205.171 144.314 205.243 144.333 205.318L144.278 205.343ZM145.021 205.808L144.977 205.846L144.661 205.632L144.957 205.527L145.021 205.808ZM145.489 206.024C145.33 206.041 145.215 205.979 145.199 205.822C145.194 205.777 145.301 205.713 145.367 205.676C145.416 205.705 145.454 205.748 145.476 205.8C145.489 205.874 145.494 205.949 145.489 206.024ZM146.353 206.136L146.291 206.186C146.175 206.084 146.058 205.983 145.933 205.874L145.829 206.136L145.623 205.839L145.682 205.744C145.898 205.78 146.113 205.817 146.353 205.857L146.353 206.136ZM146.849 206.171C146.594 206.206 146.589 206.201 146.535 205.865C146.586 205.858 146.636 205.85 146.687 205.845C146.737 205.839 146.789 205.836 146.843 205.832L146.849 206.171ZM147.332 206.169C147.08 206.228 147.034 206.179 147.028 205.854C147.107 205.854 147.186 205.853 147.26 205.853L147.332 206.169ZM148.18 205.952C148.18 205.983 148.124 206.043 148.107 206.039C148.063 206.023 148.025 205.995 147.998 205.957C147.956 205.889 147.903 205.827 147.842 205.775C147.789 205.939 147.911 206.173 147.653 206.172C147.571 206.172 147.491 205.974 147.386 205.835L148.156 205.604C148.166 205.724 148.181 205.838 148.18 205.952L148.18 205.952ZM148.651 205.871L148.406 205.941L148.323 205.574C148.416 205.527 148.495 205.488 148.586 205.442L148.651 205.871ZM148.835 205.724L148.771 205.366L149.046 205.225C149.127 205.639 149.114 205.667 148.835 205.724ZM149.733 205.235L149.568 204.957L149.487 204.974C149.483 205.05 149.491 205.126 149.51 205.2C149.555 205.306 149.58 205.387 149.44 205.428C149.313 205.465 149.257 205.4 149.234 205.285C149.221 205.219 149.204 205.154 149.19 205.092C149.388 204.948 149.575 204.811 149.771 204.667L150.004 205.057C149.923 205.11 149.827 205.173 149.733 205.235L149.733 205.235ZM150.813 201.172C150.913 201.402 150.997 201.639 151.063 201.881C151.081 201.944 151.1 202.007 151.123 202.069C151.275 202.488 151.298 202.943 151.187 203.375C151.185 203.386 151.164 203.393 151.151 203.402C151.151 203.681 151.027 203.945 150.813 204.124L150.5 203.962L150.442 204.023L150.716 204.303C150.652 204.376 150.566 204.473 150.479 204.57L150.274 204.311C150.118 204.471 150.167 204.565 150.427 204.652L150.105 204.943L149.928 204.536C150.198 204.123 150.442 203.694 150.658 203.251C150.694 203.042 150.742 202.835 150.801 202.632C150.815 202.584 150.889 202.546 150.944 202.519C150.996 202.5 151.051 202.486 151.107 202.48L151.113 202.413L150.866 202.338L150.813 201.172ZM150.608 201.506C150.711 202.056 150.657 202.623 150.453 203.144C150.236 203.887 149.737 204.515 149.063 204.893C148.686 205.115 148.293 205.308 147.887 205.47C147.571 205.581 147.236 205.63 146.901 205.613C146.345 205.6 145.792 205.521 145.254 205.376C144.843 205.249 144.076 204.505 144.038 204.447C143.917 204.267 143.797 204.084 143.695 203.893C143.449 203.473 143.286 203.01 143.215 202.528C143.169 202.09 143.153 201.649 143.166 201.209C143.179 200.733 143.239 200.258 143.28 199.783C143.319 199.334 143.353 198.885 143.406 198.438C143.428 198.352 143.488 198.281 143.568 198.243C143.792 198.153 144.022 198.078 144.255 198.018C144.423 197.974 144.603 197.976 144.771 197.932C145.478 197.749 146.175 197.512 146.892 197.382C147.498 197.272 148.13 197.31 148.743 197.228C149.201 197.166 149.359 197.377 149.459 197.767C149.569 198.199 149.731 198.618 149.866 199.043C149.883 199.094 150.072 199.558 150.128 199.795C150.265 200.371 150.471 200.93 150.608 201.506L150.608 201.506ZM148.942 193.942C148.885 193.945 148.783 193.963 148.779 193.95C148.759 193.868 148.746 193.783 148.741 193.699L148.882 193.679L148.942 193.942ZM148.508 193.695L148.432 193.359L148.51 193.332L148.752 193.587L148.508 193.695ZM148.522 193.078C148.129 192.668 147.711 192.28 147.471 191.745C147.105 191.052 147.346 190.193 148.019 189.792C148.462 189.492 148.989 189.34 149.524 189.357C150.135 189.361 150.725 189.583 151.187 189.983C151.691 190.408 152.197 190.831 152.695 191.264C152.876 191.422 153.033 191.607 153.223 191.802C152.954 191.93 152.695 192.045 152.443 192.173C151.711 192.537 151.026 192.989 150.402 193.516C150.212 193.691 150.041 193.885 149.891 194.095C149.78 194.242 149.702 194.285 149.557 194.132C149.219 193.774 148.862 193.434 148.522 193.078ZM149.097 194.263C149.063 194.192 149.042 194.115 149.036 194.036L149.098 194.01L149.289 194.17L149.288 194.249C149.222 194.256 149.117 194.29 149.097 194.263L149.097 194.263ZM149.452 194.742L149.326 194.412C149.381 194.409 149.445 194.386 149.488 194.407C149.638 194.479 149.595 194.575 149.452 194.742ZM150.197 195.527C150.025 195.398 149.874 195.242 149.75 195.066C149.7 194.989 149.733 194.828 149.777 194.725C150.02 194.189 150.407 193.731 150.895 193.402C151.602 192.865 152.379 192.427 153.205 192.101C153.338 192.05 153.471 191.998 153.6 191.938C154.163 191.675 154.754 191.98 155.072 192.527C154.886 192.569 154.709 192.604 154.534 192.65C152.901 193.01 151.457 193.956 150.476 195.31C150.409 195.407 150.222 195.546 150.197 195.527ZM151.136 197.313C150.989 196.914 150.82 196.525 150.629 196.146C150.551 196.04 150.567 195.892 150.665 195.805C150.782 195.685 150.89 195.556 151.012 195.441C151.779 194.714 152.574 194.021 153.521 193.531C153.809 193.379 154.106 193.244 154.41 193.126C154.696 193.011 154.995 192.93 155.3 192.883C155.422 192.868 155.582 193.004 155.696 193.104C155.969 193.343 156.229 193.598 156.487 193.853C156.972 194.333 157.461 194.809 157.93 195.304C158.457 195.86 158.793 196.529 159.06 197.418C159.1 197.867 159.112 198.319 159.094 198.769C159.031 199.289 158.757 199.76 158.337 200.072C157.926 200.419 157.486 200.731 157.022 201.003C156.211 201.466 155.234 201.537 154.363 201.198C153.852 200.997 153.379 200.707 152.968 200.342C152.639 200.026 152.348 199.673 152.099 199.291C151.68 198.684 151.355 198.017 151.136 197.313L151.136 197.313ZM153.17 201.196C153.08 201.017 153.015 200.887 152.942 200.742C152.805 200.828 152.714 200.719 152.628 200.587C152.472 200.348 152.312 200.112 152.154 199.875L152.205 199.834C152.567 200.205 152.83 200.684 153.371 200.85C153.3 200.972 153.255 201.049 153.17 201.196L153.17 201.196ZM153.829 201.483C153.547 201.477 153.43 201.326 153.479 201.008C153.844 201.193 153.844 201.193 153.829 201.483L153.829 201.483ZM159.914 198.308C159.877 198.428 160.058 198.664 159.719 198.629C159.679 198.639 159.648 198.67 159.637 198.709C159.646 198.75 159.676 198.783 159.716 198.797C159.801 198.808 159.886 198.811 159.972 198.807C159.945 198.971 159.908 199.133 159.862 199.293C159.854 199.316 159.71 199.306 159.633 199.289C159.538 199.263 159.444 199.23 159.352 199.191L159.305 199.297C159.455 199.375 159.606 199.453 159.78 199.544C159.723 199.69 159.653 199.83 159.573 199.964C159.425 200.173 159.325 199.842 159.131 199.938L159.393 200.259L159.156 200.545C158.91 201.046 158.493 201.442 157.98 201.664C157.85 201.724 157.794 201.715 157.729 201.594C157.674 201.507 157.611 201.424 157.543 201.347L157.456 201.402L157.659 201.828C157.521 201.925 157.387 202.053 157.235 201.893C157.144 201.778 157.064 201.654 156.996 201.524L156.924 201.549L157.082 202.065C156.955 202.061 156.785 202.103 156.68 202.038C156.576 201.974 156.538 201.804 156.456 201.651C156.303 201.828 156.446 201.958 156.483 202.101C156.189 202.356 156.163 201.999 156.014 201.851C155.991 201.956 155.997 202.037 155.959 202.077C155.902 202.136 155.827 202.175 155.746 202.188C155.714 202.192 155.653 202.101 155.632 202.043C155.602 201.945 155.578 201.844 155.56 201.742L155.475 201.751L155.432 202.177C155.308 202.127 155.159 202.111 155.104 202.031C155.042 201.941 155.067 201.793 155.053 201.67L154.956 201.662L154.885 202.009C154.531 202.04 154.642 201.696 154.49 201.49C154.447 201.628 154.415 201.731 154.383 201.835C154.051 201.72 153.969 201.592 154.072 201.33C154.599 201.548 155.167 201.647 155.736 201.621C156.262 201.597 156.773 201.435 157.216 201.15C157.628 200.894 158.026 200.616 158.409 200.319C158.758 200.037 159.031 199.673 159.203 199.259C159.399 198.758 159.428 198.208 159.287 197.689C159.193 197.299 159.108 196.907 159.014 196.49C159.25 196.642 159.433 196.864 159.538 197.125C159.637 197.344 159.724 197.569 159.798 197.798C159.859 197.91 159.84 198.05 159.752 198.142C159.598 198.319 159.826 198.26 159.914 198.308Z" fill="#FFB61D"/>
<path d="M158.739 200.184C158.8 200.484 158.905 200.566 159.155 200.544C159.165 200.523 159.181 200.492 159.178 200.489C159.041 200.391 158.901 200.295 158.739 200.184Z" fill="#F93059"/>
<path d="M159.157 200.544L159.155 200.544L159.153 200.548L159.157 200.544Z" fill="#F93059"/>
<path d="M157.813 201.128C157.917 201.254 158.02 201.38 158.124 201.507L158.216 201.418L157.896 201.054L157.813 201.128Z" fill="#F93059"/>
<path d="M158.251 200.764L158.585 201.066L158.661 200.975L158.321 200.681L158.251 200.764Z" fill="#F93059"/>
</svg>
