<svg width="13" height="14" viewBox="0 0 13 14" fill="none" xmlns="http://www.w3.org/2000/svg">
<path d="M1.00648 11.4544L0.259863 11.3833L1.00648 11.4544ZM12.7528 11.3833C12.7136 10.9709 12.3474 10.6685 11.9351 10.7078C11.5227 10.747 11.2203 11.1131 11.2596 11.5255L12.7528 11.3833ZM11.4684 5.80733L12.215 5.73622L11.4684 5.80733ZM1.5443 5.80733L2.29092 5.87844L1.5443 5.80733ZM3.68281 4.52941V5.27941C4.09703 5.27941 4.43281 4.94363 4.43281 4.52941H3.68281ZM8.57987 4.52941C8.57987 4.94363 8.91566 5.27941 9.32987 5.27941C9.74408 5.27941 10.0799 4.94363 10.0799 4.52941H8.57987ZM4.43281 6.64707C4.43281 6.23286 4.09703 5.89707 3.68281 5.89707C3.2686 5.89707 2.93281 6.23286 2.93281 6.64707H4.43281ZM2.93281 6.65412C2.93281 7.06834 3.2686 7.40412 3.68281 7.40412C4.09703 7.40412 4.43281 7.06834 4.43281 6.65412H2.93281ZM10.0799 6.64707C10.0799 6.23286 9.74408 5.89707 9.32987 5.89707C8.91566 5.89707 8.57987 6.23286 8.57987 6.64707H10.0799ZM8.57987 6.65412C8.57987 7.06834 8.91566 7.40412 9.32987 7.40412C9.74408 7.40412 10.0799 7.06834 10.0799 6.65412H8.57987ZM6.50635 3.77941C6.09213 3.77941 5.75635 4.1152 5.75635 4.52941C5.75635 4.94363 6.09213 5.27941 6.50635 5.27941V3.77941ZM10.9907 8.70196C11.0299 9.11431 11.3961 9.41675 11.8084 9.37748C12.2207 9.33821 12.5232 8.9721 12.4839 8.55975L10.9907 8.70196ZM10.6008 12.25H2.41189V13.75H10.6008V12.25ZM1.75311 11.5255L2.29092 5.87844L0.797678 5.73622L0.259863 11.3833L1.75311 11.5255ZM2.41189 12.25C2.02162 12.25 1.71611 11.914 1.75311 11.5255L0.259863 11.3833C0.138993 12.6524 1.13701 13.75 2.41189 13.75V12.25ZM11.2596 11.5255C11.2966 11.914 10.9911 12.25 10.6008 12.25V13.75C11.8757 13.75 12.8737 12.6524 12.7528 11.3833L11.2596 11.5255ZM10.063 5.27941C10.4042 5.27941 10.6894 5.53879 10.7218 5.87844L12.215 5.73622C12.1093 4.62673 11.1775 3.77941 10.063 3.77941V5.27941ZM2.94971 3.77941C1.83519 3.77941 0.903344 4.62673 0.797678 5.73622L2.29092 5.87844C2.32327 5.53879 2.60853 5.27941 2.94971 5.27941V3.77941ZM4.43281 3.82353C4.43281 2.67835 5.36116 1.75 6.50634 1.75V0.25C4.53274 0.25 2.93281 1.84992 2.93281 3.82353H4.43281ZM6.50634 1.75C7.65152 1.75 8.57987 2.67835 8.57987 3.82353H10.0799C10.0799 1.84992 8.47995 0.25 6.50634 0.25V1.75ZM2.93281 3.82353V4.52941H4.43281V3.82353H2.93281ZM8.57987 3.82353V4.52941H10.0799V3.82353H8.57987ZM2.93281 6.64707V6.65412H4.43281V6.64707H2.93281ZM8.57987 6.64707V6.65412H10.0799V6.64707H8.57987ZM2.94971 5.27941H3.68281V3.77941H2.94971V5.27941ZM6.50635 5.27941H10.063V3.77941H6.50635V5.27941ZM10.7218 5.87844L10.9907 8.70196L12.4839 8.55975L12.215 5.73622L10.7218 5.87844Z" fill="#291334"/>
</svg>
