<svg width="227" height="300" viewBox="0 0 227 300" fill="none" xmlns="http://www.w3.org/2000/svg">
<path fill-rule="evenodd" clip-rule="evenodd" d="M61.4999 259.352C88.335 250.154 114.564 275.866 160.682 283.331C206.8 290.796 239.944 231 221.605 200.083C203.265 169.165 206.8 128.83 218.902 90.493C231.005 52.1555 215.53 29.3347 199.085 19.9921C182.64 10.6496 166.502 7.72151 140.762 9.47895C115.023 11.2364 88.2027 18.8805 63.1123 31.5444C38.0219 44.2083 9.8148 72.2721 6.90866 90.2675C4.00252 108.263 15.6141 110.023 17.6916 138.486C19.769 166.95 -8.84111 205.008 2.79249 230.823C14.4261 256.638 34.6648 268.549 61.4999 259.352Z" fill="#65C3C8"/>
<path fill-rule="evenodd" clip-rule="evenodd" d="M52.6526 258.628L52.5066 259.796C52.5066 259.796 54.6132 260.034 55.5151 259.902C56.417 259.769 58.0681 257.947 58.0681 257.947C58.0681 257.947 56.3451 258.149 55.5151 258.253" fill="#E7EAEE"/>
<path fill-rule="evenodd" clip-rule="evenodd" d="M59.3582 296.836L62.6751 300L116.422 103.52L113.14 99.2578L59.3582 296.836Z" fill="white"/>
<path fill-rule="evenodd" clip-rule="evenodd" d="M33.4868 298.967C33.4868 298.967 37.4149 300 40.8794 288.107C44.3439 276.214 90.2901 106.959 90.2901 106.959L88.7719 103.245L33.4868 298.967Z" fill="white"/>
<path fill-rule="evenodd" clip-rule="evenodd" d="M124.648 3.42391C124.975 2.57786 126.726 3.60466 127.614 3.42391C127.581 4.76174 99.2888 78.0768 96.6727 83.3616C96.2066 83.0108 94.0955 81.9861 93.6294 81.6352C94.6269 81.3611 115.05 28.2803 124.648 3.42391Z" fill="white"/>
<path fill-rule="evenodd" clip-rule="evenodd" d="M152.394 1.77885C147.633 15.2093 125.865 72.4984 123.535 77.2047C123.285 77.0162 121.89 78.3623 120.889 78.455C120.026 78.5348 119.542 77.367 119.326 77.2047C120.308 76.935 140.091 25.5547 149.871 0.222566C150.032 -0.194329 152.979 0.128018 152.394 1.77885Z" fill="white"/>
<path fill-rule="evenodd" clip-rule="evenodd" d="M64.954 226.008L69.9249 228.451C69.9249 228.451 83.0151 209.733 83.0151 200.376C83.0151 196.646 72.2363 194.147 66.08 189.905C62.5735 187.489 61.1188 183.137 59.1634 181.462C57.6334 180.151 54.2051 179.466 49.4079 179.786C48.2582 179.863 45.7374 181.462 45.7374 181.462C45.7374 181.462 35.258 190.704 40.9308 198.248C42.6299 200.507 49.7196 212.1 51.2797 219.769C53.3387 229.89 52.1266 258.077 52.1266 258.077C52.1266 258.077 54.3148 258.055 55.6653 257.75C57.0158 257.446 59.8244 256.341 59.8244 256.341C59.8244 256.341 59.5078 246.762 59.8244 242.499C60.6461 231.436 61.8968 222.591 60.8414 215.731C58.6483 201.475 50.3975 195.061 50.3975 195.061L74.4692 206.55L64.954 226.008Z" fill="white"/>
<path fill-rule="evenodd" clip-rule="evenodd" d="M69.4832 230.934C69.521 231.704 69.2676 232.485 68.7848 233.086C68.5935 232.418 68.5414 231.711 68.6326 231.022C66.8782 230.794 65.1662 230.243 63.6069 229.407C63.0206 230.873 62.5543 232.387 62.2142 233.928C62.061 234.623 61.9665 235.444 62.4589 235.957C62.8874 236.403 63.5824 236.422 64.2008 236.412C66.1358 236.378 68.0985 236.341 69.9549 235.794C71.8113 235.247 73.5807 234.118 74.4691 232.399C73.5837 231.511 72.2752 231.065 71.0317 231.227C71.3552 231.813 71.274 232.598 70.8371 233.106C70.4325 232.517 70.299 231.75 70.4808 231.06C70.1736 230.911 69.8176 230.866 69.4832 230.934Z" fill="white"/>
<path fill-rule="evenodd" clip-rule="evenodd" d="M55.1323 260.332C54.1597 260.548 52.9999 260.786 52.2829 260.095C52.1251 261.388 52.0867 262.696 52.1684 263.996C52.3563 264.129 52.6039 264.173 52.8259 264.113C52.9481 264.396 52.9914 264.712 52.9497 265.017C53.6777 265.891 55.0652 265.611 56.1347 265.224C57.8339 264.609 59.5338 263.898 60.9247 262.744C61.5819 262.199 62.2043 261.438 62.0977 260.591C61.9912 259.743 60.7168 259.184 60.2541 259.901C60.6618 260.306 60.8518 260.918 60.7447 261.482C59.9108 260.881 59.0769 260.28 58.243 259.679C58.5615 260.499 58.88 261.319 59.1986 262.139C58.9996 262.456 58.4742 262.299 58.2685 261.987C58.0627 261.674 58.0295 261.276 57.8445 260.951C57.352 260.085 56.1049 260.117 55.1323 260.332Z" fill="white"/>
<path fill-rule="evenodd" clip-rule="evenodd" d="M63.941 148.563C65.9493 147.309 68.3917 149.242 69.9589 151.016C71.8829 153.195 73.8069 155.374 75.7308 157.553C76.6599 151.681 80.2585 146.63 83.7537 141.821C84.7575 140.44 85.791 139.03 87.2077 138.077C88.6244 137.124 91.3517 137.811 92.0565 137.462C91.96 136.432 91.0734 135.531 90.0446 135.418C90.1804 134.221 90.7478 133.077 91.619 132.244C91.6252 131.528 90.4974 131.641 89.8907 132.021C83.7267 135.88 78.2104 140.772 73.6409 146.429C72.5273 147.808 70.8181 149.396 69.2554 148.56C67.6396 147.696 68.1083 145.317 68.5669 143.542C69.1954 141.11 69.3546 138.558 69.0332 136.067C68.6908 133.414 67.8111 130.729 68.4063 128.121C69.0015 125.513 71.9838 123.203 74.3003 124.541C76.0825 125.57 78.557 124.61 79.5886 122.829C80.6202 121.048 80.4103 118.753 79.523 116.896C78.6357 115.039 77.1571 113.538 75.6555 112.131C74.6294 111.169 73.5163 110.199 72.146 109.883C70.1335 109.418 67.8716 110.681 67.2115 112.638C66.5514 114.595 67.5863 116.97 69.4692 117.819C68.2883 118.175 66.9598 118.007 65.9049 117.368C67.4977 118.095 68.1813 120.12 67.8262 121.835C67.4711 123.55 66.3034 124.982 65.0254 126.179C63.6648 127.453 62.1354 128.547 60.4898 129.423C52.0158 133.932 47.9177 143.794 45.9479 153.189C43.9781 162.584 43.4153 172.464 39.167 181.072C39.9962 181.908 41.3739 181.22 42.429 180.698C47.4082 178.233 53.3492 180.587 58.893 180.22C60.2937 180.127 61.8144 179.778 62.6628 178.66C63.1638 177.999 63.3563 177.162 63.5363 176.353C63.9673 174.416 64.3983 172.478 64.8293 170.541C64.9332 170.074 65.0376 169.591 64.9483 169.12C64.8375 168.536 64.445 168.052 64.0664 167.594C61.948 165.031 59.8292 162.42 58.3984 159.419C56.9676 156.418 56.2689 152.947 57.1279 149.735C58.0441 154.656 60.0598 159.368 62.9853 163.429C64.6974 165.806 66.881 168.062 69.7178 168.792C72.9474 169.622 76.3167 168.318 79.311 166.85C86.505 163.323 93.1583 158.695 98.9683 153.178C98.4306 153.349 97.8929 153.519 97.3552 153.69C97.787 152.847 98.375 152.085 99.0804 151.454C98.3258 151.835 97.5712 152.216 96.8167 152.598C97.4275 151.717 98.0383 150.836 98.6492 149.955C97.3864 150.428 96.2436 151.218 95.3544 152.232C95.6038 151.265 95.5486 150.222 95.1986 149.288C94.6503 152.078 91.7603 153.66 89.1824 154.861C86.5407 156.092 83.8991 157.322 81.2575 158.553C79.2434 159.491 76.468 160.268 75.12 158.502C72.0764 154.514 68.2581 151.119 63.941 148.563Z" fill="white"/>
<path fill-rule="evenodd" clip-rule="evenodd" d="M74.0508 120.954C74.6605 120.954 74.8876 120.458 74.5643 119.846C74.2479 119.234 73.6286 118.738 73.1747 118.738C72.7208 118.738 72.4779 119.234 72.6384 119.846C72.8059 120.458 73.4411 120.954 74.0508 120.954Z" fill="#FFB61D"/>
<path fill-rule="evenodd" clip-rule="evenodd" d="M78.7585 117.409C79.2269 117.409 79.4042 116.913 79.1543 116.301C78.9045 115.689 78.3221 115.193 77.8536 115.193C77.3852 115.193 77.2079 115.689 77.4578 116.301C77.7076 116.913 78.29 117.409 78.7585 117.409Z" fill="#FFB61D"/>
<path fill-rule="evenodd" clip-rule="evenodd" d="M126.447 116.723L125.751 169.058L185.632 172.907L189.722 170.856L190.416 63.4451C190.437 60.2089 188.567 57.2582 185.632 55.8955V55.8955L141.688 59.6804L126.447 116.723Z" fill="white"/>
<path fill-rule="evenodd" clip-rule="evenodd" d="M63.9186 234.711C63.6369 234.594 63.3312 234.534 63.0261 234.538C62.6652 234.414 62.8773 233.826 63.2296 233.68C63.582 233.534 64.0235 233.551 64.2814 233.27C64.4977 233.034 64.498 232.678 64.6059 232.377C64.7138 232.075 65.0623 231.995 65.3065 232.202C65.3559 233.04 66.4004 232.451 67.1598 232.91C67.5834 233.166 66.8776 233.508 66.9277 233.922C66.9912 234.446 68.189 235.627 67.6222 235.42C67.0038 235.195 66.1378 234.847 65.4884 234.953C64.9067 235.047 64.5364 235.564 64.057 235.908C63.9029 235.531 63.8545 235.112 63.9186 234.711Z" fill="#FFB61D"/>
<path fill-rule="evenodd" clip-rule="evenodd" d="M55.5397 263.995C55.8085 264.157 56.0087 264.429 56.0837 264.734C55.7812 264.814 55.2352 264.176 54.8168 264.296C54.3928 264.418 54.0962 265.298 53.7795 265.285C53.448 265.271 54.08 264.557 53.9208 264.131C53.7777 263.748 52.8263 263.661 52.8279 263.457C52.8291 263.302 53.5103 263.319 53.7795 263.073C53.9511 262.915 53.7425 262.471 53.7795 262.392C53.9208 262.094 54.4558 262.392 54.8168 262.809C55.2051 262.706 55.5933 262.604 55.9815 262.502C56.1491 263.027 55.1928 263.284 55.3698 263.778L55.5397 263.995Z" fill="#FFB61D"/>
<path fill-rule="evenodd" clip-rule="evenodd" d="M97.1455 79.983C96.7728 80.948 96.272 82.0344 95.2745 82.3085L96.6728 83.361C99.2888 78.0762 101.558 72.6197 103.461 67.0381C109.853 67.2652 116.255 67.1964 122.641 66.8321L119.306 76.5376C119.08 77.1926 119.278 78.3045 119.925 78.0579C130.09 52.0871 140.13 26.0674 150.045 0C148.353 0.0778519 147.705 1.89801 147.06 3.70615C146.41 5.53075 145.764 7.34312 144.055 7.34057L126.738 7.31475C127.281 6.09181 127.581 4.76117 127.615 3.42334C126.726 3.6041 126.266 4.56783 125.94 5.41388L97.1455 79.983ZM136.073 31.9515C134.56 36.2137 133.005 40.461 131.408 44.6926C131.154 45.3667 130.878 46.07 130.331 46.5387C129.51 47.242 128.317 47.2333 127.236 47.2029C121.901 47.0528 116.555 47.2801 111.251 47.8824C111.431 48.9661 112.873 49.1912 113.971 49.1546L127.938 48.6883C128.333 48.6751 128.768 48.6753 129.068 48.9312C129.575 49.3631 129.369 50.1758 129.121 50.7939L124.022 63.5088C123.846 63.9473 123.655 64.4069 123.281 64.6965C122.834 65.0433 122.226 65.0723 121.661 65.0869L104.195 65.5365C104.29 64.8961 104.614 64.2922 105.096 63.86C111.344 64.2857 117.642 63.968 123.815 62.9158C117.691 61.4901 111.242 61.4849 105.116 62.9005L125.424 10.5674C125.593 10.1307 125.85 9.62445 126.316 9.58114C132.559 9.0015 138.833 8.75863 145.102 8.85394C144.783 10.9585 142.013 11.4612 139.885 11.4525L127.784 11.4028C126.921 11.3993 125.723 11.7712 125.897 12.6164C126.034 13.2781 126.91 13.4091 127.586 13.3919L143.222 12.9919C142.208 16.5024 140.92 19.9337 139.374 23.2446C139.164 23.6961 138.938 24.1586 138.563 24.4867C137.912 25.0555 136.969 25.0987 136.105 25.1131L122.645 25.3361C122.052 25.3459 121.417 25.3697 120.941 25.7226C120.465 26.0755 120.297 26.8894 120.772 27.2428C121.036 27.4386 121.393 27.4307 121.721 27.4144L138.027 26.6018C138.242 28.0652 137.115 29.4583 135.759 30.0483C134.403 30.6383 132.869 30.6116 131.391 30.5747L121.374 30.3248C119.997 30.2905 118.053 30.9063 118.397 32.2404C124.29 32.3291 130.186 32.2327 136.073 31.9515ZM126.24 1.6059C115.947 27.9188 105.64 54.2259 95.3176 80.5272C95.0502 81.2085 94.2312 82.0073 93.7643 81.4438C93.5244 81.1542 93.6508 80.722 93.7884 80.372L124.216 2.93272C124.564 2.04575 125.522 0.97947 126.24 1.6059ZM152.887 4.07289L125.698 74.5972C125.222 75.833 124.526 77.2537 123.216 77.4483L152.46 1.65712C153.354 1.9029 153.22 3.20724 152.887 4.07289ZM113.195 45.5506C113.03 45.195 113.258 44.7569 113.593 44.5544C113.929 44.3519 114.338 44.3252 114.729 44.3049C119.756 44.044 124.792 43.978 129.824 44.1071C130.277 44.1187 130.402 44.8235 130.087 45.1501C129.773 45.4768 129.271 45.5126 128.817 45.5278L114.442 46.009C113.972 46.0247 113.393 45.9781 113.195 45.5506ZM78.4418 137.736C79.6335 137.688 80.2341 136.308 80.5582 135.161L88.5616 106.818C88.8654 105.742 89.1719 104.62 88.9736 103.52C87.7917 104.576 87.3059 106.186 86.873 107.71C84.0325 117.71 81.2221 127.719 78.4418 137.736ZM90.4501 149.586C90.5771 149.963 90.804 150.307 91.1015 150.572C89.3504 150.569 87.6473 151.007 85.9423 151.445L85.9421 151.445C84.4086 151.84 82.8735 152.234 81.3003 152.309C80.5813 152.344 79.568 151.882 79.8834 151.235C80.022 150.95 80.3659 150.844 80.6733 150.77C83.8716 149.998 87.16 149.6 90.4501 149.586ZM63.4943 130.439C64.2273 132.703 65.7764 134.694 67.7914 135.96C67.9876 134.953 67.1337 134.159 66.3453 133.426L66.345 133.426C66.2127 133.303 66.0823 133.182 65.959 133.061C64.7973 131.928 64.0798 130.351 63.9887 128.731C63.5052 129.134 63.3006 129.84 63.4943 130.439ZM70.0146 115.532C70.9338 115.532 72.4734 116.754 71.7237 117.338C70.9739 117.922 69.2459 115.532 70.0146 115.532ZM80.5411 155.492L85.6364 153.832C86.0098 153.711 86.4583 153.489 86.4447 153.096C83.9226 153.272 81.4178 153.694 78.9777 154.356C78.4751 154.492 78.5633 155.326 79.0245 155.568C79.4857 155.81 80.0459 155.653 80.5411 155.492ZM73.2886 113.044C73.6848 112.658 75.9096 114.088 75.1344 114.914C74.7369 115.338 72.8507 113.471 73.2886 113.044ZM69.1109 114.89C69.1835 114.741 69.2569 114.59 69.3749 114.456C69.5227 114.287 69.7554 114.085 69.9893 113.883C70.449 113.486 70.9135 113.084 70.7482 112.916C69.763 113.172 68.8968 113.856 68.4179 114.754C68.0151 115.532 68.6416 115.589 68.7702 115.395C68.9353 115.251 69.0224 115.072 69.1109 114.89ZM75.8433 115.532C75.9634 115.595 76.0923 115.658 76.2241 115.723C76.9429 116.073 77.748 116.466 77.6814 117.204C77.6025 118.076 76.5659 118.705 76.2222 117.899C76.2886 117.756 76.4298 117.705 76.5758 117.653C76.7976 117.574 77.0306 117.49 77.0306 117.073C77.0306 116.786 76.7594 116.578 76.4762 116.361C76.1755 116.13 75.8613 115.889 75.8433 115.532ZM73.3335 111.595C72.3937 111.692 71.6002 112.629 71.691 113.569C71.8264 113.677 72.0276 113.378 72.2521 113.045C72.4122 112.807 72.5842 112.552 72.7527 112.414C72.9322 112.267 73.2529 112.119 73.5493 111.982L73.5494 111.982C73.9692 111.788 74.3403 111.617 74.1925 111.503C74.0452 111.518 73.9041 111.533 73.763 111.549L73.7601 111.549L73.759 111.549C73.6192 111.565 73.4794 111.58 73.3335 111.595ZM92.6099 168.502C92.9065 169.012 92.1323 169.459 91.5493 169.548C86.1941 170.366 80.8211 171.068 75.4354 171.653C75.2863 171.002 75.7175 170.33 76.2895 169.986C76.8615 169.642 77.546 169.552 78.2085 169.469L81.568 169.051C84.9552 168.63 88.3523 168.208 91.7656 168.198C92.0798 168.197 92.4518 168.231 92.6099 168.502ZM69.9589 151.016C68.3917 149.241 65.9493 147.308 63.941 148.562C68.2581 151.118 72.0764 154.513 75.12 158.501C76.468 160.268 79.2434 159.491 81.2575 158.552L89.1824 154.86C91.7603 153.659 94.6503 152.078 95.1986 149.287C95.5486 150.222 95.6038 151.264 95.3544 152.231C96.2436 151.217 97.3864 150.427 98.6492 149.954L96.8167 152.597L99.0804 151.453C98.375 152.084 97.787 152.847 97.3552 153.689L98.9683 153.177C93.1583 158.695 86.505 163.322 79.311 166.849C76.3167 168.317 72.9474 169.622 69.7178 168.791C66.881 168.061 64.6974 165.805 62.9853 163.429C60.0598 159.368 58.0441 154.655 57.128 149.735C56.2689 152.946 56.9676 156.417 58.3984 159.418C59.8292 162.419 61.948 165.031 64.0664 167.593C64.4451 168.051 64.8375 168.536 64.9483 169.12C65.0376 169.59 64.9332 170.073 64.8293 170.54L63.5363 176.353C63.3564 177.162 63.1638 177.999 62.6628 178.659C61.8144 179.777 60.2937 180.127 58.893 180.219C56.8845 180.352 54.8238 180.128 52.7756 179.905L52.7754 179.905C49.1704 179.513 45.6041 179.125 42.429 180.697L42.4153 180.704C41.362 181.225 39.9926 181.903 39.167 181.071C42.2415 174.842 43.3858 167.946 44.53 161.049C44.9668 158.417 45.4036 155.784 45.9479 153.188C47.9177 143.794 52.0159 133.931 60.4898 129.422C62.1354 128.546 63.6648 127.453 65.0254 126.178C66.3034 124.982 67.4711 123.549 67.8262 121.834C68.1537 120.253 67.5979 118.408 66.2606 117.56C67.2489 118.037 68.4176 118.135 69.4692 117.819C67.5863 116.97 66.5514 114.595 67.2115 112.637C67.8716 110.68 70.1335 109.417 72.146 109.882C73.5163 110.198 74.6294 111.168 75.6555 112.13C77.1571 113.537 78.6357 115.038 79.523 116.895C80.4103 118.752 80.6202 121.047 79.5886 122.828C78.557 124.609 76.0825 125.569 74.3003 124.54C71.9838 123.202 69.0015 125.512 68.4063 128.12C67.9699 130.032 68.3264 131.986 68.6827 133.938L68.6827 133.939C68.8123 134.649 68.9419 135.359 69.0332 136.067C69.3546 138.558 69.1954 141.11 68.5669 143.542C68.1083 145.316 67.6396 147.695 69.2554 148.56C70.8181 149.396 72.5273 147.808 73.6409 146.429C78.2104 140.771 83.7267 135.88 89.8907 132.02C90.4974 131.64 91.6252 131.528 91.619 132.244C90.7478 133.076 90.1804 134.22 90.0446 135.417C91.0734 135.53 91.96 136.431 92.0565 137.462C91.7896 137.594 91.2324 137.577 90.5662 137.558C89.4736 137.525 88.0878 137.484 87.2077 138.076C85.791 139.029 84.7575 140.439 83.7537 141.82C80.2585 146.629 76.6599 151.68 75.7309 157.552L69.9589 151.016ZM65.9049 117.367C66.0204 117.437 66.1391 117.501 66.2606 117.56C66.1476 117.488 66.029 117.424 65.9049 117.367ZM84.3847 142.559C86.3379 139.818 89.6714 136.739 92.5517 138.48C93.0875 137.651 92.1801 136.661 91.491 135.909C91.0762 135.456 90.7404 135.09 90.846 134.897L90.9173 134.767L90.9722 134.667C92.1199 132.583 94.333 128.563 87.671 132.238C83.1284 134.744 76.1553 141.76 72.5585 145.38C71.1361 146.811 70.2417 147.711 70.2344 147.59C70.0928 145.244 70.0287 142.634 69.9646 140.025C69.9005 137.416 69.8364 134.806 69.6948 132.46C69.5964 130.83 69.514 129.114 70.2344 127.649C70.9549 126.183 72.776 125.123 74.255 125.815C78.0196 127.577 82.0974 122.665 81.2779 118.59C80.4584 114.514 76.8714 111.673 73.529 109.202C75.2309 107.139 75.6155 104.078 74.4768 101.659C73.3381 99.2397 70.7342 97.5854 68.0603 97.5825C68.469 99.3068 68.118 101.197 67.1176 102.66C66.1393 104.09 64.6633 105.027 63.1826 105.968C62.4952 106.404 61.8067 106.841 61.1666 107.329C59.1478 108.866 57.495 111.635 58.7204 113.857C59.4266 115.137 60.8004 115.737 62.1872 116.342C63.4232 116.881 64.6694 117.424 65.4624 118.459C67.1145 120.614 65.9502 123.887 63.9288 125.7C62.6848 126.816 61.1972 127.586 59.7061 128.358C58.7743 128.841 57.841 129.324 56.965 129.893C50.695 133.964 48.1373 141.743 46.178 148.958C43.114 160.24 40.448 171.631 38.1867 183.101L41.3302 183.087C38.355 186.708 38.219 191.981 39.5613 196.472C40.5446 199.762 42.2056 202.781 43.8661 205.799C44.4723 206.901 45.0785 208.003 45.6516 209.117C49.6669 216.928 52.1235 225.732 51.3683 234.481C50.9538 239.283 49.5925 243.946 48.2384 248.572L33.4868 298.966C36.4627 289.887 39.5743 279.85 42.686 269.813L42.6868 269.81C45.7982 259.774 48.9095 249.737 51.8852 240.659C52.0094 240.28 51.9473 241.954 51.8852 243.629C51.8231 245.303 51.7609 246.977 51.8852 246.598C51.1432 249.395 50.2642 252.275 49.4267 255.019C48.7894 257.107 48.1762 259.117 47.6657 260.951C46.7135 264.371 45.8202 267.61 44.9226 270.865L44.9222 270.867L44.9219 270.867C42.6654 279.05 40.3815 287.331 37.0657 298.844C41.8954 288.309 44.4838 276.911 47.0408 265.607C47.5902 265.605 48.2504 265.604 48.9106 265.602C49.5708 265.6 50.231 265.598 50.7804 265.596C50.1276 264.81 47.6657 264.287 47.6657 264.287L47.9345 262.921C47.9345 262.921 51.2253 263.482 51.0572 262.759C50.7213 262.517 48.2384 262.139 48.2384 262.139C48.2384 262.139 50.9331 252.347 51.8852 249.171L51.2253 264.635C51.1998 265.234 51.2024 265.91 51.6277 266.332C52.0648 266.766 52.7652 266.751 53.377 266.679C55.2051 266.465 57.0046 266.007 58.7128 265.321C60.1195 264.757 61.5847 263.854 62.308 262.598L67.2115 262.744C67.2115 262.744 66.9596 263.823 66.8384 264.34C66.8201 264.418 65.4748 264.454 64.1352 264.489C62.8071 264.524 61.4847 264.559 61.4669 264.635C61.4438 264.734 62.7514 264.874 64.0517 265.013C65.3375 265.151 66.6162 265.288 66.5939 265.383C65.9717 268.032 65.4396 270.503 64.9974 272.557L64.9973 272.557C64.5778 274.505 64.2392 276.077 63.9817 277.069C63.731 278.033 63.4402 279.064 62.6734 279.701C62.2017 280.092 59.2321 280.445 57.4257 280.659C56.8156 280.731 56.3382 280.788 56.1345 280.825C53.5499 281.296 51.3289 281.328 49.2406 281.359H49.2403C47.5407 281.384 45.929 281.407 44.2805 281.665C43.5001 281.787 43.0882 282.512 43.3371 282.756C46.6149 282.656 49.7563 282.433 52.8978 282.21C56.0394 281.988 59.181 281.765 62.459 281.665C62.388 281.981 62.3531 282.244 62.3244 282.46C62.2542 282.99 62.2212 283.238 61.7873 283.306C58.9119 283.753 55.8824 283.984 52.8529 284.215L52.8517 284.215C49.8217 284.446 46.7917 284.677 43.9158 285.125C42.968 285.272 41.8536 286.544 42.7657 286.841L61.5671 284.719C60.1866 288.63 58.7852 292.728 59.3581 296.835C69.1042 262.614 78.5389 228.303 87.6608 193.91C83.2969 193.377 78.8184 193.803 74.6334 195.149C78.0934 196.132 82.1947 197.824 82.6281 201.395C82.8532 203.249 81.9498 205.033 81.0735 206.682L69.6428 228.196L65.2264 225.792L73.676 210.17C74.3555 208.914 75.0311 207.341 74.2578 206.141C73.8439 205.498 73.1105 205.149 72.4149 204.833L49.1523 194.243C52.4765 196.17 54.9226 199.55 55.7127 203.31C56.1345 205.317 57.0927 207.136 58.0537 208.96C58.7341 210.252 59.4159 211.547 59.9095 212.912C61.6393 217.696 60.9492 222.923 60.2781 228.006C60.2078 228.539 60.1377 229.07 60.0706 229.599C58.9501 238.429 58.7331 247.373 59.4242 256.247L52.5803 257.816C53.9024 242.361 55.0819 226.057 48.4289 212.045C47.6023 210.304 46.6619 208.618 45.7219 206.933L45.7219 206.933C44.4223 204.603 43.1234 202.275 42.1271 199.804C40.41 195.546 39.6657 190.604 41.5493 186.417C43.4328 182.229 48.5882 179.353 52.8105 181.157C54.7404 181.981 56.9481 182.138 58.9753 181.595C63.7783 191.856 77.8512 196.478 87.8028 191.064C88.8723 190.482 89.2865 189.183 89.6064 188.008L97.9927 157.212C95.788 158.747 95.265 161.633 94.7745 164.34C94.7126 164.681 94.6513 165.019 94.5872 165.352C94.0145 168.322 92.2873 171.759 89.2627 171.793C83.7679 171.853 78.2796 172.483 72.9143 173.67L73.7777 170.158C81.7076 167.494 89.1322 163.333 95.5447 157.961C98.2961 155.656 101.078 151.941 99.3005 148.823L96.0764 150.073C96.4675 149.546 96.0997 148.656 95.4506 148.559C90.6548 153.739 84.0565 157.218 77.0725 158.249C77.4736 152.414 80.9906 147.322 84.3847 142.559ZM62.5446 262.106C62.4786 262.276 62.3992 262.44 62.308 262.598L61.7873 262.583C61.7873 262.583 61.946 262.312 62.5446 262.106ZM60.9692 233.6C61.3007 235.54 63.2721 237.298 65.3602 237.569C68.1077 237.925 70.7577 236.577 73.2007 235.271C73.7031 235.002 74.2208 234.721 74.5706 234.271C75.5565 233.004 74.6561 231.003 73.2204 230.284C71.7848 229.566 70.0829 229.75 68.4902 229.951C71.0641 229.512 72.1691 226.645 73.135 224.138L73.2496 223.841L73.2972 223.718L73.3635 223.548C74.3914 220.924 77.2174 218.113 79.5979 219.623C77.7582 225.387 76.1606 231.228 74.8107 237.126L63.8754 238.42C62.5651 238.575 60.8018 239.468 61.369 240.659L74.341 238.865L69.7932 255.434C69.4571 256.658 68.0603 261.481 68.0603 261.481C68.0603 261.481 63.9579 261.788 62.9893 261.986C62.8193 262.021 62.672 262.062 62.5446 262.106C62.6672 261.791 62.7435 261.456 62.7633 261.102C62.8785 259.043 59.5277 257.562 58.7405 259.468C57.7267 258.535 58.841 256.465 60.1784 256.797C59.8716 249.059 60.1373 241.299 60.9692 233.6ZM60.9692 233.6C61.0344 232.997 61.103 232.395 61.1751 231.792C60.9207 232.387 60.867 233.002 60.9692 233.6ZM61.1751 231.792C61.5983 228.258 62.1411 224.737 62.8029 221.239L65.9255 221.118L61.1937 231.75C61.1874 231.764 61.1812 231.778 61.1751 231.792ZM76.552 191.665C73.8271 192.032 70.6762 192.268 68.7138 190.342C68.5203 190.152 68.3373 189.932 68.2851 189.666C68.2371 189.421 68.3055 189.171 68.3733 188.931L72.3452 174.895C74.843 175.243 77.38 174.911 79.88 174.578L92.2849 172.929C90.9839 178.196 89.5898 183.439 88.1036 188.657C87.9533 189.185 87.7707 189.756 87.313 190.058C87.0223 190.25 86.664 190.302 86.3188 190.348L76.552 191.665ZM107.743 114.792C107.555 118.079 107.338 121.476 105.84 124.409C104.341 127.341 103.906 130.002 103.906 130.002L102.734 133.94C99.3729 133.697 95.9639 134.138 92.7749 135.227C95.8711 136.579 99.5204 136.605 102.636 135.298C101.064 139.453 100.152 143.856 99.9445 148.293C105.208 132.526 109.773 116.527 113.623 100.356C115.724 100.748 115.704 103.753 115.145 105.816L63.4013 296.501C62.6734 298.966 61.228 306.535 66.7706 286.84C73.1231 264.268 83.1049 228.168 92.9183 192.676L92.9197 192.671L92.9234 192.658L92.9243 192.655C101.865 160.318 110.666 128.489 116.454 107.86C116.904 106.257 117.358 104.142 117.054 102.505C116.751 100.867 115.445 99.2868 113.78 99.2573C111.748 102.225 110.309 105.596 109.573 109.116L90.1482 110.903C91.0213 109.416 90.9377 107.422 89.9433 106.013L82.1364 135.384C85.5123 128.296 87.9436 120.759 89.3458 113.035L109.361 110.325C109.424 113.308 105.236 113.916 102.253 113.902C97.8851 113.881 93.5153 114.771 89.5031 116.497C95.6227 116.734 101.773 116.159 107.743 114.792ZM62.8572 215.62C62.8503 216.302 63.0674 216.984 63.467 217.536C65.069 217.167 66.7238 217.028 68.3649 217.125C67.4671 218.221 66.7174 219.438 66.1423 220.732L65.8796 219.659L62.9367 219.799L62.3529 217.231C62.0338 215.827 61.7125 214.398 61.8117 212.962C61.8934 211.779 62.2575 210.637 62.619 209.508L64.7594 202.821L71.686 205.614C72.2538 205.843 72.8424 206.086 73.2519 206.541C73.6613 206.997 73.8311 207.73 73.4694 208.224C71.6244 210.743 70.0471 213.459 68.7727 216.31C68.5739 215.888 68.5685 215.38 68.7583 214.954C66.7787 215.034 64.8048 215.257 62.8572 215.62ZM65.9958 170.219C66.0554 169.774 66.5943 169.529 67.0345 169.616C67.4748 169.704 67.8295 170.019 68.1608 170.322L68.7518 169.777C69.0906 169.817 69.1072 170.302 69.0259 170.633C67.673 176.153 66.1193 181.625 64.3691 187.032L60.8413 181.305C62.2106 181.492 63.5354 180.553 64.2297 179.358C64.9241 178.163 65.1209 176.753 65.3043 175.384L65.9958 170.219ZM68.7848 233.085C69.2676 232.484 69.521 231.703 69.4832 230.933C69.8176 230.866 70.1736 230.911 70.4808 231.059C70.299 231.75 70.4325 232.517 70.8371 233.105C71.274 232.597 71.3552 231.813 71.0317 231.226C72.2752 231.064 73.5837 231.51 74.4691 232.398C73.5807 234.118 71.8113 235.246 69.9549 235.793C68.0985 236.34 66.1358 236.378 64.2008 236.411C63.5824 236.422 62.8874 236.402 62.4589 235.956C61.9665 235.444 62.061 234.622 62.2142 233.928C62.5543 232.386 63.0206 230.872 63.6069 229.407C65.1662 230.243 66.8782 230.793 68.6326 231.022C68.5414 231.71 68.5935 232.417 68.7848 233.085ZM52.2827 260.094C52.9996 260.786 54.1595 260.548 55.1321 260.332C56.1047 260.116 57.3518 260.085 57.8443 260.951C57.9306 261.102 57.9839 261.27 58.0371 261.438C58.0979 261.629 58.1586 261.82 58.2683 261.986C58.474 262.299 58.9994 262.455 59.1984 262.139L58.2428 259.678L60.7445 261.481C60.8516 260.917 60.6616 260.305 60.2539 259.901C60.7166 259.183 61.991 259.743 62.0975 260.59C62.2041 261.437 61.5817 262.199 60.9245 262.744C59.5336 263.898 57.8336 264.608 56.1344 265.224C55.065 265.611 53.6775 265.89 52.9494 265.017C52.9912 264.711 52.9479 264.395 52.8257 264.113C52.6036 264.172 52.3561 264.128 52.1682 263.996C52.0865 262.695 52.1249 261.387 52.2827 260.094ZM67.0691 189.324C66.2023 189.085 65.6362 188.071 65.8871 187.207L70.8066 170.271C71.3022 170.218 71.8078 170.26 72.2879 170.394L67.0691 189.324ZM79.683 212.495C79.8418 212.141 80.0005 211.788 80.1622 211.437C81.1672 209.253 82.3024 207.129 83.5596 205.08C83.9527 206.311 83.3474 207.591 82.7871 208.775L82.7855 208.779C82.7451 208.864 82.7049 208.949 82.6653 209.034C81.7153 211.061 81.0814 213.237 80.7937 215.457C80.5755 217.14 78.4727 218.266 76.951 217.515C78.1106 215.997 78.8982 214.243 79.683 212.495ZM60.6227 201.238C60.7816 201.491 60.7475 201.816 60.7009 202.111C60.3841 204.118 59.7389 206.072 58.7987 207.874L55.8264 199.659C57.2485 199.883 58.6454 200.267 59.9819 200.802C60.2259 200.9 60.483 201.015 60.6227 201.238ZM79.6854 196.032C81.7357 195.042 84.1367 194.797 86.3446 195.354C85.5812 197.292 85.0789 199.332 84.8555 201.403C84.3699 201.592 84.0601 200.895 83.9478 200.386C83.4866 198.296 81.765 196.538 79.6854 196.032ZM63.2648 202.536C63.3598 202.863 63.265 203.212 63.1704 203.539L60.952 211.213C60.24 210.18 60.4682 208.791 60.744 207.568C61.1712 205.672 61.6439 203.787 62.1616 201.914C62.6133 201.794 63.1343 202.087 63.2648 202.536ZM67.1754 229.804C66.3562 229.768 65.4728 229.709 64.8419 229.185C64.211 228.661 64.0817 227.492 64.8011 227.098L67.8467 228.686L67.1754 229.804ZM55.3085 259.733C54.4336 259.898 53.535 259.708 52.665 259.519L52.7778 258.658C54.2682 258.669 55.76 258.472 57.197 258.076C57.0371 258.952 56.1834 259.567 55.3085 259.733ZM78.7246 118.76C78.8716 118.698 79.0395 118.771 79.0997 118.923C79.1599 119.075 79.0895 119.248 78.9425 119.31C78.2227 119.615 77.7796 120.018 77.4069 120.577C77.2458 120.818 77.0226 121.326 76.8018 121.828L76.8017 121.828C76.4981 122.519 76.1987 123.2 76.0703 123.167C75.8485 123.111 76.4049 120.91 76.8337 120.267C77.2726 119.61 77.9052 119.107 78.7246 118.76ZM144.898 60.9479L180.046 57.5145C180.874 57.4336 181.979 56.993 181.778 56.1859C169.623 57.1025 157.479 58.1755 145.351 59.4044C144.548 59.4857 143.475 60.2708 144.08 60.804C144.294 60.9925 144.614 60.9757 144.898 60.9479ZM150.293 90.5527C150.302 90.8105 150.32 91.0898 150.487 91.2859C150.717 91.5553 151.126 91.557 151.48 91.5369L161.234 90.981C161.585 90.961 161.944 90.9389 162.264 90.7957C163.333 90.3178 163.422 88.8622 163.365 87.6927C163.139 83.068 163.174 78.4306 163.469 73.8098C163.509 73.1843 163.813 72.3442 164.427 72.4688L164.279 90.6752C164.275 91.0732 164.255 91.5141 163.977 91.7989C163.713 92.0694 163.3 92.1119 162.923 92.1383C160.781 92.2881 158.64 92.432 156.498 92.5759L149.992 93.013C149.749 93.0293 149.484 93.0395 149.287 92.8963C149.02 92.7021 148.996 92.3204 148.996 91.9905L149.021 75.8802C149.022 75.2927 149.068 74.6124 149.546 74.2706C150.264 75.1313 150.262 76.3628 150.233 77.4832C150.119 81.839 150.139 86.1982 150.293 90.5527ZM188.737 140.677C188.765 139.954 188.768 139.228 188.771 138.509L188.963 76.772C188.968 75.1219 188.921 73.3201 187.86 72.0562C187.46 95.4709 187.4 118.892 187.68 142.308C187.583 142.904 187.571 143.533 187.574 144.127C187.591 146.983 187.542 151.252 187.494 155.52C187.445 159.788 187.397 164.056 187.413 166.913C187.42 168.117 186.421 169.141 185.29 169.556C184.159 169.97 182.917 169.907 181.715 169.839L124.149 166.56L124.474 145.997C131.317 145.307 138.245 145.454 145.052 146.435C144.666 150.562 144.42 154.702 144.315 158.846C143.689 159.196 140.152 159.181 136.208 159.164C132.399 159.147 128.212 159.129 125.901 159.437C135.053 161.247 144.396 160.994 153.756 160.74C160.734 160.551 167.722 160.361 174.646 161.027C174.949 161.115 175.16 160.647 174.988 160.382C174.816 160.117 174.472 160.037 174.161 159.979L167.672 158.764L167.964 148.732C167.979 148.211 168.004 147.657 168.302 147.229C168.889 146.387 169.991 146.54 171.11 146.696C172.186 146.846 173.278 146.997 173.944 146.27C173.198 150.85 173.578 155.609 175.041 160.012C176.218 129.352 176.654 98.6646 176.348 67.9841C176.341 67.2976 176.301 66.5316 175.805 66.0572C175.293 65.5672 174.496 65.5793 173.788 65.6222L151.32 66.9839C146.744 67.2612 141.999 67.5852 137.975 69.7793L175.107 66.6684C175.044 68.8138 172.212 69.4861 170.067 69.5627C158.733 69.9677 147.437 71.4302 136.374 73.9249C138.693 74.8029 141.329 74.8117 143.654 73.9493C144.409 73.669 144.844 74.8026 144.849 75.6087L144.942 90.6749C144.945 91.187 144.778 91.879 144.266 91.8631C139.268 91.7079 134.251 92.1726 129.366 93.2432C129.507 94.0308 130.569 94.1625 131.367 94.1033L144.804 93.1061C145.498 93.0546 146.399 92.7966 146.403 92.1008L146.489 74.9137C146.491 74.4043 146.509 73.8505 146.832 73.4567C147.206 73.0007 147.858 72.9128 148.445 72.8577L174.457 70.4159L175.595 87.2149C175.683 88.5151 174.626 89.672 173.408 90.1348C172.19 90.5976 170.843 90.5233 169.542 90.4424C169.082 90.4138 168.569 90.3596 168.272 90.0071C168.015 89.7016 168.003 89.2658 168.004 88.8667L168.035 72.8638C168.035 72.4642 167.41 72.3477 167.124 72.6277C166.839 72.9076 166.817 73.3519 166.812 73.7514L166.637 89.0257C166.634 89.2841 166.624 89.5297 166.615 89.7611C166.56 91.1247 166.525 91.9957 168.044 92.1008C169.822 92.2237 173.702 91.6409 175.318 90.8896L174.63 121.231L169.013 121.39C168.38 121.408 167.683 121.452 167.228 121.892C166.742 122.362 166.702 123.116 166.694 123.792L166.516 139.133C166.513 139.367 166.503 139.589 166.494 139.799C166.442 140.946 166.407 141.723 167.672 141.872C169.169 142.048 172.463 141.612 173.868 141.065C174.241 142.468 174.287 143.957 174.003 145.38L167.712 144.913C167.213 144.876 166.523 145.001 166.519 145.501L166.426 157.267C166.419 158.233 166.025 159.557 165.069 159.411C164.265 159.288 164.087 158.222 164.107 157.409L164.378 146.075C164.393 145.463 163.58 145.248 162.969 145.228L150.391 144.834C150.057 144.823 149.701 144.819 149.418 144.996C148.939 145.295 148.879 145.957 148.871 146.522L148.746 155.343C148.721 157.119 148.096 159.505 146.321 159.42L146.25 146.383C146.248 145.996 146.231 145.568 145.967 145.284C145.741 145.041 145.39 144.967 145.063 144.909C138.476 143.733 131.704 143.598 125.076 144.509C124.18 143.184 123.861 141.482 124.216 139.922C125.801 140.675 127.627 140.663 129.381 140.636L144.657 140.405C145.061 140.398 145.497 140.381 145.813 140.13C146.248 139.785 146.283 139.149 146.282 138.593L146.251 124.605C146.249 123.744 146.207 122.784 145.59 122.184C144.956 121.569 143.965 121.572 143.083 121.614L125.611 122.449C125.085 119.64 124.839 116.778 124.879 113.92C124.983 113.537 124.367 113.302 124.058 113.552C123.749 113.801 123.704 114.247 123.684 114.644C122.805 131.648 122.562 148.686 122.956 165.709C122.995 167.415 125.217 168.008 126.921 168.104L181.549 171.177C183.114 171.265 184.732 171.345 186.202 170.799C187.672 170.253 188.963 168.904 188.93 167.336C188.853 163.758 188.841 158.769 188.829 153.779C188.817 148.998 188.806 144.216 188.737 140.677ZM161.806 141.87L149.701 141.514C149.511 141.509 149.308 141.499 149.153 141.389C148.902 141.211 148.877 140.853 148.877 140.545L148.868 122.962C148.868 122.516 148.891 122.013 149.223 121.716C149.516 121.453 149.949 121.442 150.342 121.446L163.496 121.566C163.705 121.568 163.934 121.577 164.092 121.714C164.285 121.881 164.3 122.169 164.3 122.424L164.311 140.528C164.312 141.591 162.869 141.901 161.806 141.87ZM150.422 122.945C149.973 123.16 149.912 123.762 149.912 124.26L149.924 139.639C149.924 139.824 149.936 140.036 150.081 140.151C150.174 140.225 150.301 140.239 150.419 140.25C153.91 140.568 157.425 140.628 160.924 140.43C161.998 140.369 163.412 139.912 163.318 138.841C162.899 134.053 162.86 129.231 163.202 124.436C163.279 123.36 161.821 122.969 160.742 122.958L151.018 122.859C150.815 122.857 150.604 122.857 150.422 122.945ZM150.672 96.0707C150.134 95.991 149.459 95.9591 149.182 96.4275C149.069 96.6196 149.057 96.853 149.049 97.076C148.792 103.913 148.774 110.76 148.995 117.599C149.955 117.271 150.08 115.987 150.048 114.974C149.866 109.199 150.214 103.422 150.561 97.6542C154.569 98.0674 158.635 97.9184 162.602 97.2128C163.164 97.1129 163.384 97.9141 163.363 98.4843C163.166 103.879 163.155 109.28 163.33 114.675C163.405 114.969 162.989 115.119 162.686 115.131L151.115 115.587C150.671 115.605 150.569 116.304 150.892 116.609C151.215 116.914 151.709 116.921 152.153 116.91L163.556 116.623C163.774 116.617 164.018 116.6 164.163 116.437C164.292 116.292 164.299 116.08 164.299 115.886L164.304 96.7968C164.304 96.5825 164.302 96.3585 164.202 96.1689C163.934 95.6602 163.203 95.7087 162.639 95.817C158.702 96.5719 154.638 96.6581 150.672 96.0707ZM189.357 64.1586C189.269 66.8315 189.161 69.5884 188.034 72.0133L187.506 61.326C187.426 59.7042 186.544 57.4762 185.001 57.9813L184.791 163.418C184.787 165.512 184.777 167.642 184.159 169.642C183.491 169.263 183.414 168.349 183.417 167.582L183.803 57.889C183.804 57.6118 183.807 57.3255 183.918 57.0716C184.189 56.4552 184.99 56.2639 185.656 56.3629C187.221 56.5956 188.427 57.9612 188.941 59.4577C189.455 60.9542 189.409 62.5771 189.357 64.1586ZM144.756 99.1953L144.819 114.464C144.82 114.748 144.804 115.071 144.585 115.252C144.433 115.377 144.224 115.397 144.028 115.412L126.15 116.78C125.593 116.822 125.501 117.71 125.926 118.073C126.35 118.436 126.973 118.41 127.529 118.36C128.942 118.231 130.357 118.068 131.772 117.905L131.772 117.905L131.772 117.905H131.772H131.772C136.251 117.388 140.735 116.87 145.188 117.442C146.042 117.552 146.379 116.375 146.384 115.513L146.484 96.8958C146.486 96.6804 146.473 96.4342 146.306 96.2982C146.162 96.1808 145.955 96.1913 145.77 96.2077L130.502 97.5639C130.102 97.5994 129.68 97.6432 129.358 97.8829C129.037 98.1225 128.881 98.6312 129.147 98.9314L143.343 98.1703C143.837 98.1438 144.444 98.179 144.665 98.6215C144.752 98.7964 144.755 98.9998 144.756 99.1953ZM166.651 114.572L166.738 96.8016C166.739 96.5211 166.749 96.2164 166.926 95.999C167.089 95.7988 167.356 95.7215 167.605 95.6547L172.859 94.2489C173.339 94.1206 173.879 93.9992 174.308 94.2488C174.737 94.4984 174.797 95.2901 174.316 95.4131L169.189 96.7242C168.837 96.8143 168.458 96.9212 168.236 97.2088C168.017 97.4922 168.005 97.8791 168.003 98.2374L167.914 114.333C167.912 114.75 168.092 115.331 168.5 115.245C170.505 114.827 172.612 114.91 174.578 115.483C174.422 116.324 173.313 116.505 172.457 116.493L167.673 116.424C166.886 116.413 166.647 115.359 166.651 114.572ZM144.435 123.627C144.675 123.826 144.694 124.181 144.695 124.493L144.699 137.914C144.699 138.477 144.589 139.191 144.044 139.331C138.122 138.918 132.177 138.83 126.245 139.068C125.692 139.09 125.213 138.63 125.027 138.109C124.842 137.588 124.883 137.017 124.922 136.465C125.186 132.805 125.295 129.133 125.248 125.464C125.243 125.024 125.284 124.494 125.671 124.283C125.806 124.21 125.964 124.19 126.118 124.173C131.973 123.502 137.878 123.261 143.768 123.454C144.002 123.462 144.255 123.477 144.435 123.627ZM163.213 149.344C162.937 151.904 162.888 154.489 163.066 157.057C163.076 157.203 163.064 157.401 163.051 157.617C163.02 158.123 162.983 158.728 163.213 158.981C162.806 159.421 154.221 159.356 150.879 159.041C150.573 159.013 150.227 158.959 150.051 158.706C149.926 158.527 149.921 158.294 149.921 158.075L149.912 147.671C149.912 147.293 149.927 146.875 150.191 146.605C150.473 146.318 150.925 146.312 151.326 146.324L160.658 146.616C161.52 146.643 162.518 146.741 162.995 147.461C163.352 147.999 163.282 148.702 163.213 149.344ZM167.881 123.654C167.881 123.396 168.212 123.294 168.469 123.268L174.744 122.634L174.415 138.983C174.407 139.357 174.361 139.799 174.036 139.982C173.884 140.067 173.703 140.075 173.53 140.08L169.013 140.222C168.665 140.233 168.264 140.221 168.044 139.95C167.883 139.75 167.875 139.471 167.875 139.214L167.881 123.654Z" fill="#00160A"/>
</svg>
