<svg width="300" height="241" viewBox="0 0 300 241" fill="none" xmlns="http://www.w3.org/2000/svg">
<path fill-rule="evenodd" clip-rule="evenodd" d="M209.758 0.595858C158.15 -7.87075 163.412 76.8799 94.7425 65.28C24.5058 53.4154 3.51336 137.114 24.5058 183.345C47.1789 233.278 192.36 260.121 244.299 223.312C302.756 181.883 306.59 16.4816 209.758 0.595858Z" fill="#65C3C8"/>
<path fill-rule="evenodd" clip-rule="evenodd" d="M95.142 91.5811C95.142 91.5811 101.068 104.502 106.215 110.492C113.518 118.991 123.948 126.053 127.864 132.682C137.17 148.434 133.042 156.139 133.042 156.139C133.042 156.139 128.126 139.158 121.08 130.865C115.701 124.535 105.138 117.514 101.607 112.316C95.2461 102.952 91.9602 93.9805 91.9602 93.9805L95.142 91.5811Z" fill="white"/>
<path d="M168.302 229.106C144.005 230.241 119.725 231.746 95.474 233.621C92.3638 233.928 90.063 233.974 90.1858 234.304C87.9994 234.165 84.047 232.976 81.7495 233.928C83.4802 234.329 86.7518 235.859 86.9462 237.625C64.0604 238.945 41.0476 238.054 18.3323 234.97C40.5733 236.486 62.8821 237.006 85.1696 236.529C82.2975 234.601 78.6038 233.945 75.2435 234.765C79.5748 232.671 84.5945 232.033 89.3122 232.976C85.7125 228.949 83.3268 223.85 82.5417 218.507C86.1377 220.966 89.0136 224.465 90.7297 228.469C90.5656 220.942 95.8916 213.629 103.105 211.476C98.4985 217.343 96.0635 224.877 96.3648 232.331C119.395 230.363 142.476 228.987 165.578 228.204C164.437 227.3 163.662 225.948 163.457 224.507C164.586 223.543 166.255 223.26 167.639 223.796C168.655 215.75 174.253 208.443 181.758 205.367C177.578 210.087 174.674 215.927 173.433 222.109C174.722 221.328 176.354 221.139 177.788 221.605C177.38 223.348 176.357 224.941 174.942 226.038C203.546 219.5 233.572 230.638 262.628 226.553C247.96 231.296 232.112 227.619 216.779 226.023C194.335 223.796 172.778 228.204 168.302 229.106Z" fill="white"/>
<path d="M228.826 55.1209C229.078 52.7269 231.139 50.9325 233.253 49.7808C237.076 47.6977 241.578 46.8848 245.888 47.4992C247.839 47.7774 249.328 45.9177 250.722 44.5242C254.341 40.9074 259.873 39.587 264.921 40.4225C269.969 41.258 274.543 44.0465 278.227 47.5973C281.911 51.148 284.787 55.4445 287.448 59.8146C288.006 60.7313 289.301 60.7556 290.373 60.703C292.687 60.5896 295.121 60.6535 297.142 61.785C299.162 62.9165 300.583 65.4281 299.765 67.5949C299.382 68.6097 298.569 69.4186 297.64 69.9785C295.787 71.0955 293.54 71.2878 291.383 71.4525C276.996 72.551 262.61 73.6496 248.223 74.7481C244.287 75.0487 240.289 75.3457 236.423 74.5449C232.558 73.7441 228.773 71.6839 226.794 68.268C224.815 64.8521 225.146 59.9862 228.182 57.4626C228.823 56.9295 228.739 55.9504 228.826 55.1209" fill="white"/>
<path d="M180.672 77.1631C183.812 80.7701 200.02 79.507 200.545 86.1059C198.688 86.6152 196.832 87.1245 194.975 87.6338C191.956 88.4619 188.903 89.3037 186.172 90.8337C184.89 91.5517 183.366 92.4393 182.063 91.7619C177.023 89.1425 171.161 88.3286 165.507 88.8693C159.852 89.41 154.383 91.2524 149.252 93.6884C146.573 94.9602 143.554 96.4289 140.781 95.3776C130.658 91.5393 119.109 91.6064 109.031 95.5622C107.245 96.2635 105.252 95.4852 103.494 94.7157C101.592 93.8835 99.6902 93.0513 97.7883 92.2191C100.241 89.4136 110.727 85.5107 112.865 82.7955C113.241 82.3183 127.243 72.6085 142.597 76.9956C143.285 76.6728 167.165 72.6085 180.672 77.1631Z" fill="white"/>
<path fill-rule="evenodd" clip-rule="evenodd" d="M117.912 123.017C109.009 114.555 98.7298 105.989 96.3322 93.9425C100.733 105.244 110.504 113.38 119.074 121.961C127.644 130.543 135.762 141.247 135.232 153.363C149.245 150.304 163.766 149.587 178.012 151.251C179.472 144.674 183.723 139.137 187.058 133.284C195.326 118.774 198.122 101.883 200.779 85.3952C201.45 81.2268 196.347 78.7559 192.255 77.7133C188.169 76.6721 184.082 75.6308 179.996 74.5896C172.316 72.6327 164.359 70.662 156.548 72C151.265 72.9048 146.049 75.3118 140.766 74.4106C132.357 72.9761 123.436 74.7927 116.257 79.4011C112.648 81.7178 109.441 84.721 105.501 86.4159C97.2105 89.9832 89.9077 95.8163 84.5963 103.114C81.8213 88.7599 86.4966 74.0701 91.9626 60.5106C98.073 45.3528 105.743 30.0163 118.89 20.3073C138.164 6.07265 163.295 8.84331 183.345 21.9628C203.396 35.0824 215.647 56.7169 219.606 80.3488C220.067 83.0975 220.393 86.0723 219.099 88.5406C217.805 91.009 217.317 92.4372 215.207 90.6163C213.409 89.064 211.494 87.4541 209.161 87.0072C206.828 86.5603 203.997 87.7729 203.544 90.1053C200.231 107.187 196.751 124.702 187.546 139.467C185.149 143.312 182.357 146.983 180.833 151.25C179.666 154.515 179.29 158.001 178.923 161.448C178.157 168.632 177.391 175.816 176.625 182.999C176.302 186.027 175.852 189.325 173.646 191.424C171.54 193.429 168.405 193.79 165.509 194.047C156.102 194.882 146.696 195.718 137.289 196.553C135.607 196.703 133.7 196.779 132.471 195.62C131.524 194.727 131.262 193.345 131.076 192.057C129.754 182.918 129.755 173.588 131.077 164.449C132.974 151.336 127.106 137.921 117.863 128.428C113.046 123.481 107.366 119.437 102.557 114.483C97.7482 109.528 93.7234 103.301 93.4348 96.4027C96.7071 105.469 102.737 113.52 110.518 119.21C122.145 127.713 130.429 140.668 133.27 154.79C135.503 142.712 126.815 131.479 117.912 123.017Z" fill="white"/>
<path fill-rule="evenodd" clip-rule="evenodd" d="M93.8517 150.616C92.4408 149.843 91.9211 148.108 91.5502 146.542C89.7301 138.86 88.3995 131.063 87.5692 123.212C87.5164 122.713 87.4922 122.136 87.8554 121.79C88.6335 122.707 88.7708 123.989 88.8902 125.186C89.7487 133.792 91.4121 142.318 93.8517 150.616Z" fill="#00160A"/>
<path fill-rule="evenodd" clip-rule="evenodd" d="M205.739 124.448C207.018 120.172 207.961 115.796 208.556 111.373C208.636 110.774 208.862 110.021 209.464 109.974C209.816 110.282 209.782 110.829 209.716 111.291C209.149 115.235 208.34 119.144 207.295 122.989C207.083 123.77 206.489 124.749 205.739 124.448H205.739Z" fill="#00160A"/>
<path fill-rule="evenodd" clip-rule="evenodd" d="M173.152 227.241C173.85 225.347 175.127 223.671 176.769 222.496C175.025 222.603 173.328 223.363 172.086 224.593C172.77 219.23 174.485 214 177.111 209.274C172.254 213.26 169.12 219.277 168.636 225.541C167.479 224.867 166.036 224.704 164.758 225.103C165.939 226.438 167.121 227.772 168.302 229.106C144.005 230.241 119.725 231.746 95.474 233.621C94.2131 226.919 95.8526 219.722 99.8918 214.227C94.5617 217.986 91.2712 224.475 91.3882 230.996C89.0117 227.826 87.8276 223.298 84.2586 221.486C84.8902 224.593 85.6195 225.291 89.8118 233.316C89.9831 233.644 90.063 233.974 90.1858 234.304C87.9994 234.165 84.047 232.976 81.7495 233.928C83.4802 234.329 86.7518 235.859 86.9462 237.625C64.0604 238.945 41.0476 238.054 18.3323 234.97C40.5733 236.486 62.8821 237.006 85.1696 236.529C82.2975 234.601 78.6038 233.945 75.2435 234.765C79.5748 232.671 84.5945 232.033 89.3122 232.976C85.7125 228.949 83.3268 223.85 82.5417 218.507C86.1377 220.966 89.0136 224.465 90.7297 228.469C90.5656 220.942 95.8916 213.629 103.105 211.476C98.4985 217.343 96.0635 224.877 96.3648 232.331C119.395 230.363 142.476 228.987 165.578 228.204C164.437 227.3 163.662 225.948 163.457 224.507C164.586 223.543 166.255 223.26 167.639 223.796C168.655 215.75 174.253 208.443 181.758 205.367C177.578 210.087 174.674 215.927 173.433 222.109C174.722 221.328 176.354 221.139 177.788 221.605C177.38 223.348 176.357 224.941 174.942 226.038C203.546 219.5 233.572 230.638 262.628 226.553C247.96 231.296 232.112 227.619 216.779 226.023C202.267 224.513 187.557 224.924 173.152 227.241Z" fill="#00160A"/>
<path fill-rule="evenodd" clip-rule="evenodd" d="M186.032 122.655C186.382 123.171 186.272 123.861 186.131 124.468C185.282 128.115 183.784 131.61 181.73 134.742C181.159 134.029 181.684 132.998 182.165 132.221C183.445 130.156 184.386 127.88 184.937 125.514C185.172 124.51 185.36 123.438 186.032 122.655H186.032Z" fill="#00160A"/>
<path fill-rule="evenodd" clip-rule="evenodd" d="M180.556 129.277C180.028 128.821 180.264 127.972 180.518 127.322C181.331 125.233 181.878 123.04 182.14 120.814C182.227 120.075 182.366 119.207 183.031 118.876C183.345 119.159 183.298 119.655 183.225 120.071C182.673 123.234 182.099 126.462 180.556 129.277Z" fill="#00160A"/>
<path fill-rule="evenodd" clip-rule="evenodd" d="M136.58 141.064C136.735 140.925 136.976 141.067 137.119 141.218C137.763 141.892 138.146 142.808 138.175 143.739C137.314 143.278 136.683 142.409 136.51 141.448C136.486 141.314 136.478 141.155 136.58 141.064L136.58 141.064Z" fill="#00160A"/>
<path fill-rule="evenodd" clip-rule="evenodd" d="M204.335 112.821C204.106 116.882 203.179 120.903 201.606 124.654C201.566 124.751 201.522 124.851 201.442 124.92C201.209 125.121 200.815 124.904 200.731 124.608C200.648 124.311 200.767 123.999 200.88 123.713C201.989 120.905 202.725 117.951 203.062 114.951C203.162 114.059 203.444 112.926 204.335 112.821L204.335 112.821Z" fill="#00160A"/>
<path fill-rule="evenodd" clip-rule="evenodd" d="M135.08 134.061C133.569 132.018 132.354 129.757 131.484 127.37C131.372 127.063 131.44 126.545 131.756 126.63C131.874 126.662 131.945 126.781 132.003 126.889C133.315 129.335 134.627 131.781 135.939 134.228C135.872 134.595 135.302 134.361 135.08 134.061H135.08Z" fill="#00160A"/>
<path fill-rule="evenodd" clip-rule="evenodd" d="M92.0592 91.6103C91.3651 91.2503 91.3372 90.2828 91.4206 89.5053C92.9736 75.015 100.028 61.1819 110.845 51.416C111.094 53.2544 109.675 54.8466 108.416 56.2097C99.4539 65.9185 93.644 78.4926 92.0592 91.6103Z" fill="#00160A"/>
<path fill-rule="evenodd" clip-rule="evenodd" d="M182.992 91.5959C183.19 86.8382 182.395 81.6019 180.672 77.1627C183.812 80.7697 183.942 86.0179 183.909 90.8002C188.918 87.8209 194.718 86.1843 200.545 86.1055C198.688 86.6148 196.832 87.1241 194.975 87.6334C191.956 88.4615 188.903 89.3033 186.172 90.8333C184.89 91.5513 183.366 92.4389 182.063 91.7614C177.023 89.1421 171.161 88.3282 165.507 88.8689C159.852 89.4096 154.383 91.6914 149.252 94.1275C146.573 95.3993 143.554 96.868 140.781 95.8167C130.658 91.9783 119.109 91.606 109.031 95.5618C107.245 96.2631 105.252 95.4848 103.494 94.7153C101.592 93.8831 99.6902 93.0509 97.7883 92.2187C99.9993 92.6827 105.49 94.6577 105.49 94.6577C105.49 94.6577 107.071 94.8488 107.569 94.2414C108.067 93.634 108.224 92.8267 108.403 92.0621C109.193 88.6977 110.727 85.5103 112.865 82.7951C113.241 82.3179 114.045 81.8725 114.345 82.4009C111.386 85.8301 109.413 90.1004 108.72 94.5762C119.503 90.509 131.808 90.6374 142.505 94.9287C143.527 89.0109 143.558 82.9232 142.597 76.9952C143.285 76.6724 143.79 77.6975 143.858 78.4544C144.351 83.9676 144.262 89.5327 143.594 95.0275C149.78 92.0393 156.196 89.3391 162.979 88.2493C169.762 87.1596 177.002 88.2323 182.992 91.5959Z" fill="#00160A"/>
<path fill-rule="evenodd" clip-rule="evenodd" d="M104.368 79.7824C107.602 70.5276 112.643 61.9081 119.123 54.552C119.598 54.0127 120.163 53.4399 120.881 53.4155C121.6 53.3911 122.274 54.3301 121.767 54.8397C114.312 62.3356 108.496 71.4549 104.844 81.3768C104.187 81.3942 104.151 80.403 104.368 79.7824H104.368Z" fill="#00160A"/>
<path fill-rule="evenodd" clip-rule="evenodd" d="M94.1509 121.458C94.2453 121.573 94.2563 121.733 94.2638 121.882C94.5742 128.046 96.1405 134.068 97.6987 140.04C97.7652 140.295 97.3932 140.479 97.1596 140.357C96.926 140.236 96.8237 139.961 96.7423 139.711C94.9247 134.116 93.7647 128.309 93.2936 122.445C93.2701 122.153 93.2536 121.837 93.4093 121.589C93.5649 121.34 93.965 121.231 94.1509 121.458H94.1509Z" fill="#00160A"/>
<path fill-rule="evenodd" clip-rule="evenodd" d="M142.841 71.4066C142.192 71.4337 141.981 70.5515 141.99 69.9021C142.088 63.1137 142.187 56.3252 142.285 49.5368C142.296 48.7872 142.499 47.8109 143.244 47.7285C143.906 48.5044 143.892 49.6325 143.843 50.6515C143.509 57.5699 143.175 64.4882 142.841 71.4066Z" fill="#00160A"/>
<path fill-rule="evenodd" clip-rule="evenodd" d="M205.347 81.7957C206.785 79.4603 206.688 76.5215 206.446 73.7894C206.021 69.0039 205.293 64.2453 204.267 59.5518C204.168 59.1019 204.109 58.535 204.488 58.2732C204.801 58.0568 205.259 58.2063 205.504 58.4973C205.749 58.7884 205.835 59.1777 205.91 59.5508C207.088 65.3857 207.624 71.3497 207.506 77.3009C207.462 79.5139 207.1 82.11 205.157 83.171C204.784 82.8306 205.082 82.2259 205.347 81.7957H205.347Z" fill="#00160A"/>
<path fill-rule="evenodd" clip-rule="evenodd" d="M182.563 66.0682C183.051 68.2381 182.844 70.5591 181.979 72.6082C181.385 71.9701 181.552 70.9692 181.655 70.1035C182.054 66.7408 180.877 63.392 179.429 60.3308C177.981 57.2696 176.231 54.3138 175.361 51.0412C175.23 50.5489 175.25 49.8358 175.752 49.7487C176.176 49.6752 176.465 50.1549 176.623 50.5552C178.25 54.6775 179.877 58.7998 181.505 62.922C181.911 63.9523 182.319 64.9876 182.563 66.0682Z" fill="#00160A"/>
<path fill-rule="evenodd" clip-rule="evenodd" d="M226.629 53.8026C226.88 51.4086 228.942 49.6141 231.055 48.4624C234.879 46.3793 239.38 45.5664 243.69 46.1808C245.642 46.459 247.13 44.5994 248.525 43.2059C252.144 39.5891 257.675 38.2686 262.723 39.1041C267.771 39.9396 272.345 42.7282 276.029 46.2789C279.713 49.8297 282.589 54.1261 285.251 58.4962C285.809 59.4129 287.104 59.4372 288.176 59.3847C290.489 59.2712 292.923 59.3351 294.944 60.4666C296.965 61.5981 298.385 64.1097 297.567 66.2766C297.184 67.2913 296.371 68.1002 295.442 68.6602C293.589 69.7772 291.343 69.9694 289.185 70.1341C274.799 71.2327 260.412 72.3312 246.026 73.4298C242.09 73.7303 238.091 74.0274 234.226 73.2266C230.36 72.4258 226.575 70.3656 224.596 66.9496C222.617 63.5337 222.948 58.6678 225.984 56.1443C226.626 55.6111 226.542 54.6321 226.629 53.8026M232.079 49.2048C230.357 50.0255 228.638 51.2339 228.071 53.0554C227.868 53.7042 227.827 54.3935 227.639 55.0467C227.152 56.7407 225.751 58.0126 225.012 59.6124C223.47 62.9476 225.227 67.0952 228.166 69.3002C231.105 71.5051 234.911 72.1605 238.577 72.4186C251.768 73.3475 264.885 70.0004 278.105 69.6676C283.297 69.5369 288.655 69.8462 293.513 68.0066C295.352 67.3104 297.372 65.5486 296.583 63.748C296.383 63.2931 296.024 62.9282 295.648 62.6043C293.322 60.6044 289.992 59.8392 287.026 60.6237C285.514 61.0238 284.251 59.4898 283.423 58.1627C279.82 52.3886 275.741 46.6333 269.921 43.1058C264.101 39.5782 256.12 38.8068 250.706 42.9308C248.273 44.784 246.01 47.6634 242.969 47.3408C239.26 46.9475 235.446 47.6003 232.079 49.2048Z" fill="#00160A"/>
<path fill-rule="evenodd" clip-rule="evenodd" d="M30.6116 32.2863C30.1262 33.8016 30.7381 35.4323 31.4015 36.8785C32.1725 38.5593 33.4397 40.4553 35.2852 40.3388C40.9842 39.9788 46.6833 39.6189 52.3823 39.259C53.208 39.2069 54.3439 39.4221 54.3489 40.2495C47.2023 40.8215 40.0558 41.3935 32.9092 41.9655C28.102 42.3503 23.0754 42.8062 19.0164 45.4103C14.9573 48.0144 12.3115 53.5051 14.501 57.802C15.3306 59.4301 16.9588 60.7912 18.7852 60.7368C23.7077 60.5902 28.6301 60.4436 33.5525 60.297C34.6994 60.2628 36.2689 60.6249 36.2176 61.771C28.3949 61.3037 20.526 61.6131 12.7642 62.6932C9.97756 63.081 7.11105 63.604 4.77417 65.1707C2.43729 66.7375 0.758147 69.6142 1.41249 72.3505C1.86412 74.2391 3.34355 75.7561 5.05436 76.6748C6.76518 77.5934 8.70177 77.9915 10.6168 78.3131C30.9257 81.7231 51.7601 77.7347 72.2993 79.2244C74.5973 79.391 77.0853 79.7136 78.7221 81.3353C61.0022 77.9341 42.7282 81.7298 24.705 80.877C20.6933 80.6872 16.6966 80.2667 12.7024 79.8464C9.43326 79.5025 6.00804 79.1024 3.31111 77.2229C2.0135 76.3186 0.925755 75.0692 0.382939 73.5837C-0.961814 69.9034 1.41125 65.6989 4.75516 63.6566C8.09907 61.6142 12.1568 61.2098 16.0589 60.855C12.8697 58.6726 11.9215 54.0759 13.3013 50.4662C14.6811 46.8565 17.963 44.2246 21.56 42.812C25.157 41.3994 29.076 41.0583 32.9362 40.8765C31.7978 39.3854 30.6425 37.8637 30.0062 36.099C29.3698 34.3343 29.3229 32.2557 30.3383 30.6783C31.0443 29.5813 32.1767 28.8388 33.3067 28.1868C44.1157 21.9499 57.1819 21.2257 69.6574 21.535C73.0474 21.6191 76.548 21.7948 79.5967 23.2796C84.3262 25.5828 87.201 30.9083 87.2297 36.1687C87.2583 41.4292 84.7128 46.505 80.9718 50.2034C80.3711 49.3709 81.1221 48.2642 81.7803 47.4763C84.828 43.828 86.5595 38.9638 85.9112 34.2544C85.2629 29.5451 82.0317 25.1401 77.5274 23.6202C75.6452 22.9851 73.6357 22.8509 71.6518 22.7499C58.7515 22.0925 45.2317 22.7677 33.9334 29.0285C32.5426 29.7993 31.0967 30.772 30.6116 32.2863Z" fill="#00160A"/>
<path fill-rule="evenodd" clip-rule="evenodd" d="M117.912 123.017C109.009 114.555 98.7298 105.989 96.3322 93.9425C100.733 105.244 110.504 113.38 119.074 121.961C127.644 130.543 135.762 141.247 135.232 153.363C149.245 150.304 163.766 149.587 178.012 151.251C179.472 144.674 183.723 139.137 187.058 133.284C195.326 118.774 198.122 101.883 200.779 85.3951C201.45 81.2267 196.346 78.7558 192.255 77.7133C188.169 76.672 184.082 75.6308 179.996 74.5895C172.316 72.6326 164.359 70.6619 156.548 72C151.265 72.9048 146.049 75.3118 140.766 74.4105C132.357 72.976 123.436 74.7926 116.257 79.401C112.648 81.7178 109.474 84.866 105.501 86.4159C96.9001 89.7716 91.9602 93.8359 84.5963 103.114C81.8213 88.7599 86.4966 74.0701 91.9626 60.5105C98.0729 45.3527 105.743 30.0162 118.89 20.3073C138.164 6.0726 166.371 7.52481 186.422 20.6443C206.472 33.7639 218.724 56.7168 222.683 80.3488C223.143 83.0974 223.47 86.0723 222.176 88.5406C220.882 91.0089 217.317 92.4372 215.207 90.6163C213.408 89.0639 211.494 87.454 209.161 87.0071C206.828 86.5602 203.997 87.7729 203.544 90.1053C200.231 107.187 196.751 124.701 187.546 139.467C185.149 143.312 182.357 146.983 180.833 151.25C179.666 154.515 179.29 158.001 178.923 161.448C178.157 168.632 177.391 175.816 176.625 182.999C176.302 186.027 175.852 189.325 173.646 191.424C171.54 193.429 168.405 193.789 165.509 194.047C156.102 194.882 146.696 195.718 137.289 196.553C135.607 196.702 133.7 196.779 132.471 195.62C131.524 194.727 131.262 193.345 131.076 192.057C129.754 182.918 129.755 173.588 131.077 164.449C132.974 151.336 127.106 137.921 117.863 128.428C113.046 123.481 107.366 119.437 102.557 114.483C97.7482 109.528 93.7234 103.301 93.4348 96.4027C96.7071 105.469 102.737 113.52 110.518 119.21C122.145 127.713 130.429 140.668 133.27 154.79C135.503 142.712 126.815 131.479 117.912 123.017ZM137.881 72.7442C141.664 73.1137 145.626 74.0541 149.156 72.646C158.664 68.854 169.692 69.0545 179.056 73.1897C183.052 74.9546 187.55 75.0518 191.853 75.8049C196.157 76.558 200.699 78.2751 202.89 82.0544C205.351 86.2984 212.581 85.1254 215.383 89.1523C216.545 90.8223 219.403 90.1859 220.503 88.4745C221.603 86.7632 221.455 84.5604 221.209 82.5408C219.207 66.1028 213.187 49.9857 202.798 37.0903C192.409 24.195 177.506 14.7122 161.155 12.0905C144.805 9.46877 127.162 14.1033 115.06 25.4067C107.736 32.2482 102.655 41.1238 98.1912 50.0977C90.4164 65.7272 84.052 82.7905 85.3078 100.202C90.5259 93.8875 96.1946 87.2624 104.021 84.8446C105.89 84.2673 107.938 83.8964 109.356 82.5495C116.875 75.4097 127.561 71.7363 137.881 72.7442ZM146.244 180.473C146.215 184.671 146.844 188.872 148.1 192.877C148.207 193.219 148.34 193.587 148.644 193.777C148.94 193.961 149.316 193.926 149.662 193.885C153.868 193.382 158.075 192.879 162.281 192.376C162.435 192.357 162.608 192.329 162.7 192.204C162.796 192.074 162.766 191.894 162.733 191.736C161.976 188.178 161.219 184.62 160.461 181.062C160.419 180.861 160.37 180.65 160.229 180.502C160.056 180.32 159.786 180.277 159.536 180.246C155.404 179.723 151.231 179.528 147.068 179.664C146.825 179.672 146.552 179.694 146.392 179.878C146.255 180.036 146.245 180.264 146.244 180.473ZM159.593 165.641C159.455 165.452 159.192 165.414 158.959 165.394C154.718 165.018 150.439 165.08 146.21 165.577C145.965 165.605 145.706 165.642 145.516 165.799C145.206 166.058 145.203 166.525 145.227 166.929C145.368 169.324 145.509 171.719 145.651 174.115C145.685 174.7 145.913 175.472 146.498 175.442C150.645 175.234 154.81 175.386 158.93 175.896C159.497 175.966 159.716 175.184 159.715 174.612C159.71 171.79 159.706 168.967 159.701 166.144C159.7 165.97 159.696 165.782 159.593 165.641ZM133.303 181.915C132.984 182.06 132.656 182.223 132.439 182.499C132.094 182.939 132.108 183.553 132.139 184.112C132.248 186.072 132.357 188.033 132.465 189.993C132.52 190.985 132.578 191.994 132.915 192.929C133.251 193.864 133.911 194.731 134.843 195.077C135.61 195.362 136.46 195.267 137.272 195.167C138.81 194.978 140.348 194.789 141.885 194.6C142.517 194.523 143.171 194.437 143.711 194.102C142.27 189.724 141.312 185.188 140.861 180.602C140.829 180.281 140.397 180.205 140.075 180.226C137.741 180.373 135.434 180.948 133.303 181.915ZM174.678 176.665C175.134 173.851 175.589 171.037 176.044 168.223C176.084 167.977 176.118 167.701 175.973 167.498C175.826 167.291 175.549 167.235 175.299 167.195C171.965 166.659 168.623 166.176 165.274 165.745C165.023 165.713 164.718 165.703 164.573 165.911C164.486 166.035 164.489 166.198 164.495 166.349C164.617 169.283 164.738 172.216 164.859 175.15C164.87 175.418 164.895 175.717 165.096 175.895C165.237 176.021 165.435 176.056 165.621 176.086C168.433 176.54 171.244 176.994 174.055 177.448C174.423 177.507 174.619 177.033 174.678 176.665ZM145.454 160.065C145.394 160.389 145.373 160.804 145.662 160.963C145.8 161.04 145.969 161.027 146.126 161.012C150.534 160.588 154.943 160.165 159.351 159.741C159.578 159.72 159.818 159.693 160.002 159.557C160.251 159.371 160.328 159.037 160.387 158.731C160.746 156.872 161.105 155.013 161.465 153.154C161.516 152.889 161.547 152.567 161.337 152.398C161.19 152.281 160.982 152.291 160.795 152.306C156.569 152.66 152.343 153.014 148.117 153.368C147.772 153.396 147.412 153.43 147.12 153.616C146.626 153.932 146.476 154.573 146.369 155.149C146.064 156.788 145.759 158.426 145.454 160.065ZM165.315 153.95C165.15 155.562 164.985 157.174 164.82 158.786C164.793 159.051 164.769 159.336 164.898 159.569C165.089 159.914 165.53 160.014 165.918 160.08C169.456 160.675 172.993 161.271 176.53 161.867C176.677 161.892 176.833 161.915 176.97 161.857C177.23 161.745 177.288 161.408 177.307 161.125C177.448 159.044 177.48 156.957 177.402 154.874C177.388 154.515 177.37 154.146 177.223 153.818C176.78 152.822 175.461 152.657 174.371 152.635C171.817 152.583 169.264 152.531 166.711 152.479C166.446 152.473 166.168 152.471 165.934 152.594C165.474 152.835 165.368 153.434 165.315 153.95ZM202.972 85.387C201.146 87.7666 200.646 90.8728 200.182 93.8358C197.837 108.823 194.796 124.158 186.55 136.89C183.724 141.252 180.203 145.559 179.804 150.74C181.36 145.346 185.668 141.264 188.625 136.492C190.795 132.991 192.243 129.097 193.57 125.197C196.771 115.784 199.348 106.159 201.279 96.4053C201.973 92.8988 202.658 89.2102 204.915 86.439C204.149 86.4313 203.397 86.0245 202.972 85.387ZM139.688 176.001C139.933 175.937 140.196 175.862 140.355 175.665C140.526 175.454 140.533 175.159 140.533 174.887C140.53 172.301 140.527 169.714 140.524 167.128C140.523 166.942 140.518 166.739 140.4 166.595C140.23 166.388 139.917 166.396 139.651 166.425C137.599 166.649 135.566 167.053 133.584 167.631C133.351 167.698 133.108 167.776 132.943 167.953C132.753 168.156 132.704 168.45 132.666 168.726C132.281 171.518 132.127 174.343 132.207 177.161C132.213 177.391 132.247 177.663 132.451 177.769C132.592 177.842 132.763 177.803 132.917 177.763C135.174 177.176 137.431 176.588 139.688 176.001ZM172.744 189.935C174.239 188.138 174.252 185.574 174.191 183.237C174.179 182.783 173.644 182.557 173.202 182.448C170.84 181.866 168.441 181.436 166.024 181.161C165.812 181.137 165.58 181.119 165.404 181.238C165.135 181.421 165.137 181.811 165.172 182.134C165.5 185.151 166.126 188.135 167.039 191.029C167.145 191.365 167.285 191.734 167.603 191.885C167.774 191.967 167.972 191.97 168.161 191.964C169.883 191.915 171.643 191.259 172.744 189.935ZM136.629 155.143C136.042 155.312 135.443 155.51 134.981 155.91C134.542 156.289 134.263 156.819 134.046 157.357C133.355 159.065 133.199 160.934 133.049 162.77C133.038 162.91 133.031 163.065 133.116 163.177C133.245 163.344 133.499 163.322 133.706 163.283C135.495 162.947 137.284 162.612 139.073 162.277C139.583 162.181 140.147 162.051 140.436 161.621C140.632 161.329 140.657 160.957 140.675 160.605C140.784 158.492 140.894 156.378 141.003 154.264C139.525 154.437 138.06 154.732 136.629 155.143ZM146.672 164.194C150.579 163.77 154.526 163.718 158.443 164.038C158.887 164.075 159.375 164.104 159.735 163.841C160.299 163.429 160.223 162.581 160.088 161.896C160.053 161.717 160.012 161.528 159.887 161.395C159.687 161.184 159.355 161.193 159.065 161.217C155.155 161.545 151.245 161.873 147.335 162.201C146.796 162.246 146.22 162.305 145.801 162.648C145.383 162.991 145.247 163.727 145.678 164.053C145.952 164.261 146.331 164.23 146.672 164.194ZM176.44 163.883C175.97 163.403 175.263 163.262 174.602 163.144C171.676 162.624 168.75 162.104 165.824 161.585C165.442 161.517 164.973 161.481 164.743 161.794C164.643 161.93 164.615 162.105 164.59 162.272C164.466 163.104 164.568 164.263 165.403 164.373C168.729 164.812 172.055 165.25 175.381 165.688C175.711 165.732 176.065 165.771 176.359 165.616C176.954 165.304 176.91 164.363 176.44 163.883ZM142.732 180.391C142.533 180.935 142.633 181.537 142.736 182.107C143.366 185.593 144.051 189.07 144.835 192.525C144.941 192.99 145.058 193.475 145.367 193.838C145.677 194.202 146.241 194.396 146.644 194.141C147.25 193.757 147.026 192.839 146.766 192.171C145.42 188.719 145.038 184.973 144.852 181.273C144.819 180.623 144.694 179.831 144.084 179.606C143.54 179.406 142.93 179.846 142.732 180.391ZM173.903 181.034C174.612 180.764 174.122 179.555 174.628 178.991C171.687 178.257 168.688 177.754 165.668 177.487C164.956 177.425 164.626 178.498 165.05 179.074C165.474 179.649 166.249 179.813 166.954 179.935C167.589 180.045 168.224 180.155 168.859 180.264C170.35 180.522 171.841 180.78 173.332 181.038C173.522 181.071 173.723 181.103 173.903 181.034ZM147.365 178.39C151.016 178.176 154.687 178.313 158.311 178.799C159.035 178.896 160.039 178.811 160.137 178.087C160.237 177.338 159.227 177.009 158.472 176.971C154.805 176.789 151.129 176.763 147.459 176.895C146.809 176.918 145.918 177.247 146.089 177.875C146.221 178.356 146.868 178.419 147.365 178.39ZM161.381 166.083C161.21 166.441 161.205 166.852 161.203 167.249C161.195 169.484 161.187 171.72 161.179 173.956C161.178 174.452 161.18 174.966 161.388 175.416C161.597 175.866 162.074 176.232 162.562 176.146C163.372 176.003 163.522 174.918 163.477 174.096C163.347 171.718 163.218 169.339 163.088 166.96C163.056 166.375 162.903 165.64 162.329 165.521C161.941 165.44 161.552 165.726 161.381 166.083ZM163.875 181.553C163.713 181.085 163.338 180.654 162.848 180.586C162.357 180.518 161.816 180.959 161.91 181.445C162.485 184.406 163.06 187.366 163.635 190.327C163.769 191.021 163.955 191.792 164.553 192.167C165.151 192.543 166.191 192.04 165.967 191.37C165.059 188.651 164.145 185.886 164.048 183.022C164.031 182.527 164.038 182.021 163.875 181.553ZM143.867 175.237C144.133 174.76 144.112 174.181 144.084 173.635C143.985 171.731 143.885 169.826 143.786 167.922C143.755 167.33 143.704 166.687 143.304 166.25C142.903 165.813 142.026 165.81 141.833 166.37C141.782 166.519 141.787 166.68 141.793 166.838C141.884 169.386 141.975 171.934 142.065 174.482C142.081 174.923 142.129 175.429 142.487 175.688C142.93 176.008 143.6 175.714 143.867 175.237ZM142.497 154.396C141.99 155.095 141.968 156.022 141.965 156.885C141.96 158.075 141.956 159.264 141.951 160.454C141.949 161.091 142.182 161.962 142.817 161.9C143.314 161.852 143.512 161.245 143.595 160.753C143.966 158.545 144.337 156.336 144.708 154.128C144.187 153.439 143.003 153.697 142.497 154.396ZM139.015 179.206C139.537 179.16 140.119 179.115 140.472 178.727C140.825 178.339 140.605 177.511 140.085 177.582C138.481 177.802 136.877 178.022 135.273 178.242C134.441 178.356 133.558 178.492 132.924 179.043C132.291 179.594 132.081 180.713 132.73 181.246C134.636 180.107 136.802 179.404 139.015 179.206ZM133.167 164.844C132.688 165.301 132.602 166.219 133.169 166.561C135.005 165.948 136.907 165.531 138.832 165.321C139.306 165.269 139.809 165.22 140.189 164.931C140.569 164.643 140.736 164.02 140.393 163.69C140.122 163.429 139.69 163.467 139.318 163.523C137.879 163.738 136.44 163.954 135.001 164.17C134.346 164.268 133.647 164.387 133.167 164.844ZM163.169 152.553C163 152.734 162.948 152.992 162.904 153.236C162.566 155.095 162.228 156.954 161.89 158.813C161.829 159.149 161.791 159.555 162.053 159.774C162.321 159.997 162.758 159.86 162.969 159.582C163.18 159.305 163.226 158.939 163.265 158.593C163.475 156.729 163.684 154.865 163.894 153.002C163.913 152.834 163.926 152.647 163.822 152.515C163.669 152.321 163.338 152.373 163.169 152.553ZM162.537 177.175C161.834 177.089 161.152 177.988 161.59 178.544C161.897 178.933 162.257 179.331 162.741 179.437C163.225 179.543 163.827 179.19 163.781 178.696C163.714 177.991 163.24 177.261 162.537 177.175ZM162.816 162.904C163.053 162.335 163.109 161.423 162.497 161.352C162.257 161.324 162.03 161.471 161.866 161.648C161.103 162.467 161.497 164.033 162.558 164.393C162.898 164.001 163.018 163.429 162.864 162.933C162.695 162.39 162.597 163.429 162.816 162.904ZM143.828 163.947C143.685 163.423 143.249 162.929 142.706 162.924C142.001 162.917 141.54 163.917 142.003 164.449C142.466 164.98 143.52 164.66 143.609 163.961C143.689 163.341 143.992 164.55 143.828 163.947ZM144.258 178.37C144.425 178.227 144.545 178.03 144.595 177.816C144.131 177.298 143.318 177.13 142.687 177.422C142.547 177.487 142.411 177.576 142.332 177.708C142.104 178.086 142.482 178.594 142.917 178.666C143.352 178.738 143.778 178.526 144.168 178.32L144.258 178.37Z" fill="#00160A"/>
</svg>
