<svg width="16" height="17" viewBox="0 0 16 17" fill="none" xmlns="http://www.w3.org/2000/svg">
<path d="M9.33333 2.66667C9.33333 1.74619 8.58714 1 7.66667 1C6.74619 1 6 1.74619 6 2.66667C6 3.58714 6.74619 4.33333 7.66667 4.33333C8.58714 4.33333 9.33333 3.58714 9.33333 2.66667ZM9.33333 2.66667H14.3333M11 8.5C11 9.42047 11.7462 10.1667 12.6667 10.1667C13.5871 10.1667 14.3333 9.42047 14.3333 8.5C14.3333 7.57953 13.5871 6.83333 12.6667 6.83333C11.7462 6.83333 11 7.57953 11 8.5ZM11 8.5H8.5M14.3333 14.3333H6.83333M1 8.5H6M1 2.66667L3.5 2.66667M2.66667 12.6667C3.58714 12.6667 4.33333 13.4129 4.33333 14.3333C4.33333 15.2538 3.58714 16 2.66667 16C1.74619 16 1 15.2538 1 14.3333C1 13.4129 1.74619 12.6667 2.66667 12.6667Z" stroke="#291334" stroke-width="1.5" stroke-linecap="round"/>
</svg>
