<svg width="26" height="16" viewBox="0 0 26 16" fill="none" xmlns="http://www.w3.org/2000/svg">
<path opacity="0.15" fill-rule="evenodd" clip-rule="evenodd" d="M25 1H8.05882L1 8.05882L8.05882 15.1176H25V1ZM10.1765 10.1765C11.346 10.1765 12.2941 9.22837 12.2941 8.05882C12.2941 6.88928 11.346 5.94118 10.1765 5.94118C9.00693 5.94118 8.05882 6.88928 8.05882 8.05882C8.05882 9.22837 9.00693 10.1765 10.1765 10.1765Z" fill="#42B2B8"/>
<path d="M8.05882 15.1176H25V1H22.1765M16.5294 1H8.05882L1 8.05882L4.52941 11.5882M12.2941 8.05882C12.2941 9.22837 11.346 10.1765 10.1765 10.1765C9.00693 10.1765 8.05882 9.22837 8.05882 8.05882C8.05882 6.88928 9.00693 5.94118 10.1765 5.94118C11.346 5.94118 12.2941 6.88928 12.2941 8.05882Z" stroke="#291334" stroke-width="1.5" stroke-linecap="round" stroke-linejoin="round"/>
</svg>
