<svg width="24" height="24" viewBox="0 0 24 24" fill="none" xmlns="http://www.w3.org/2000/svg">
<path d="M11.25 18.1111C11.25 18.5253 11.5858 18.8611 12 18.8611C12.4142 18.8611 12.75 18.5253 12.75 18.1111H11.25ZM12.75 9.55556C12.75 9.14134 12.4142 8.80556 12 8.80556C11.5858 8.80556 11.25 9.14134 11.25 9.55556H12.75ZM11.25 5.90107C11.25 6.31528 11.5858 6.65107 12 6.65107C12.4142 6.65107 12.75 6.31528 12.75 5.90107H11.25ZM12.75 5.88885C12.75 5.47464 12.4142 5.13885 12 5.13885C11.5858 5.13885 11.25 5.47464 11.25 5.88885H12.75ZM2.00398 9.72152C2.09564 9.31758 1.84249 8.91581 1.43854 8.82415C1.0346 8.73249 0.632829 8.98565 0.541169 9.38959L2.00398 9.72152ZM4.16648 3.24209C3.85784 3.51834 3.83157 3.99248 4.10782 4.30113C4.38406 4.60977 4.85821 4.63604 5.16685 4.35979L4.16648 3.24209ZM12.75 18.1111L12.75 9.55556H11.25L11.25 18.1111H12.75ZM12.75 5.90107V5.88885H11.25V5.90107H12.75ZM22.25 12C22.25 17.6609 17.6609 22.25 12 22.25V23.75C18.4893 23.75 23.75 18.4893 23.75 12H22.25ZM12 22.25C6.33908 22.25 1.75 17.6609 1.75 12H0.25C0.25 18.4893 5.51065 23.75 12 23.75V22.25ZM12 1.75C17.6609 1.75 22.25 6.33908 22.25 12H23.75C23.75 5.51065 18.4893 0.25 12 0.25V1.75ZM1.75 12C1.75 11.2161 1.83787 10.4536 2.00398 9.72152L0.541169 9.38959C0.350507 10.2298 0.25 11.1036 0.25 12H1.75ZM5.16685 4.35979C6.98077 2.73629 9.37431 1.75 12 1.75V0.25C8.99109 0.25 6.24478 1.38196 4.16648 3.24209L5.16685 4.35979Z" fill="white"/>
</svg>
