<svg width="300" height="219" viewBox="0 0 300 219" fill="none" xmlns="http://www.w3.org/2000/svg">
<path fill-rule="evenodd" clip-rule="evenodd" d="M299.527 82.6682C295.813 110.357 291.621 124.983 267.154 153.98C242.687 182.977 130.723 202.052 89.3303 202.052C47.9375 202.052 -3.07445 170.134 0.145063 133.151C3.36458 96.1689 20.1613 65.9421 60.3648 62.2211C101.451 58.4184 137.541 76.0279 177.878 66.5836C212.751 58.4184 223.421 27.2957 247.373 17.4766C295.813 -2.38172 302.053 63.8314 299.527 82.6682Z" fill="#65C3C8"/>
<path d="M274.606 96.1917C273.237 98.5113 255.913 110.249 245.404 111.986C243.37 112.322 241.15 112.438 239.383 111.376C238.34 110.748 237.562 109.77 236.823 108.802C235.135 106.59 233.524 104.317 231.994 101.992C231.19 100.769 230.393 99.4934 230.12 98.0563C229.397 94.2507 232.465 90.8326 235.496 88.4213C242.465 82.8785 250.625 78.8406 259.259 76.6622C260.787 76.2766 262.408 75.95 263.922 76.3881C266.379 77.099 267.849 79.5856 268.786 81.9658C269.724 84.346 270.455 86.9494 272.329 88.6907C272.757 89.0883 275.974 93.872 274.606 96.1917Z" fill="white"/>
<path fill-rule="evenodd" clip-rule="evenodd" d="M181.515 197.314C164.701 200.19 172.715 187.97 175.034 172.674C178.844 147.541 183.542 109.347 183.542 109.347C183.542 109.347 186.606 167.545 186.606 181.716C186.606 195.887 183.542 196.968 181.515 197.314Z" fill="white"/>
<path d="M163.55 183.468C163.979 187.515 164.432 191.648 166.152 195.336C165.213 186.984 164.275 178.631 163.336 170.278C163.221 169.247 163.255 167.934 164.204 167.513C165.007 176.945 166.204 186.343 167.791 195.675C167.979 196.783 166.315 197.416 165.38 196.792C164.446 196.168 164.147 194.953 163.934 193.849C162.386 185.808 161.534 177.633 161.393 169.445C159.421 169.833 158.038 171.745 157.639 173.714C157.24 175.684 157.625 177.718 158.009 179.69C159.246 186.04 160.482 192.389 161.719 198.738C162.297 201.708 162.875 204.776 162.237 207.734C159.783 196.529 157.81 185.219 156.325 173.845C137.495 185.36 113.232 187.501 92.6755 179.462C88.1859 177.707 83.7273 175.38 80.762 171.579C78.4261 168.585 77.1796 164.868 76.5266 161.127C74.2074 147.841 78.9599 134.289 85.4105 122.445C87.8581 117.951 90.6456 113.271 90.4481 108.157C90.3801 106.397 90.0004 104.447 91.0285 103.016C91.1741 103.281 84.2982 54.097 87.0565 43.2176C93.6969 17.0263 115.268 13.4792 129.08 13.8022C138.347 14.019 197.087 25.6926 205.574 41.5675C216.728 62.4315 214.36 79.9729 212.379 91.5393C211.789 94.9835 183.55 109.093 183.543 109.164C181.928 124.173 171.094 156.875 162.008 168.929C162.522 173.775 163.036 178.621 163.55 183.468Z" fill="white"/>
<path fill-rule="evenodd" clip-rule="evenodd" d="M27.9624 122.4C22.6666 120.286 16.3556 120.913 11.581 124.028C11.1188 124.329 10.4542 123.993 10.2254 123.492C9.99657 122.99 10.0822 122.406 10.1992 121.868C11.7241 114.85 17.7988 109.481 24.5544 107.013C31.3101 104.546 38.6996 104.539 45.8809 104.961C46.5934 105.003 47.3382 105.058 47.946 105.432C48.5538 105.805 48.9628 106.604 48.6598 107.249C45.8349 113.265 43.7069 119.606 42.3318 126.106C42.1088 127.16 41.0166 127.86 39.9409 127.947C38.8653 128.035 37.8113 127.638 36.8351 127.179C33.7929 125.747 31.0854 123.647 27.9624 122.4Z" fill="white"/>
<path fill-rule="evenodd" clip-rule="evenodd" d="M190.741 16.4655C191.004 12.44 190.701 8.37786 189.843 4.4361L189.824 4.352L189.824 4.35188C189.679 3.68544 189.529 2.99995 189.663 2.33299C189.96 0.857771 191.598 -0.0301857 193.103 0.00078442C194.607 0.0317545 196.001 0.749924 197.332 1.45127C203.717 4.8147 210.217 8.26303 215.244 13.4406C215.402 17.6321 214.414 21.7684 213.439 25.8518L213.439 25.8519L213.347 26.2358C209.276 43.303 205.942 60.546 203.358 77.9007C203.111 79.5641 202.641 81.5263 201.063 82.1088C199.932 82.5267 198.616 81.9927 197.812 81.0932C197.008 80.1938 196.623 78.9995 196.355 77.8233C195.694 74.9212 195.614 71.8877 196.122 68.9549C196.433 67.1614 196.959 65.4169 197.484 63.6718C197.956 62.1052 198.428 60.5382 198.745 58.9351C199.062 57.332 199.222 55.7026 199.377 54.0758C200.201 45.4256 200.9 36.7634 201.473 28.093C201.554 26.8677 201.628 25.604 201.227 24.4435C200.513 22.3795 198.434 21.075 196.333 20.4768C195.971 20.3737 195.603 20.286 195.236 20.1984C194.38 19.9943 193.525 19.7904 192.744 19.3927C191.628 18.824 190.66 17.7154 190.741 16.4655ZM194.643 16.1348C197.612 16.7613 200.513 17.7074 203.281 18.9514C203.838 19.2019 204.424 19.4951 204.725 20.0267C204.971 20.461 204.985 20.9839 204.993 21.4828C205.08 27.3431 205.098 33.2188 204.478 39.0467C204.106 42.5362 203.507 45.9952 202.907 49.4539L202.907 49.455L202.907 49.4573L202.906 49.4597L202.906 49.462L202.906 49.4644L202.905 49.4667L202.905 49.4691L202.904 49.4711C202.716 50.5605 202.527 51.6499 202.345 52.7402C201.442 58.1625 200.716 63.6141 200.166 69.0835C199.768 73.052 199.476 77.1537 200.711 80.9463C201.344 80.8306 201.588 80.0679 201.708 79.4353L213.116 19.3054C213.392 17.8485 213.668 16.3422 213.343 14.8956C212.773 12.3628 210.525 10.6017 208.357 9.17277C204.185 6.42194 199.743 4.07909 195.117 2.18848C194.732 6.82585 194.574 11.482 194.643 16.1348ZM200.509 55.6252C202.598 44.9018 203.541 33.9558 203.319 23.0332C203.302 22.2082 203.257 21.3217 202.753 20.6688C202.383 20.1904 201.818 19.9102 201.266 19.663C199.194 18.7348 197.015 18.044 194.787 17.6087C194.142 17.4827 193.194 17.6192 193.222 18.2759L201.232 21.5859C201.702 21.7801 202.202 21.9997 202.468 22.4332C202.728 22.8584 202.703 23.3926 202.669 23.89L200.509 55.6252ZM193.055 1.12783C192.395 0.690054 191.441 1.14133 191.073 1.84305C190.705 2.54476 190.761 3.38482 190.844 4.1727C190.967 5.32869 191.128 6.48527 191.289 7.64203C191.736 10.8513 192.183 14.0619 191.803 17.2645C192.409 17.4724 193.085 17.0455 193.379 16.4764C193.672 15.9073 193.68 15.2389 193.681 14.5984L193.701 3.04928C193.703 2.34343 193.643 1.51785 193.055 1.12783ZM198.986 80.6857C198.623 77.8316 198.527 74.9433 198.702 72.0715C198.795 70.5358 198.966 69.0056 199.136 67.4757C199.361 65.4524 199.587 63.4296 199.634 61.3955C197.97 66.3472 197.342 71.6443 197.801 76.8478C197.921 78.2013 198.142 79.6207 198.986 80.6857ZM199.902 58.4703C200.169 58.3503 200.282 57.9743 200.124 57.7271C199.852 57.8611 199.737 58.2406 199.888 58.5033L199.902 58.4703ZM197.414 33.6702C184.174 25.505 169.203 20.6129 154.232 16.3915C149.446 15.0421 144.62 13.749 139.678 13.1954C125.036 11.5551 110.192 16.607 98.0175 24.9049C93.1347 28.2328 88.4237 32.3263 86.314 37.8459C84.7488 41.9413 84.7596 46.4499 84.9105 50.8315C85.4312 65.9435 87.3702 80.9664 89.3071 95.9628C90.8213 95.6896 90.9709 93.5953 90.7516 92.0724C88.7376 78.0872 87.6084 63.9747 87.373 49.8472C87.307 45.8857 87.3277 41.8243 88.6987 38.107C91.1804 31.3778 97.5811 26.977 103.862 23.5136C111.772 19.1514 120.371 15.4845 129.403 15.2898C140.343 15.054 150.713 19.9068 160.269 25.2364C165.597 28.2077 171 31.5258 174.389 36.598C177.467 41.2036 178.585 46.8166 179.393 52.2968C181.956 69.6899 182.049 87.3406 182.138 104.921C182.142 105.632 182.098 106.448 181.541 106.89C181.16 107.192 180.64 107.23 180.155 107.255L162.306 108.184C170.623 110.575 179.849 109.632 187.51 105.607L207.342 95.1892C209.193 94.2169 211.103 93.1955 212.379 91.5391C214.135 89.2595 214.386 86.1927 214.469 83.3165C214.775 72.6937 213.713 62.0323 211.317 51.6788C212.148 62.8789 212.263 74.1319 211.662 85.3466C211.559 87.2618 211.406 89.2711 210.364 90.8816C209.252 92.6019 207.318 93.5761 205.475 94.4716L184.073 104.874C184.959 88.2446 184.272 71.5319 182.024 55.0315C181.268 49.4818 180.304 43.8544 177.764 38.8622C171.762 27.0648 158.477 21.229 146.199 16.2839C164.556 21.6543 183.122 27.1135 199.636 36.7612C199.851 35.4283 198.563 34.3789 197.414 33.6702ZM265.813 84.4315C266.764 86.884 268.102 89.4982 270.561 90.4329C271.143 90.4779 271.491 89.7055 271.3 89.1535C271.14 88.6924 270.765 88.3565 270.396 88.0267C270.323 87.9616 270.251 87.8968 270.18 87.8313C268.616 86.3776 267.848 84.3229 267.091 82.2989L267.091 82.2988C266.941 81.8985 266.792 81.4994 266.637 81.1064C265.7 78.7262 264.23 76.2396 261.773 75.5287C260.259 75.0907 258.638 75.4172 257.11 75.8028C248.476 77.9812 240.316 82.0191 233.347 87.5619C230.316 89.9732 227.248 93.3914 227.971 97.1969C228.244 98.634 229.041 99.91 229.845 101.132C231.375 103.458 232.986 105.73 234.675 107.943C235.413 108.911 236.191 109.889 237.234 110.516C239.001 111.578 241.221 111.463 243.255 111.127C253.764 109.39 262.758 102.859 271.317 96.5179C271.763 96.1879 272.226 95.8363 272.457 95.3323C272.688 94.8282 272.589 94.1271 272.1 93.8669C271.539 93.5686 270.876 93.9805 270.376 94.3723C262.411 100.608 253.904 106.701 244.029 108.892C242.157 109.307 240.093 109.551 238.409 108.635C237.149 107.949 236.298 106.716 235.494 105.527L230.512 98.1563C230.093 97.5354 229.658 96.8682 229.642 96.119C229.627 95.3698 230.232 94.5595 230.975 94.6561C237.958 95.5643 244.975 96.2171 252.005 96.6128C252.565 96.6443 253.15 96.6696 253.66 96.4367C254.317 96.1367 254.718 95.4723 255.068 94.8408C258.045 89.475 260.318 83.7199 261.813 77.7686C263.799 79.1931 264.726 81.606 265.611 83.9083C265.678 84.0835 265.745 84.2581 265.813 84.4315ZM259.666 77.2976C258.336 82.2748 256.368 87.081 253.826 91.5618C253.399 92.3128 252.926 93.0865 252.181 93.5228C251.233 94.0781 250.053 93.9734 248.961 93.8516L231.566 91.9106C234.452 88.097 238.74 85.622 243.023 83.4954C247.078 81.4823 251.24 79.6866 255.487 78.1186C256.832 77.6221 258.242 77.1412 259.666 77.2976ZM163.55 183.467C163.979 187.515 164.431 191.647 166.151 195.336L163.336 170.278C163.22 169.247 163.255 167.934 164.203 167.513C165.006 176.945 166.203 186.343 167.791 195.675C167.979 196.783 166.315 197.416 165.38 196.792C164.446 196.168 164.147 194.953 163.934 193.849C162.385 185.808 161.534 177.632 161.392 169.444C159.421 169.833 158.038 171.744 157.639 173.714C157.24 175.683 157.625 177.717 158.009 179.69L161.718 198.738C162.297 201.707 162.875 204.776 162.237 207.733C159.783 196.529 157.81 185.219 156.325 173.845C137.495 185.36 113.231 187.501 92.6752 179.462C88.1857 177.706 83.7271 175.38 80.7617 171.579C78.4258 168.585 77.1794 164.868 76.5264 161.127C74.2072 147.841 78.9597 134.289 85.4103 122.445C85.5783 122.137 85.748 121.827 85.9181 121.517C88.2266 117.306 90.6318 112.919 90.4478 108.157C90.4357 107.842 90.4136 107.521 90.3913 107.199C90.2891 105.716 90.184 104.191 91.0282 103.016C92.1607 105.076 92.592 107.514 92.2352 109.838C111.73 108.999 131.253 108.83 150.759 109.331C150.987 110.228 149.687 110.645 148.762 110.631C130.559 110.359 112.347 110.669 94.163 111.561C93.5872 111.589 92.9827 111.626 92.4945 111.933C91.9809 112.255 91.6817 112.821 91.4057 113.361C86.245 123.459 81.0672 133.704 78.5727 144.766C77.2899 150.455 76.7986 156.681 79.4278 161.886C80.4252 163.861 81.8359 165.605 83.4109 167.159C91.8666 175.499 104.528 178.056 116.404 177.856C123.983 177.729 131.545 176.64 138.852 174.622C146.598 172.484 154.324 169.113 159.611 163.061C162.716 159.507 164.827 155.204 166.675 150.861C170.204 142.57 172.911 133.93 174.743 125.107C175.89 125.348 175.906 126.971 175.641 128.113C172.366 142.242 168.559 157.303 157.771 166.998C148.028 175.754 134.299 178.47 121.22 179.203C113.665 179.626 105.99 179.493 98.6727 177.567C91.3549 175.642 84.3678 171.789 79.7221 165.816C81.077 170.982 85.6667 174.669 90.4451 177.055C102.991 183.32 117.807 182.989 131.66 180.811C140.888 179.36 150.36 176.98 157.542 171.006C163.68 165.9 167.592 158.607 170.537 151.185C173.797 142.969 176.058 134.358 177.255 125.601C178 125.13 178.553 126.447 178.458 127.324C176.844 142.332 171.094 156.874 162.008 168.928L163.55 183.467ZM154.825 209.132C154.024 207.78 153.509 206.261 153.322 204.701L152.172 208.598L149.269 197.529C149.044 196.67 148.496 195.595 147.628 195.78C146.784 195.959 146.689 197.118 146.815 197.971C147.447 202.266 148.653 206.475 150.391 210.453L147.304 207.745C147.154 209.034 147.493 210.375 148.239 211.437C146.631 210.253 144.474 209.85 142.547 210.372C143.924 212.286 145.794 213.841 147.926 214.848L145.318 211.207C147.426 212.424 149.635 213.467 151.914 214.321L149.704 211.55L152.435 212.307C150.345 207.554 148.217 202.619 148.267 197.427C149.058 201.651 150.216 205.806 151.723 209.83C151.979 210.512 152.262 211.217 152.807 211.701C153.351 212.185 154.235 212.367 154.805 211.914C155.248 211.562 155.378 210.954 155.478 210.397L156.708 203.577L158.059 212.035C159.083 209.448 162.414 208.8 165.196 208.782C168.871 208.759 172.572 209.164 176.264 209.568L176.265 209.568C182.92 210.296 189.544 211.02 195.921 209.23C195.734 210.216 195.406 211.175 194.952 212.069C200.097 211.32 205.304 210.992 210.503 211.088C212.698 211.128 214.9 211.244 217.103 211.359H217.103H217.103H217.103H217.103H217.104H217.104H217.104H217.104H217.105C222.927 211.665 228.749 211.97 234.453 210.889L196.593 210.557C197.304 210.515 197.849 209.689 197.607 209.019C197.365 208.349 196.417 208.062 195.844 208.486C195.472 207.302 193.798 206.775 192.815 207.533C193.385 205.776 194.512 204.205 195.993 203.101C194.321 203.011 192.624 203.523 191.28 204.522L195.352 185.675C195.008 185.379 194.434 185.578 194.179 185.954C193.927 186.327 193.899 186.801 193.873 187.25L193.872 187.264C193.491 193.699 191.221 200.012 187.418 205.217L185.924 200.895L183.783 206.057C182.813 205.306 181.437 205.116 180.3 205.577C180.59 206.681 181.473 207.61 182.561 207.955L183.067 206.598L186.412 208.838C185.133 207.498 184.856 205.307 185.761 203.692L187.785 207.086L191.707 199.328C191.73 202.443 190.394 205.387 189.086 208.214C190.508 207.1 191.731 205.732 192.678 204.194C193.593 205.814 192.594 207.986 191.003 208.95C189.412 209.914 187.445 209.966 185.587 209.888C182.751 209.768 179.894 209.412 177.04 209.056L177.04 209.056C170.631 208.257 164.24 207.46 158.152 209.347L157.274 201.253C155.933 203.676 155.094 206.376 154.825 209.132ZM193.021 209.348C192.884 209.184 192.885 208.92 193.023 208.756L193.134 208.798C193.32 208.353 194.102 208.39 194.245 208.85C193.885 209.11 193.461 209.283 193.021 209.348ZM213.705 123.348C209.296 121.119 204.049 121.721 199.155 122.392C197.772 122.581 196.361 122.78 195.109 123.396C193.856 124.012 192.765 125.127 192.549 126.506C180.595 125.014 169.14 119.752 160.219 111.656C158.283 109.899 156.307 107.397 157.178 104.932C157.452 104.157 157.984 103.503 158.538 102.896C162.697 98.3362 168.432 95.5937 174.014 92.9613C167.687 93.5162 161.617 96.5934 157.429 101.369C156.469 102.463 155.585 103.686 155.254 105.103C154.438 108.603 157.157 111.887 159.877 114.235C168.559 121.728 179.478 126.593 190.855 128.038C191.537 128.125 191.572 129.084 191.51 129.769C191.232 132.815 192.893 135.788 195.194 137.803C197.496 139.818 200.379 141.028 203.239 142.111C212.098 145.467 221.291 147.938 230.639 149.477C231.256 149.578 232.104 149.53 232.234 148.918C230.077 147.491 227.481 146.947 224.943 146.416C224.805 146.387 224.669 146.358 224.532 146.33C218.096 144.975 211.746 143.21 205.534 141.05C202.985 140.163 200.43 139.196 198.208 137.665C195.986 136.134 194.099 133.972 193.388 131.369C193.037 130.084 193.513 128.165 194.836 128.327C200.221 128.985 205.755 129.636 211.013 128.3C212.203 127.997 213.443 127.542 214.169 126.551C214.894 125.56 214.801 123.902 213.705 123.348ZM200.121 126.907C198.273 126.589 196.384 126.503 194.515 126.654C195.423 124.928 197.642 124.474 199.575 124.211C203.775 123.639 208.149 123.081 212.173 124.413C212.439 124.501 212.722 124.613 212.866 124.853C213.056 125.169 212.917 125.6 212.648 125.852C212.379 126.104 212.013 126.218 211.658 126.318C207.919 127.363 203.947 127.565 200.121 126.907ZM138.95 213.97C142.043 213.884 145.156 214.568 147.928 215.943C147.187 217.008 145.698 217.157 144.401 217.207L110.513 218.493C110.202 218.454 110.144 217.975 110.364 217.752C110.584 217.529 110.928 217.501 111.24 217.486L144.322 215.872C142.41 215.697 140.546 215.036 138.95 213.97ZM73.7327 101.894C73.2497 104.204 75.2036 106.668 77.5567 106.843C73.7089 112.642 66.7777 115.503 60.1181 117.524C55.9616 118.784 51.351 119.82 47.3887 118.041C46.8969 118.341 47.4213 119.081 47.9404 119.331C51.7965 121.189 56.3681 120.154 60.4698 118.93C66.4848 117.135 72.6849 114.815 76.7779 110.055C76.9455 109.86 77.1125 109.66 77.2807 109.458C78.3341 108.192 79.4326 106.871 81.0165 106.578C86.1158 105.635 90.3628 102.441 94.5594 99.2856C95.5112 98.5697 96.4605 97.8559 97.4166 97.1707C103.227 93.0061 109.672 89.728 116.459 87.4841C117.058 87.286 117.788 86.9181 117.734 86.289C109.319 87.0615 101.963 92.0797 95.1808 97.1206L94.9546 97.2888C90.3451 100.716 85.5283 104.297 79.8565 105.146C81.7092 103.685 81.3181 100.308 79.2278 99.2135C77.1376 98.1189 74.2156 99.5849 73.7327 101.894ZM75.3029 103.306C74.9247 102.185 75.5085 100.853 76.546 100.285C76.8405 100.124 77.17 100.017 77.5057 100.016C78.6136 100.015 79.4227 101.2 79.43 102.308C79.4373 103.416 78.8757 104.438 78.3298 105.402C77.053 105.207 75.7161 104.53 75.3029 103.306ZM201.225 78.6178C200.912 78.2686 201.008 77.7982 201.108 77.311C201.179 76.9666 201.251 76.6139 201.182 76.2895C201.121 76.0083 200.957 75.7687 200.793 75.5285C200.647 75.3159 200.501 75.1027 200.426 74.8595C200.443 74.538 200.873 74.373 201.166 74.5064C201.459 74.6397 201.623 74.9543 201.725 75.2596C202.099 76.3735 201.907 77.661 201.225 78.6178ZM172.857 54.1746C173.641 52.3156 175.196 50.6671 177.178 50.2897C177.819 50.1676 177.799 49.1102 177.237 48.7778C176.675 48.4453 175.954 48.6418 175.364 48.9225C172.618 50.2295 170.884 53.1066 170.205 56.071C169.526 59.0354 169.75 62.1227 169.979 65.1553L171.193 81.2749C171.234 81.823 171.285 82.3985 171.59 82.8556C172.211 83.7867 173.544 83.8159 174.662 83.7449L180.317 83.3857C179.06 82.4008 177.373 81.9862 175.803 82.2762C174.886 82.4455 173.965 81.8407 173.479 81.0448C172.993 80.2489 172.851 79.2964 172.73 78.3718C171.942 72.3221 171.653 66.2075 171.867 60.1105C171.937 58.0941 172.073 56.0337 172.857 54.1746ZM187.296 197.258C186.975 197.491 186.653 196.96 186.606 196.566C184.421 178.196 184.092 159.662 183.764 141.165L183.544 128.696C183.538 128.34 183.543 127.951 183.771 127.679C184.164 127.211 184.99 127.425 185.334 127.931C185.677 128.438 185.677 129.093 185.666 129.704C185.33 147.906 185.551 166.143 187.293 184.264C187.314 184.485 187.336 184.706 187.357 184.926C187.757 189.043 188.162 193.221 187.296 197.258ZM169.128 81.4636C168.649 81.2007 168.058 81.3496 167.535 81.5045C143.307 88.6702 119.134 96.0588 95.3181 104.492C94.8722 104.65 94.3624 104.877 94.2601 105.339C94.1518 105.828 94.6121 106.295 95.1047 106.386C95.5973 106.476 96.0955 106.3 96.5656 106.127C120.433 97.3471 144.661 89.5435 169.166 82.7426C169.692 82.5966 169.606 81.7265 169.128 81.4636Z" fill="#00160A"/>
<path fill-rule="evenodd" clip-rule="evenodd" d="M255.448 191.075C254.884 191.323 254.274 191.554 253.666 191.449C253.059 191.345 252.491 190.775 252.613 190.171C253.728 184.649 252.328 178.67 248.878 174.218C247.669 172.657 246.229 171.284 245.051 169.7C244.308 168.702 243.648 167.447 244.024 166.262C244.56 164.575 246.718 164.164 248.484 164.044C252.589 163.764 256.695 163.484 260.8 163.204C262.692 163.076 264.871 163.056 266.133 164.471C269.648 168.408 276.5 168.672 280.308 165.018C280.897 164.452 281.639 165.578 281.616 166.395C281.542 168.962 280.484 171.488 278.707 173.342C278.287 173.779 277.751 174.208 277.148 174.145C276.546 174.082 276.101 173.217 276.582 172.848C277.613 172.056 278.663 171.244 279.385 170.164C280.108 169.083 280.459 167.667 279.966 166.464C277.314 169.819 274.636 173.154 271.934 176.468C267.248 182.215 262.237 188.093 255.448 191.075ZM262.854 174.165C262.179 174.351 261.46 174.208 260.786 174.018C255.941 172.649 251.477 168.863 246.52 169.749C252.299 174.403 255.368 182.208 254.307 189.552C258.115 188.737 261.122 185.894 263.819 183.085C267.811 178.927 271.601 174.575 275.173 170.051C272.606 170.03 270.048 169.289 267.867 167.936C265.173 168.602 265.529 173.425 262.854 174.165ZM266.373 166.52C264.767 164.628 261.883 164.686 259.411 164.903C256.187 165.187 252.962 165.47 249.738 165.753C248.429 165.868 246.926 166.098 246.243 167.221C251.824 168.389 257.264 170.224 262.412 172.674C263.074 170.594 264.402 168.732 266.151 167.427C266.348 167.28 266.573 167.092 266.547 166.848C266.534 166.723 266.454 166.616 266.373 166.52V166.52Z" fill="#FFB61D"/>
<path fill-rule="evenodd" clip-rule="evenodd" d="M27.3376 121.395C22.4814 119.453 16.6942 120.028 12.316 122.89C11.8922 123.167 11.2828 122.858 11.073 122.397C10.8631 121.936 10.9416 121.4 11.0489 120.905C12.4473 114.459 18.0177 109.526 24.2125 107.259C30.4074 104.992 37.1835 104.986 43.7686 105.373C44.422 105.412 45.105 105.463 45.6623 105.806C46.2197 106.149 46.5947 106.883 46.3169 107.476C43.7265 113.002 41.7751 118.827 40.5141 124.799C40.3097 125.767 39.3081 126.41 38.3218 126.49C37.3354 126.571 36.3689 126.207 35.4738 125.784C32.6841 124.469 30.2014 122.54 27.3376 121.395ZM27.8928 114.872C27.46 115.223 26.7835 115.038 26.3763 114.657C25.969 114.276 25.737 113.749 25.4169 113.292C23.6998 110.843 19.7595 111.046 17.4239 112.915C15.0883 114.783 13.9581 117.736 12.929 120.545C19.7811 117.569 28.2206 118.637 34.1152 123.226C34.92 123.853 35.7186 124.559 36.7096 124.8C37.7006 125.041 38.9491 124.608 39.2002 123.619C40.5412 118.338 42.1937 113.135 44.1463 108.048C40.3998 112.705 32.5317 111.103 27.8928 114.872ZM26.4018 112.057C26.7865 112.541 27.4851 112.669 28.0933 112.56C28.7015 112.451 29.254 112.148 29.8207 111.902C31.7716 111.054 33.9325 110.865 36.0241 110.477C38.1157 110.089 40.2731 109.433 41.7455 107.897C38.4234 107.887 35.1012 107.877 31.779 107.867C28.4403 107.857 24.8425 107.928 22.1604 109.916C23.7932 109.976 25.3843 110.779 26.4018 112.057Z" fill="#FFB61D"/>
<path fill-rule="evenodd" clip-rule="evenodd" d="M183.357 120.949C183.349 118.027 183.341 115.105 183.333 112.183C183.331 111.343 183.329 110.504 183.327 109.665C183.325 109.086 183.422 108.362 183.972 108.182C184.388 108.046 184.846 108.345 185.041 108.737C185.235 109.129 185.233 109.586 185.226 110.024C185.165 114.102 185.105 118.18 185.044 122.258C185.035 122.844 184.937 123.566 184.388 123.771C183.472 123.253 183.36 122.002 183.357 120.949H183.357Z" fill="#00160A"/>
<path fill-rule="evenodd" clip-rule="evenodd" d="M177.523 118.245C177.1 118.43 176.882 117.733 176.947 117.276C177.181 115.64 177.416 114 177.814 112.396C178.062 111.397 178.419 110.346 179.244 109.731C180.069 109.116 181.485 109.223 181.889 110.17C182.084 110.628 182.003 111.152 181.913 111.643C181.358 114.678 180.61 117.679 179.675 120.62C179.635 120.745 179.592 120.875 179.497 120.966C179.267 121.186 178.852 121.038 178.693 120.762C178.534 120.486 178.554 120.146 178.58 119.828C178.96 119.8 179.137 119.354 179.228 118.984C179.601 117.474 179.973 115.963 180.346 114.453C180.635 113.278 180.9 111.94 180.225 110.935C179.532 111.362 179.272 112.225 179.066 113.012C178.651 114.596 178.236 116.18 177.821 117.763C177.772 117.953 177.702 118.166 177.523 118.245L177.523 118.245Z" fill="#00160A"/>
</svg>
