<svg width="11" height="12" viewBox="0 0 11 12" fill="none" xmlns="http://www.w3.org/2000/svg">
<path d="M9.52778 4.33333C9.52778 3.91912 9.19199 3.58333 8.77778 3.58333C8.36356 3.58333 8.02778 3.91912 8.02778 4.33333H9.52778ZM1 8.77778L0.32918 8.44237C0.212934 8.67486 0.225357 8.95096 0.362012 9.17208C0.498667 9.39319 0.740067 9.52778 1 9.52778L1 8.77778ZM9.88889 8.77778V9.52778C10.1488 9.52778 10.3902 9.39319 10.5269 9.17208C10.6635 8.95096 10.676 8.67486 10.5597 8.44237L9.88889 8.77778ZM3.77778 8.77778V8.02778C3.36356 8.02778 3.02778 8.36356 3.02778 8.77778H3.77778ZM7.86111 8.77778C7.86111 8.36356 7.52532 8.02778 7.11111 8.02778C6.6969 8.02778 6.36111 8.36356 6.36111 8.77778H7.86111ZM6.73557 2.09515C7.09411 2.30255 7.55291 2.18003 7.76031 1.82149C7.96772 1.46294 7.8452 1.00414 7.48666 0.796736L6.73557 2.09515ZM2.11111 9.52778C2.52532 9.52778 2.86111 9.19199 2.86111 8.77778C2.86111 8.36356 2.52532 8.02778 2.11111 8.02778V9.52778ZM2.86111 4.33333C2.86111 2.9066 4.01771 1.75 5.44444 1.75V0.25C3.18928 0.25 1.36111 2.07817 1.36111 4.33333H2.86111ZM1.36111 4.33333C1.36111 5.33101 1.10934 6.35582 0.844043 7.15172C0.712891 7.54518 0.581819 7.87274 0.484252 8.10039C0.435549 8.21404 0.395417 8.30226 0.368106 8.36079C0.354456 8.39004 0.34403 8.41182 0.337359 8.42561C0.334024 8.4325 0.33163 8.43739 0.330244 8.4402C0.329551 8.44161 0.329111 8.4425 0.32893 8.44287C0.32884 8.44305 0.328815 8.4431 0.328856 8.44302C0.328877 8.44297 0.328914 8.4429 0.328968 8.44279C0.328995 8.44274 0.329048 8.44263 0.329061 8.44261C0.329118 8.44249 0.32918 8.44237 1 8.77778C1.67082 9.11319 1.67089 9.11305 1.67096 9.1129C1.67099 9.11284 1.67107 9.11268 1.67113 9.11256C1.67125 9.11232 1.67139 9.11204 1.67155 9.11173C1.67186 9.11111 1.67224 9.11035 1.67268 9.10945C1.67357 9.10766 1.67472 9.10533 1.67613 9.10247C1.67895 9.09674 1.68279 9.08888 1.6876 9.07895C1.6972 9.0591 1.71065 9.03097 1.72738 8.99512C1.76083 8.92343 1.80751 8.82069 1.86297 8.69127C1.97374 8.43282 2.12044 8.06594 2.26707 7.62606C2.55732 6.75529 2.86111 5.55788 2.86111 4.33333H1.36111ZM9.88889 8.77778C10.5597 8.44237 10.5598 8.44249 10.5598 8.44261C10.5598 8.44263 10.5599 8.44274 10.5599 8.44279C10.56 8.4429 10.56 8.44297 10.56 8.44302C10.5601 8.4431 10.56 8.44305 10.56 8.44287C10.5598 8.4425 10.5593 8.44161 10.5586 8.4402C10.5573 8.43739 10.5549 8.4325 10.5515 8.42561C10.5449 8.41182 10.5344 8.39004 10.5208 8.36079C10.4935 8.30226 10.4533 8.21404 10.4046 8.10039C10.3071 7.87274 10.176 7.54518 10.0448 7.15172C9.77955 6.35582 9.52778 5.33101 9.52778 4.33333H8.02778C8.02778 5.55788 8.33156 6.75529 8.62182 7.62606C8.76845 8.06594 8.91515 8.43282 9.02592 8.69127C9.08138 8.82069 9.12806 8.92343 9.16151 8.99512C9.17824 9.03097 9.19169 9.0591 9.20129 9.07895C9.20609 9.08888 9.20994 9.09674 9.21276 9.10247C9.21417 9.10533 9.21532 9.10766 9.21621 9.10945C9.21665 9.11035 9.21703 9.11111 9.21734 9.11173C9.21749 9.11204 9.21763 9.11232 9.21775 9.11256C9.21782 9.11268 9.21789 9.11284 9.21792 9.1129C9.218 9.11305 9.21807 9.11319 9.88889 8.77778ZM6.36111 9.33333C6.36111 9.83959 5.95071 10.25 5.44444 10.25V11.75C6.77913 11.75 7.86111 10.668 7.86111 9.33333H6.36111ZM5.44444 10.25C4.93818 10.25 4.52778 9.83959 4.52778 9.33333H3.02778C3.02778 10.668 4.10976 11.75 5.44444 11.75V10.25ZM4.52778 9.33333V8.77778H3.02778V9.33333H4.52778ZM7.86111 9.33333V8.77778H6.36111V9.33333H7.86111ZM5.44444 1.75C5.91623 1.75 6.35636 1.87578 6.73557 2.09515L7.48666 0.796736C6.88529 0.448864 6.18695 0.25 5.44444 0.25V1.75ZM1 9.52778H2.11111V8.02778H1V9.52778ZM3.77778 9.52778H9.88889V8.02778H3.77778V9.52778Z" fill="#291334"/>
</svg>
