<svg width="20" height="16" viewBox="0 0 20 16" fill="none" xmlns="http://www.w3.org/2000/svg">
<path d="M7 9C7 10.6569 8.34315 12 10 12C11.6569 12 13 10.6569 13 9C13 7.34315 11.6569 6 10 6M3 15C1.89543 15 1 14.1046 1 13V5C1 3.89543 1.89543 3 3 3H5.5C6.05228 3 6.5 2.55228 6.5 2C6.5 1.44772 6.94772 1 7.5 1H12.5C13.0523 1 13.5 1.44772 13.5 2C13.5 2.55228 13.9477 3 14.5 3H17C18.1046 3 19 3.89543 19 5M19 9V13C19 14.1046 18.1046 15 17 15H7" stroke="#291334" stroke-width="1.5" stroke-linecap="round" stroke-linejoin="round"/>
<path opacity="0.15" fill-rule="evenodd" clip-rule="evenodd" d="M3 3C1.89543 3 1 3.89543 1 5V13C1 14.1046 1.89543 15 3 15H17C18.1046 15 19 14.1046 19 13V5C19 3.89543 18.1046 3 17 3H14.5C13.9477 3 13.5 2.55228 13.5 2C13.5 1.44772 13.0523 1 12.5 1H7.5C6.94772 1 6.5 1.44772 6.5 2C6.5 2.55228 6.05228 3 5.5 3H3ZM13 9C13 10.6569 11.6569 12 10 12C8.34315 12 7 10.6569 7 9C7 7.34315 8.34315 6 10 6C11.6569 6 13 7.34315 13 9Z" fill="#42B2B8"/>
</svg>
