<svg width="19" height="19" viewBox="0 0 19 19" fill="none" xmlns="http://www.w3.org/2000/svg">
<path d="M17.4697 18.5303C17.7626 18.8232 18.2374 18.8232 18.5303 18.5303C18.8232 18.2374 18.8232 17.7626 18.5303 17.4697L17.4697 18.5303ZM14.3236 14.3437C14.617 14.0513 14.6178 13.5764 14.3254 13.283C14.033 12.9896 13.5581 12.9888 13.2647 13.2812L14.3236 14.3437ZM15.115 9.8508C15.0326 10.2567 15.2948 10.6526 15.7008 10.735C16.1067 10.8174 16.5026 10.5551 16.585 10.1492L15.115 9.8508ZM8.5 15.25C4.77208 15.25 1.75 12.2279 1.75 8.5H0.25C0.25 13.0563 3.94365 16.75 8.5 16.75V15.25ZM1.75 8.5C1.75 4.77208 4.77208 1.75 8.5 1.75V0.25C3.94365 0.25 0.25 3.94365 0.25 8.5H1.75ZM8.5 1.75C12.2279 1.75 15.25 4.77208 15.25 8.5H16.75C16.75 3.94365 13.0563 0.25 8.5 0.25V1.75ZM18.5303 17.4697L14.3428 13.2821L13.2821 14.3428L17.4697 18.5303L18.5303 17.4697ZM13.2647 13.2812C12.0431 14.4987 10.36 15.25 8.5 15.25V16.75C10.7729 16.75 12.8322 15.8299 14.3236 14.3437L13.2647 13.2812ZM15.25 8.5C15.25 8.96331 15.2034 9.41497 15.115 9.8508L16.585 10.1492C16.6933 9.6157 16.75 9.06409 16.75 8.5H15.25Z" fill="#291334"/>
<path opacity="0.15" d="M16 8.5C16 12.6421 12.6421 16 8.5 16C4.35786 16 1 12.6421 1 8.5C1 4.35786 4.35786 1 8.5 1C12.6421 1 16 4.35786 16 8.5Z" fill="#42B2B8"/>
</svg>
