<svg width="17" height="17" viewBox="0 0 17 17" fill="none" xmlns="http://www.w3.org/2000/svg">
<path d="M15.4697 16.5303C15.7626 16.8232 16.2374 16.8232 16.5303 16.5303C16.8232 16.2374 16.8232 15.7626 16.5303 15.4697L15.4697 16.5303ZM13.4853 7.61765C13.4853 10.8583 10.8583 13.4853 7.61765 13.4853V14.9853C11.6867 14.9853 14.9853 11.6867 14.9853 7.61765H13.4853ZM7.61765 13.4853C4.37704 13.4853 1.75 10.8583 1.75 7.61765H0.25C0.25 11.6867 3.54861 14.9853 7.61765 14.9853V13.4853ZM1.75 7.61765C1.75 4.37704 4.37704 1.75 7.61765 1.75V0.25C3.54861 0.25 0.25 3.54861 0.25 7.61765H1.75ZM7.61765 1.75C10.8583 1.75 13.4853 4.37704 13.4853 7.61765H14.9853C14.9853 3.54861 11.6867 0.25 7.61765 0.25V1.75ZM16.5303 15.4697L12.8354 11.7747L11.7747 12.8354L15.4697 16.5303L16.5303 15.4697Z" fill="#291334" fill-opacity="0.5"/>
</svg>
