<svg width="24" height="24" viewBox="0 0 24 24" fill="none" xmlns="http://www.w3.org/2000/svg">
<path d="M14.8083 14.9167C14.3941 14.9167 14.0583 15.2525 14.0583 15.6667C14.0583 16.0809 14.3941 16.4167 14.8083 16.4167V14.9167ZM18.5833 20.1917C18.5833 20.6059 18.9191 20.9417 19.3333 20.9417C19.7475 20.9417 20.0833 20.6059 20.0833 20.1917H18.5833ZM3.91667 20.1917C3.91667 20.6059 4.25245 20.9417 4.66667 20.9417C5.08088 20.9417 5.41667 20.6059 5.41667 20.1917H3.91667ZM1.81259 10.8602C1.85811 10.4485 1.56125 10.0778 1.14954 10.0323C0.737836 9.98681 0.367188 10.2837 0.321676 10.6954L1.81259 10.8602ZM4.16648 3.24209C3.85784 3.51834 3.83157 3.99248 4.10782 4.30113C4.38406 4.60977 4.85821 4.63604 5.16685 4.35979L4.16648 3.24209ZM10.7778 16.4167C11.192 16.4167 11.5278 16.0809 11.5278 15.6667C11.5278 15.2525 11.192 14.9167 10.7778 14.9167V16.4167ZM14.8083 16.4167C16.8932 16.4167 18.5833 18.1068 18.5833 20.1917H20.0833C20.0833 17.2784 17.7216 14.9167 14.8083 14.9167V16.4167ZM9.19166 14.9167C6.27836 14.9167 3.91667 17.2784 3.91667 20.1917H5.41667C5.41667 18.1068 7.10679 16.4167 9.19166 16.4167V14.9167ZM14.9167 8.33333C14.9167 9.94416 13.6108 11.25 12 11.25V12.75C14.4393 12.75 16.4167 10.7726 16.4167 8.33333H14.9167ZM12 11.25C10.3892 11.25 9.08333 9.94416 9.08333 8.33333H7.58333C7.58333 10.7726 9.56074 12.75 12 12.75V11.25ZM9.08333 8.33333C9.08333 6.7225 10.3892 5.41667 12 5.41667V3.91667C9.56074 3.91667 7.58333 5.89408 7.58333 8.33333H9.08333ZM12 5.41667C13.6108 5.41667 14.9167 6.7225 14.9167 8.33333H16.4167C16.4167 5.89408 14.4393 3.91667 12 3.91667V5.41667ZM22.25 12C22.25 17.6609 17.6609 22.25 12 22.25V23.75C18.4893 23.75 23.75 18.4893 23.75 12H22.25ZM12 22.25C6.33908 22.25 1.75 17.6609 1.75 12H0.25C0.25 18.4893 5.51065 23.75 12 23.75V22.25ZM12 1.75C17.6609 1.75 22.25 6.33908 22.25 12H23.75C23.75 5.51065 18.4893 0.25 12 0.25V1.75ZM1.75 12C1.75 11.6145 1.77125 11.2342 1.81259 10.8602L0.321676 10.6954C0.274296 11.124 0.25 11.5593 0.25 12H1.75ZM5.16685 4.35979C6.98077 2.7363 9.37431 1.75 12 1.75V0.25C8.99109 0.25 6.24478 1.38196 4.16648 3.24209L5.16685 4.35979ZM9.19166 16.4167H10.7778V14.9167H9.19166V16.4167Z" fill="#291334"/>
</svg>
