<svg width="18" height="24" viewBox="0 0 18 24" fill="none" xmlns="http://www.w3.org/2000/svg">
<path d="M4.77952 6.58057L1.68274 5.80637L2.8239 2.09721C3.07513 1.28199 3.75215 0.669601 4.58867 0.502762L5.16661 0.387011H6.32791L6.57022 1.23553C6.91551 2.44327 7.64559 3.50469 8.65049 4.25798C9.65539 3.50469 10.3855 2.44327 10.7308 1.23553L10.9731 0.387011H12.1344L12.7123 0.502762C13.5488 0.669601 14.2259 1.28199 14.4771 2.09721L15.6182 5.80637L12.5215 6.58057H4.77952Z" fill="#E6E9ED"/>
<path d="M12.5606 3.56161C12.2803 3.00148 12.1344 2.3833 12.1344 1.75698V0.387034H10.9731L10.7308 1.23555C10.3855 2.44329 9.65543 3.50472 8.65053 4.25801C7.64562 3.50472 6.91555 2.44329 6.57026 1.23555L6.32794 0.387034H5.16665V1.75698C5.16665 2.3833 5.02072 3.00148 4.74047 3.56161C4.51169 4.01955 4.39246 4.52433 4.39246 5.03685C4.39246 5.1584 4.40135 5.27957 4.41529 5.39957C4.418 5.42782 4.42187 5.45608 4.42574 5.48434C4.44161 5.59969 4.46213 5.71426 4.49001 5.8269C4.49078 5.83 4.49116 5.83271 4.49193 5.83581C4.5229 5.96045 4.56238 6.0824 4.60806 6.2024C4.61193 6.21323 4.61658 6.22408 4.62084 6.23453C4.66652 6.35143 4.718 6.46602 4.77645 6.57711C4.77723 6.57827 4.77762 6.57905 4.778 6.58021C4.874 6.76137 4.98549 6.93517 5.11516 7.09697L5.21542 7.222C5.68496 7.80923 5.94085 8.53853 5.94085 9.29027V9.67737H11.3602V9.29027C11.3602 8.53853 11.6161 7.80923 12.0856 7.222L12.1859 7.09697C12.3156 6.93517 12.427 6.76137 12.523 6.58021C12.5234 6.57944 12.5238 6.57826 12.5242 6.57749C12.583 6.46639 12.6345 6.35182 12.6802 6.23453C12.6845 6.22408 12.6891 6.21323 12.693 6.2024C12.7387 6.0824 12.7781 5.96045 12.8091 5.83581C12.8099 5.8331 12.8103 5.83001 12.811 5.8273C12.8389 5.71427 12.8594 5.59968 12.8753 5.48394C12.8792 5.45607 12.8831 5.42782 12.8858 5.39957C12.8997 5.27957 12.9086 5.1584 12.9086 5.03685C12.9086 4.52433 12.7894 4.01955 12.5606 3.56161Z" fill="#FCD770"/>
<path d="M16.7796 20.129C16.372 20.5367 15.9113 20.7991 15.3779 20.7674C15.2711 21.2907 14.956 21.7688 14.457 22.0568C13.958 22.3452 13.3863 22.3788 12.8796 22.2097C12.6407 22.6874 12.2126 23.0683 11.6563 23.2173C11.0993 23.3663 10.5388 23.2506 10.0932 22.9568C9.73866 23.3563 9.22653 23.6129 8.65053 23.6129C8.07453 23.6129 7.5624 23.3563 7.20781 22.9568C6.76227 23.2506 6.20137 23.3663 5.64472 23.2173C5.08846 23.0683 4.66033 22.6874 4.42149 22.2097C3.91478 22.3788 3.34304 22.3452 2.84407 22.0568C2.3451 21.7688 2.03 21.2907 1.92316 20.7674C1.38974 20.7991 0.929098 20.5367 0.521484 20.129C2.82046 17.3187 4.53297 14.076 5.558 10.5929L5.94085 9.29032H11.3602L11.7431 10.5929C12.7681 14.076 14.4806 17.3187 16.7796 20.129Z" fill="#FCD770"/>
<path d="M4.39246 22.0645L4.42149 22.2097C4.66033 22.6874 5.08846 23.0683 5.64472 23.2173C6.20137 23.3663 6.76226 23.2506 7.20781 22.9568C7.56239 23.3563 8.07452 23.6129 8.65053 23.6129C9.22653 23.6129 9.73866 23.3563 10.0932 22.9568C10.5388 23.2506 11.0993 23.3663 11.6563 23.2173C12.2126 23.0683 12.6407 22.6874 12.8796 22.2097C12.9163 22.2217 12.9539 22.231 12.991 22.2406L12.8412 21.9105C11.0935 17.9156 10.0677 13.6428 9.81182 9.29032H7.48923C7.23336 13.6428 6.20756 17.9156 4.45982 21.9105L4.39246 22.0645Z" fill="#FF826E"/>
<path d="M7.27473 22.4485L7.49731 22.6997C7.79847 23.0392 8.20802 23.2258 8.65047 23.2258C9.09292 23.2258 9.50247 23.0392 9.80363 22.6997L10.0262 22.4485L10.3061 22.6336C10.6854 22.884 11.1287 22.9579 11.556 22.8434C11.983 22.7288 12.3302 22.4427 12.533 22.0366L12.6833 21.7363L13.0018 21.8427C13.4323 21.9859 13.8805 21.943 14.2634 21.7216C14.6466 21.5005 14.9079 21.1343 14.9985 20.6899L15.0658 20.3613L15.4007 20.381C15.6879 20.3969 15.9624 20.3005 16.2461 20.0845C14.0211 17.2901 12.3821 14.1356 11.3718 10.7021L11.0706 9.6774H6.23034L5.92918 10.7021C4.91886 14.1356 3.27988 17.2901 1.05484 20.0845C1.33858 20.3001 1.61382 20.3965 1.90027 20.381L2.23511 20.3613L2.30245 20.6899C2.39303 21.1343 2.65433 21.5005 3.03756 21.7216C3.42001 21.9426 3.86827 21.9855 4.2991 21.8427L4.61768 21.7363L4.76789 22.0366C4.97073 22.4427 5.31795 22.7288 5.74492 22.8434C6.17111 22.9576 6.6155 22.8836 6.99485 22.6336L7.27473 22.4485ZM8.65047 24C8.09808 24 7.56428 23.7979 7.14467 23.4368C6.6457 23.6772 6.07782 23.7337 5.54479 23.5908C5.01137 23.448 4.54802 23.1147 4.23641 22.6568C3.69292 22.7605 3.12853 22.6688 2.65046 22.3924C2.17008 22.1148 1.80775 21.6701 1.62621 21.1448C1.14698 21.0887 0.68479 20.8397 0.247757 20.4027L0 20.155L0.221806 19.884C2.50026 17.0988 4.1706 13.9362 5.18673 10.4837L5.65124 8.90321H11.6497L12.1142 10.4837C13.1303 13.9362 14.8007 17.0988 17.0791 19.884L17.3009 20.155L17.0532 20.4027C16.6162 20.8397 16.154 21.0887 15.6747 21.1448C15.4932 21.6701 15.1309 22.1148 14.6505 22.3924C14.1724 22.6688 13.6088 22.7601 13.0645 22.6568C12.7529 23.1147 12.2896 23.4484 11.7562 23.5908C11.2231 23.7337 10.6552 23.6772 10.1563 23.4368C9.73666 23.7979 9.20286 24 8.65047 24Z" fill="black"/>
<path d="M6.32795 9.29028H5.55376C5.55376 8.62912 5.32615 7.98034 4.91312 7.46395L4.81325 7.33892C4.29221 6.68782 4.00537 5.87028 4.00537 5.03686C4.00537 4.46706 4.14007 3.89686 4.3944 3.3886C4.6464 2.8846 4.77957 2.32022 4.77957 1.75699V0.387047H5.55376V1.75699C5.55376 2.44022 5.39234 3.12382 5.08692 3.73466C4.88563 4.13686 4.77957 4.58706 4.77957 5.03686C4.77957 5.69532 5.00602 6.34098 5.4175 6.85505L5.51738 6.98008C6.04034 7.63389 6.32795 8.45415 6.32795 9.29028Z" fill="black"/>
<path d="M12.6152 6.95618L12.4279 6.20519L15.1283 5.5301L14.1071 2.21114C13.8977 1.53101 13.3345 1.02197 12.6365 0.882227L12.0961 0.774226H11.2654L11.1032 1.34209C10.737 2.62261 9.94851 3.76842 8.88283 4.56778L8.65057 4.74197L8.41831 4.56778C7.35263 3.76842 6.56412 2.62261 6.19793 1.34209L6.03574 0.774226H5.20503L4.66462 0.882227C3.96669 1.02197 3.40347 1.53101 3.19405 2.21114L2.17289 5.5301L4.87327 6.20519L4.68592 6.95618L1.19275 6.08288L2.45391 1.98353C2.74733 1.03088 3.53624 0.318232 4.51288 0.123135L5.1667 3.14713e-05H6.62024L6.94269 1.12959C7.23534 2.15346 7.83689 3.07862 8.65057 3.76378C9.46425 3.07862 10.0658 2.15346 10.3584 1.12959L10.6809 3.14713e-05L12.2103 0.00778103L12.7883 0.123135C13.7649 0.318232 14.5538 1.03088 14.8472 1.98353L16.1084 6.08288L12.6152 6.95618Z" fill="black"/>
<path d="M11.7473 9.29028H10.9731C10.9731 8.45415 11.2608 7.63389 11.7833 6.98008L11.884 6.85505C12.2951 6.34098 12.5215 5.69532 12.5215 5.03686C12.5215 4.58706 12.4155 4.13686 12.2142 3.73466C11.9088 3.12382 11.7473 2.44022 11.7473 1.75699V0.387047H12.5215V1.75699C12.5215 2.32022 12.6547 2.8846 12.9067 3.3886C13.161 3.89686 13.2957 4.46706 13.2957 5.03686C13.2957 5.87028 13.0089 6.68782 12.4882 7.33892L12.3876 7.46395C11.975 7.98034 11.7473 8.62912 11.7473 9.29028Z" fill="black"/>
<path d="M9.03762 6.1936H8.26343V5.41941H9.03762V6.1936Z" fill="black"/>
<path d="M9.03762 8.12903H8.26343V7.35483H9.03762V8.12903Z" fill="black"/>
<path d="M4.74741 22.219L4.03748 21.9101L4.10482 21.7556C5.84018 17.7902 6.84896 13.5887 7.1029 9.26749L7.87554 9.31316C7.61619 13.7257 6.58612 18.0163 4.81437 22.0657L4.74741 22.219Z" fill="black"/>
<path d="M12.5537 22.219L12.4863 22.0649C10.715 18.0163 9.68489 13.7257 9.42554 9.31316L10.1982 9.26749C10.4521 13.5887 11.4609 17.7902 13.1959 21.7549L13.2636 21.9101L12.5537 22.219Z" fill="black"/>
</svg>
