<svg width="21" height="24" viewBox="0 0 21 24" fill="none" xmlns="http://www.w3.org/2000/svg">
<path d="M14.3226 3.87134H6.58069V0.387092H14.3226V3.87134Z" fill="#838F9B"/>
<path d="M19.7419 7.36802C19.7419 6.23383 19.1187 5.21965 18.1625 4.67965C18.1621 4.67926 18.1614 4.67926 18.161 4.67887C18.0665 4.62546 17.9713 4.57512 17.8703 4.53177C17.7499 4.47641 17.6264 4.42764 17.4959 4.39048L14.3225 3.4839H6.5806L3.40719 4.39048C3.27674 4.42764 3.15326 4.47641 3.03287 4.53177C2.93184 4.57512 2.83661 4.62546 2.74216 4.67887C2.74177 4.67926 2.741 4.67926 2.74061 4.67965C1.78448 5.21965 1.16125 6.23383 1.16125 7.36802V18.581H4.25803V23.6129H16.6451V18.581H19.7419V7.36802Z" fill="#B4DD7F"/>
<path d="M4.25806 22.0645H16.6451V20.5161H4.25806V22.0645Z" fill="#FCD770"/>
<path d="M16.6451 9.29025L17.4193 17.4193H19.7419V18.5806H16.6451V9.29025Z" fill="#8CC152"/>
<path d="M4.25803 9.29025L3.48383 17.4193H1.16125V18.5806H4.25803V9.29025Z" fill="#8CC152"/>
<path d="M9.67746 3.48389C9.67746 1.77369 8.29088 0.387116 6.58069 0.387116V3.48389H9.67746Z" fill="#B4DD7F"/>
<path d="M14.3226 0.387116C12.6124 0.387116 11.2258 1.77369 11.2258 3.48389H14.3226V0.387116Z" fill="#B4DD7F"/>
<path d="M4.25805 18.1936H0.387085V19.7419H4.25805V18.1936Z" fill="#FCD770"/>
<path d="M16.6451 18.1936H20.5161V19.7419H16.6451V18.1936Z" fill="#FCD770"/>
<path d="M10.4516 8.12903C9.81015 8.12903 9.29028 7.60916 9.29028 6.96774V6.72348C9.29028 6.62864 9.30189 6.53419 9.32512 6.44206L10.0645 3.48387H10.8387L11.578 6.44206C11.6013 6.53419 11.6129 6.62864 11.6129 6.72348V6.96774C11.6129 7.60916 11.093 8.12903 10.4516 8.12903Z" fill="#E6E9ED"/>
<path d="M6.96767 3.09678H13.9354V0.774201H6.96767V3.09678ZM14.7096 3.87097H6.19348V8.10623e-06H14.7096V3.87097Z" fill="black"/>
<path d="M10.0646 3.48389H9.29036C9.29036 1.99008 8.07449 0.774212 6.58069 0.774212V1.90735e-05C8.50185 1.90735e-05 10.0646 1.56273 10.0646 3.48389Z" fill="black"/>
<path d="M11.6128 3.48389H10.8386C10.8386 1.56273 12.4013 1.90735e-05 14.3225 1.90735e-05V0.774212C12.8287 0.774212 11.6128 1.99008 11.6128 3.48389Z" fill="black"/>
<path d="M10.8388 23.6129H10.0646V8.12906H10.8388V23.6129Z" fill="black"/>
<path d="M1.54836 18.1936H0.77417V7.36806C0.77417 5.82084 1.81314 4.44354 3.30075 4.01813L6.47455 3.11155L6.68668 3.85633L3.51326 4.76291C2.35662 5.0931 1.54836 6.16496 1.54836 7.36806V18.1936Z" fill="black"/>
<path d="M4.25806 20.129H0V17.8064H4.25806V18.5806H0.774193V19.3548H4.25806V20.129Z" fill="black"/>
<path d="M20.1291 18.1936H19.3549V7.36806C19.3549 6.16496 18.5466 5.0931 17.39 4.76291L14.2166 3.85633L14.4287 3.11155L17.6025 4.01813C19.0901 4.44354 20.1291 5.82084 20.1291 7.36806V18.1936Z" fill="black"/>
<path d="M17.0323 24H3.871V8.38336C3.871 7.07459 3.36158 5.8444 2.43604 4.91885L2.98339 4.37151C4.05526 5.44338 4.6452 6.86788 4.6452 8.38336V23.2258H16.2581V8.38336C16.2581 6.86788 16.848 5.44338 17.9199 4.37151L18.4672 4.91885C17.5417 5.8444 17.0323 7.07459 17.0323 8.38336V24Z" fill="black"/>
<path d="M20.9032 20.129H16.6451V19.3548H20.129V18.5806H16.6451V17.8064H20.9032V20.129Z" fill="black"/>
<path d="M14.3225 9.67749H13.5483V7.35491H14.3225V9.67749Z" fill="black"/>
<path d="M15.0967 8.9032H12.7742V8.12901H15.0967V8.9032Z" fill="black"/>
<path d="M4.25806 19.3549V18.5807C5.53896 18.5807 6.58063 17.539 6.58063 16.2581V15.0968H10.4516V15.871H7.35483V16.2581C7.35483 17.9656 5.96554 19.3549 4.25806 19.3549Z" fill="black"/>
<path d="M16.6451 20.9032H4.25806V20.129H16.6451V20.9032Z" fill="black"/>
<path d="M5.80644 22.4517H4.25806V21.6775H5.80644V22.4517Z" fill="black"/>
<path d="M16.6452 22.4517H6.58069V21.6775H16.6452V22.4517Z" fill="black"/>
<path d="M16.6452 19.3549C14.9377 19.3549 13.5484 17.9656 13.5484 16.2581V15.871H10.4517V15.0968H14.3226V16.2581C14.3226 17.539 15.3643 18.5807 16.6452 18.5807V19.3549Z" fill="black"/>
<path d="M10.3668 3.87096L9.70062 6.53572C9.68552 6.59727 9.67739 6.66037 9.67739 6.72347V6.96773C9.67739 7.3947 10.0246 7.74192 10.4516 7.74192C10.8786 7.74192 11.2258 7.3947 11.2258 6.96773V6.72347C11.2258 6.66037 11.2176 6.59727 11.2025 6.53572L10.5364 3.87096H10.3668ZM10.4516 8.51611C9.59765 8.51611 8.9032 7.82166 8.9032 6.96773V6.72347C8.9032 6.59727 8.91868 6.47109 8.94965 6.348L9.76216 3.09676H11.141L11.9535 6.348C11.9845 6.47109 12 6.59727 12 6.72347V6.96773C12 7.82166 11.3055 8.51611 10.4516 8.51611Z" fill="black"/>
</svg>
