<svg width="21" height="24" viewBox="0 0 21 24" fill="none" xmlns="http://www.w3.org/2000/svg">
<path d="M17.9431 2.42437L17.0323 2.14412L15.0968 1.54837H5.03225L2.50451 2.39108C1.23987 2.81263 0.387085 3.99561 0.387085 5.32877V18.9677H3.48386V23.6129H7.35484C8.424 23.6129 9.29032 22.7466 9.29032 21.6774V21.8226H9.30425C9.33135 22.0556 9.39909 22.2821 9.50438 22.4923C9.84735 23.1794 10.5495 23.6129 11.3172 23.6129H17.0323V18.9677H20.129V5.38374C20.129 4.02425 19.2422 2.82385 17.9431 2.42437Z" fill="#FF826E"/>
<path d="M10.0646 8.12903L6.58074 5.41935L7.74203 4.25806L6.19364 3.87096L5.03235 1.16128L6.96783 0.387084H13.1614L15.0969 1.16128L13.9356 3.87096L12.3872 4.25806L13.5485 5.41935L10.0646 8.12903Z" fill="#E6E9ED"/>
<path d="M13.1613 0.387084C12.6492 2.94851 11.7004 5.4031 10.356 7.64323L10.0646 8.12903L9.77308 7.64323C8.42869 5.4031 7.4799 2.94851 6.96777 0.387084H13.1613Z" fill="#E9573F"/>
<path d="M15.4839 12L13.9355 12.7742L12.3871 12V9.67739H15.4839V12Z" fill="#E6E9ED"/>
<path d="M3.48391 18.9678H2.70972L3.48391 4.25808V18.9678Z" fill="#E9573F"/>
<path d="M17.0323 18.9678H17.8065L17.0323 4.25808V18.9678Z" fill="#E9573F"/>
<path d="M9.73277 8.32837L9.44127 7.84257C8.07056 5.55792 7.11057 3.07507 6.58838 0.462942L7.34707 0.311203C7.85224 2.83624 8.78012 5.23585 10.1048 7.44385L10.3962 7.92967L9.73277 8.32837Z" fill="black"/>
<path d="M9.82689 8.43445L5.99695 5.45573L7.46831 3.98438L8.01566 4.53172L7.16444 5.38296L10.3023 7.8236L9.82689 8.43445Z" fill="black"/>
<path d="M17.4195 24H11.3173C10.3967 24 9.56952 23.4886 9.15803 22.6657C8.99158 22.332 8.90332 21.9588 8.90332 21.5861V9.57443L10.2164 7.27702C11.4129 5.18244 12.2598 2.921 12.7333 0.555838L12.782 0.311577L13.5407 0.462561L13.492 0.707199C13.0027 3.15443 12.1267 5.49405 10.8883 7.66102L9.67751 9.78038V21.5861C9.67751 21.8392 9.73714 22.0928 9.85056 22.3192C10.13 22.8786 10.6921 23.2258 11.3173 23.2258H16.6453V4.25804H17.4195V24Z" fill="black"/>
<path d="M10.3023 8.43445L9.8269 7.8236L12.9647 5.38296L12.1135 4.53172L12.6608 3.98438L14.1322 5.45573L10.3023 8.43445Z" fill="black"/>
<path d="M12.4808 4.63354L12.2934 3.88256L13.6552 3.54192L14.5847 1.3734L13.087 0.774178H7.04208L5.5444 1.3734L6.47383 3.54192L7.83563 3.88256L7.64828 4.63354L5.91329 4.19999L4.52014 0.949146L6.89344 -1.66893e-05H13.2356L15.6089 0.949146L14.2158 4.19999L12.4808 4.63354Z" fill="black"/>
<path d="M3.48388 19.3549H0V5.32878C0 3.82685 0.957283 2.49871 2.3818 2.02413L4.90993 1.18142L5.15459 1.91535L2.62684 2.75806C1.51858 3.12774 0.774194 4.16052 0.774194 5.32878V18.5807H3.48388V19.3549Z" fill="black"/>
<path d="M20.5162 19.3549H17.0323V18.5807H19.742V5.38375C19.742 4.18646 18.9736 3.14632 17.8293 2.79445L14.983 1.91845L15.2106 1.17832L18.0566 2.05432C19.5276 2.50683 20.5162 3.84504 20.5162 5.38375V19.3549Z" fill="black"/>
<path d="M12.7743 11.7607L13.9356 12.3413L15.0969 11.7607V10.0644H12.7743V11.7607ZM13.9356 13.2069L12.0001 12.2392V9.29025H15.8711V12.2392L13.9356 13.2069Z" fill="black"/>
<path d="M11.2259 11.6129H10.4517V10.8387H11.2259V11.6129Z" fill="black"/>
<path d="M11.2259 14.7097H10.4517V13.9355H11.2259V14.7097Z" fill="black"/>
<path d="M11.2259 17.8065H10.4517V17.0323H11.2259V17.8065Z" fill="black"/>
<path d="M11.2259 20.9032H10.4517V20.129H11.2259V20.9032Z" fill="black"/>
<path d="M7.35487 24H3.0968V4.25804H3.871V23.2258H7.35487C8.20881 23.2258 8.90326 22.5314 8.90326 21.6774H9.67746C9.67746 22.9583 8.63578 24 7.35487 24Z" fill="black"/>
</svg>
