<svg width="14" height="24" viewBox="0 0 14 24" fill="none" xmlns="http://www.w3.org/2000/svg">
<path d="M13.1629 3.4839V2.70971H0.775768V3.4839L0.388672 5.80648L1.16286 23.6129H5.80802L6.56053 10.0638C6.57292 9.84699 6.75215 9.67744 6.96931 9.67744C7.18647 9.67744 7.3657 9.84699 7.37809 10.0638L8.1306 23.6129H12.7758L13.5499 5.80648L13.1629 3.4839Z" fill="#FCD770"/>
<path d="M11.6145 1.16131H13.1628V3.48389H0.775757V1.16131H2.32414H11.6145Z" fill="#CF9E76"/>
<path d="M0.775757 1.16131H6.90465C7.58207 1.16131 8.13059 1.68118 8.13059 2.3226C8.13059 2.96402 7.58207 3.48389 6.90465 3.48389H0.775757V1.16131Z" fill="#CF9E76"/>
<path d="M3.87248 3.48389V0.387116H2.3241V3.48389H3.87248Z" fill="#E6E9ED"/>
<path d="M11.6144 3.48389V0.387116H10.066V3.48389H11.6144Z" fill="#E6E9ED"/>
<path d="M6.19507 3.48387V8.12903H7.74345V3.48387H6.19507Z" fill="#FFC729"/>
<path d="M2.32415 5.03229H0.517573L0.388672 5.80648L1.16286 23.6129H2.32415V6.19358V5.03229Z" fill="#E6E9ED"/>
<path d="M0.388672 5.80654L0.470349 7.68396L1.20816 7.15635C2.39461 6.30939 3.09835 4.94177 3.09835 3.48396H0.775768L0.388672 5.80654Z" fill="#FF826E"/>
<path d="M11.6144 6.19358V23.6129H12.7757L13.5499 5.80648L13.421 5.03229H11.6144V6.19358Z" fill="#E6E9ED"/>
<path d="M12.7304 7.15635L13.4682 7.68396L13.5499 5.80654L13.1628 3.48396H10.8402C10.8402 4.94177 11.5439 6.30939 12.7304 7.15635Z" fill="#FF826E"/>
<path d="M10.0661 1.54846H3.87256V0.774269H10.0661V1.54846Z" fill="black"/>
<path d="M13.5499 3.87097H0.388672V0.774201H2.32415V1.54839H1.16286V3.09678H12.7758V1.54839H11.6145V0.774201H13.5499V3.87097Z" fill="black"/>
<path d="M6.96927 3.87097H5.80798V3.09678H6.96927C7.39624 3.09678 7.74347 2.74955 7.74347 2.32259C7.74347 1.89562 7.39624 1.54839 6.96927 1.54839H5.80798V0.774201H6.96927C7.82321 0.774201 8.51766 1.46865 8.51766 2.32259C8.51766 3.17652 7.82321 3.87097 6.96927 3.87097Z" fill="black"/>
<path d="M6.96926 2.70972H6.19507V1.93552H6.96926V2.70972Z" fill="black"/>
<path d="M4.25959 3.48389H3.4854V0.774212H2.7112V3.48389H1.93701V1.90735e-05H4.25959V3.48389Z" fill="black"/>
<path d="M12.0015 3.48389H11.2273V0.774212H10.4531V3.48389H9.67896V1.90735e-05H12.0015V3.48389Z" fill="black"/>
<path d="M13.1462 24H7.76438L6.99173 10.0854L6.56051 10.0638L6.94683 10.0854L6.17419 24H0.79239L0 5.78247L0.394066 3.42041L1.15742 3.54738L0.777293 5.83048L1.53329 23.2258H5.4418L6.17419 10.0421C6.1978 9.62092 6.54696 9.29034 6.96928 9.29034C7.39161 9.29034 7.74077 9.62092 7.76438 10.0421L8.49677 23.2258H12.4053L13.1613 5.83048L12.7811 3.54738L13.5445 3.42041L13.9386 5.78247L13.9366 5.82312L13.1462 24Z" fill="black"/>
<path d="M8.13056 8.51611H5.80798V3.48386H6.58218V7.74192H7.35637V3.48386H8.13056V8.51611Z" fill="black"/>
<path d="M0.613507 8.05664L0.163696 7.42723L0.983181 6.84156C2.06512 6.06891 2.71118 4.81355 2.71118 3.48388H3.48537C3.48537 5.06284 2.71853 6.55393 1.43299 7.47135L0.613507 8.05664Z" fill="black"/>
<path d="M13.325 8.05664L12.5055 7.47135C11.22 6.55393 10.4531 5.06284 10.4531 3.48388H11.2273C11.2273 4.81355 11.8734 6.06891 12.9553 6.84156L13.7748 7.42723L13.325 8.05664Z" fill="black"/>
<path d="M2.7112 23.6129H1.93701V6.19358H2.7112V23.6129Z" fill="black"/>
<path d="M12.0015 23.6129H11.2273V6.19358H12.0015V23.6129Z" fill="black"/>
</svg>
