<svg width="23" height="24" viewBox="0 0 23 24" fill="none" xmlns="http://www.w3.org/2000/svg">
<path d="M21.5175 4.37111C21.3991 3.13008 20.5482 2.08066 19.3582 1.70866L15.1289 0.38711H7.38693L3.15759 1.70866C1.96758 2.08066 1.11674 3.13008 0.998325 4.37111L0.419189 10.4516L4.67725 11.2258V23.6129H17.8385V11.2258L22.0966 10.4516L21.5175 4.37111Z" fill="#B4DD7F"/>
<path d="M15.1289 0.387089C15.1289 2.52464 13.3957 4.25806 11.2579 4.25806C9.12011 4.25806 7.38696 2.52464 7.38696 0.387089H15.1289Z" fill="#FCD770"/>
<path d="M13.5805 0.387136C13.5805 1.66959 12.5406 2.70972 11.2579 2.70972C9.97516 2.70972 8.9353 1.66959 8.9353 0.387136H13.5805Z" fill="#8CC152"/>
<path d="M4.67737 21.2904H17.8387V19.742H4.67737V21.2904Z" fill="#FFEAA7"/>
<path d="M0.564351 8.92958L0.419189 10.4516L4.67725 11.2258V9.67744L0.564351 8.92958Z" fill="#FFEAA7"/>
<path d="M4.67717 11.2258V4.64519L3.91931 11.088L4.67717 11.2258Z" fill="#8CC152"/>
<path d="M0.564351 8.92958L0.419189 10.4516L4.67725 11.2258V9.67744L0.564351 8.92958Z" fill="#FCD770"/>
<path d="M17.8385 4.64519V11.2258L18.5964 11.088L17.8385 4.64519Z" fill="#8CC152"/>
<path d="M17.8385 9.67744V11.2258L22.0966 10.4516L21.9514 8.92958L17.8385 9.67744Z" fill="#FCD770"/>
<path d="M3.91931 11.088L4.67717 11.2258V9.67744L4.09757 9.57214L3.91931 11.088Z" fill="#FFC729"/>
<path d="M18.5964 11.088L17.8385 11.2258V9.67744L18.4181 9.57214L18.5964 11.088Z" fill="#FFC729"/>
<path d="M17.9076 11.6063L17.7694 10.8453L21.6774 10.1346L21.1323 4.40787C21.0283 3.31897 20.2866 2.40465 19.2425 2.07794L15.0699 0.774192H7.44585L3.27294 2.07794C2.22914 2.40465 1.48746 3.31897 1.38341 4.40787L0.838297 10.1346L4.74631 10.8453L4.60812 11.6063L0 10.7686L0.613161 4.33433C0.746516 2.9342 1.6999 1.75858 3.04188 1.33936L7.38689 -9.53674e-07L15.2442 0.0178032L19.4734 1.33936C20.8158 1.75858 21.7692 2.9342 21.9026 4.33433L22.5157 10.7686L17.9076 11.6063Z" fill="black"/>
<path d="M18.2256 24H4.29016V4.64516H5.06435V23.2258H17.4515V4.64516H18.2256V24Z" fill="black"/>
<path d="M11.2578 4.64514C8.91 4.64514 6.99976 2.73482 6.99976 0.387077H7.77395C7.77395 2.30824 9.3367 3.87095 11.2578 3.87095C13.1789 3.87095 14.7417 2.30824 14.7417 0.387077H15.5159C15.5159 2.73482 13.6056 4.64514 11.2578 4.64514Z" fill="black"/>
<path d="M11.2579 3.0968C9.76393 3.0968 8.54822 1.88093 8.54822 0.387125H9.32241C9.32241 1.45435 10.1908 2.32261 11.2579 2.32261C12.325 2.32261 13.1934 1.45435 13.1934 0.387125H13.9676C13.9676 1.88093 12.7519 3.0968 11.2579 3.0968Z" fill="black"/>
<path d="M17.8387 20.1292H4.67737V19.355H17.8387V20.1292Z" fill="black"/>
<path d="M15.129 21.6774H4.67737V20.9032H15.129V21.6774Z" fill="black"/>
<path d="M17.8386 21.6774H15.9031V20.9032H17.8386V21.6774Z" fill="black"/>
<path d="M4.60816 10.058L0.350098 9.28379L0.488291 8.52275L4.74636 9.29695L4.60816 10.058Z" fill="black"/>
<path d="M17.9076 10.058L17.7694 9.29695L22.0275 8.52275L22.1657 9.28379L17.9076 10.058Z" fill="black"/>
<path d="M11.645 8.12903H10.8708V7.35483H11.645V8.12903Z" fill="black"/>
<path d="M11.645 13.5483H10.8708V12.7741H11.645V13.5483Z" fill="black"/>
<path d="M11.645 12H10.8708V8.90323H11.645V12Z" fill="black"/>
<path d="M14.3546 10.8386H13.5804V10.0644H14.3546V10.8386Z" fill="black"/>
<path d="M8.93533 10.8386H8.16113V10.0644H8.93533V10.8386Z" fill="black"/>
<path d="M12.8062 10.8386H9.70947V10.0644H12.8062V10.8386Z" fill="black"/>
</svg>
