<svg width="18" height="24" viewBox="0 0 18 24" fill="none" xmlns="http://www.w3.org/2000/svg">
<path d="M8.97047 23.6129C3.55112 23.6129 0.454346 21.6774 0.454346 21.6774C1.72828 17.347 2.00424 12.7835 1.2621 8.33072L1.22854 8.12904L1.33921 7.85227C2.28899 5.47782 2.77693 2.94427 2.77693 0.387108H6.64789V5.03227C6.64789 6.31472 7.68775 7.35485 8.97047 7.35485C10.2532 7.35485 11.2931 6.31472 11.2931 5.03227V0.387108H15.164C15.164 2.94427 15.652 5.47782 16.6017 7.85227L16.7124 8.12904L16.6788 8.33072C15.9367 12.7835 16.2127 17.347 17.4866 21.6774C17.4866 21.6774 14.3898 23.6129 8.97047 23.6129Z" fill="#FF826E"/>
<path d="M0.454346 21.6774C0.454346 21.6774 3.55112 23.6129 8.97047 23.6129C14.3898 23.6129 17.4866 21.6774 17.4866 21.6774L17.1245 20.3288C16.1616 20.8231 13.311 22.0645 8.97047 22.0645C4.63046 22.0645 1.78 20.8231 0.816785 20.3288L0.454346 21.6774Z" fill="#FFEAA7"/>
<path d="M12.8414 0.38707H11.293V5.03223C11.293 6.31468 10.2532 7.35481 8.97046 7.35481C7.68773 7.35481 6.64787 6.31468 6.64787 5.03223V4.75855V1.94087V0.38707H5.09949V4.75855H5.11582C5.10932 4.84952 5.09949 4.93971 5.09949 5.03223C5.09949 7.16978 6.83264 8.9032 8.97046 8.9032C11.1083 8.9032 12.8414 7.16978 12.8414 5.03223C12.8414 4.93971 12.8316 4.84952 12.8251 4.75855H12.8414V0.38707Z" fill="#FFEAA7"/>
<path d="M0.911768 21.4889C1.74345 21.9248 4.59449 23.2258 8.9705 23.2258C13.3604 23.2258 16.2006 21.9259 17.0295 21.4897C15.8203 17.2146 15.5666 12.6499 16.2971 8.26723L16.313 8.172L16.2422 7.99626C15.318 5.68491 14.8269 3.25742 14.7807 0.774193H11.6802V5.03226C11.6802 6.52606 10.4645 7.74194 8.9705 7.74194C7.47654 7.74194 6.26083 6.52606 6.26083 5.03226V0.774193H3.16026C3.11416 3.25742 2.62301 5.68491 1.69881 7.99587L1.62805 8.172L1.64392 8.26723C2.37445 12.6499 2.12071 17.2142 0.911768 21.4889ZM8.9705 24C3.50323 24 0.37951 22.0874 0.24902 22.0057L0 21.8497L0.0831488 21.5683C1.33289 17.3195 1.60843 12.7641 0.88049 8.39458L0.829084 8.08606L0.97982 7.70825C1.91536 5.36942 2.38986 2.90594 2.38986 0.387096V0H7.03502V5.03226C7.03502 6.09948 7.90343 6.96774 8.9705 6.96774C10.0376 6.96774 10.906 6.09948 10.906 5.03226V0H15.5511V0.387096C15.5511 2.90594 16.0257 5.36942 16.9612 7.70864L17.1119 8.08606L17.0605 8.39458C16.3326 12.7641 16.6081 17.3195 17.8579 21.5683L17.941 21.8497L17.692 22.0057C17.5615 22.0874 14.4378 24 8.9705 24Z" fill="black"/>
<path d="M8.97047 9.29028C6.62265 9.29028 4.7124 7.37996 4.7124 5.03222V0.387057H5.4866V5.03222C5.4866 6.95338 7.04934 8.51609 8.97047 8.51609C9.77187 8.51609 10.5549 8.2366 11.1744 7.72951L11.665 8.32834C10.907 8.94847 9.95033 9.29028 8.97047 9.29028Z" fill="black"/>
<path d="M12.2664 7.72681L11.6677 7.23596C12.1749 6.61661 12.4543 5.83351 12.4543 5.03222V0.387061H13.2285V5.03222C13.2285 6.01196 12.8868 6.96887 12.2664 7.72681Z" fill="black"/>
<path d="M8.97045 22.4517C4.57903 22.4517 1.68185 21.2079 0.640015 20.673L0.993859 19.9843C1.98533 20.4933 4.74792 21.6775 8.97045 21.6775C13.1945 21.6775 15.9563 20.4933 16.9475 19.9843L17.3014 20.673C16.26 21.2079 13.3634 22.4517 8.97045 22.4517Z" fill="black"/>
<path d="M8.97051 24C3.50323 24 0.379514 22.0874 0.249023 22.0057L0.659268 21.3488C0.689075 21.3677 3.74122 23.2258 8.97051 23.2258C14.2182 23.2258 17.2515 21.3677 17.2813 21.3492L17.692 22.0057C17.5615 22.0874 14.4378 24 8.97051 24Z" fill="black"/>
</svg>
