<svg width="17" height="24" viewBox="0 0 17 24" fill="none" xmlns="http://www.w3.org/2000/svg">
<path d="M15.8945 16.6451L15.2206 5.1867C15.1606 4.17328 14.4503 3.31624 13.4655 3.07005L12.0235 2.70966H4.28161L2.83968 3.07005C1.8549 3.31624 1.14458 4.17328 1.08458 5.1867L0.410645 16.6451H3.12032V8.23199H13.1848V16.6451H15.8945Z" fill="#ECC19C"/>
<path d="M11.6365 12.7742V11.2258L12.5237 10.1172C12.9514 9.58184 13.1848 8.91682 13.1848 8.23204C13.1848 7.90727 13.1326 7.5852 13.03 7.27745C12.6332 6.08791 12.7254 4.7892 13.2866 3.66778L13.5719 3.09681L12.0421 2.70971H8.15259V22.8387H9.70097C10.4752 22.8387 11.2494 22.8387 12.4107 22.0646C13.3219 21.4572 15.1203 21.2904 15.1203 21.2904L11.6365 12.7742Z" fill="#CF9E76"/>
<path d="M6.33177 3.02749C6.29422 2.92414 6.26636 2.8173 6.24739 2.70969H4.26352L2.73332 3.09679L3.01862 3.66775C3.57991 4.78917 3.67203 6.08788 3.27526 7.27743C3.17268 7.58517 3.12042 7.90724 3.12042 8.23202C3.12042 8.91679 3.35384 9.58181 3.78158 10.1172L4.66881 11.2258V12.7742L1.18494 21.2903C1.18494 21.2903 3.50752 20.9032 5.0559 22.0645C6.60429 23.2258 8.53977 23.6129 9.70107 23.6129V12.7742L6.33177 3.02749Z" fill="#DFB28B"/>
<path d="M4.66882 12.7742H11.6366V11.2258H7.3785H8.92689H4.66882V12.7742Z" fill="#FCD770"/>
<path d="M15.7122 13.5484H13.1848V15.0968H15.8035L15.7122 13.5484Z" fill="#FCD770"/>
<path d="M0.501709 15.0968H3.12041V13.5484H0.593059L0.501709 15.0968Z" fill="#FCD770"/>
<path d="M8.15271 8.51611L11.2495 4.64515L10.8624 3.48386L12.0237 2.70966C11.3118 1.28631 9.85709 0.387081 8.26574 0.387081H8.15271H8.03968C6.44832 0.387081 4.99361 1.28631 4.28174 2.70966L5.44303 3.48386L5.05593 4.64515L8.15271 8.51611Z" fill="#F0D0B4"/>
<path d="M8.15265 8.51611L9.98864 3.00773C10.0545 2.81031 10.0881 2.60359 10.0881 2.39533V2.32257C10.0881 1.2534 9.22181 0.387081 8.15265 0.387081C7.08349 0.387081 6.21716 1.2534 6.21716 2.32257V2.37173C6.21716 2.59547 6.25587 2.81689 6.33174 3.02747L8.15265 8.51611Z" fill="#CF9E76"/>
<path d="M7.98464 8.92651L4.62194 4.72264L4.98233 3.64187L3.78271 2.84252L3.93523 2.5367C4.71794 0.972051 6.29033 5.91278e-05 8.03962 5.91278e-05H8.15265V0.774253H8.03962C6.69987 0.774253 5.48477 1.46019 4.79303 2.58548L5.90361 3.32599L5.48981 4.5678L8.58968 8.44264L7.98464 8.92651Z" fill="black"/>
<path d="M8.45499 8.75806L7.85034 8.27419L10.8155 4.56773L10.4017 3.32592L11.5123 2.58541C10.8205 1.46012 9.60544 0.774186 8.2657 0.774186H8.15267V-7.62939e-06H8.2657C10.015 -7.62939e-06 11.5874 0.971984 12.3701 2.53663L12.5226 2.84245L11.323 3.6418L11.6834 4.72257L8.45499 8.75806Z" fill="black"/>
<path d="M3.50747 16.6451H2.73328V8.23199H3.50747V16.6451Z" fill="black"/>
<path d="M8.15269 0.774193C7.29876 0.774193 6.6043 1.46865 6.6043 2.32258V2.37174C6.6043 2.55136 6.63489 2.72787 6.69566 2.89587L8.18366 7.19962L9.62172 2.88502C9.67437 2.7267 9.70108 2.5618 9.70108 2.39535V2.32258C9.70108 1.46865 9.00663 0.774193 8.15269 0.774193ZM10.0882 24H9.70108C8.45114 24 6.42353 23.5742 4.82366 22.3742C3.42972 21.3294 1.27011 21.6693 1.24804 21.672L0.564819 21.7842L4.28172 12.6983V11.3617L3.47927 10.3591C2.9985 9.75716 2.73334 9.00194 2.73334 8.23201C2.73334 7.86426 2.79218 7.50193 2.9083 7.15432C3.27489 6.05496 3.19127 4.87782 2.67256 3.84078L2.38689 3.26982L3.07979 2.92373L3.36508 3.49432C3.97631 4.71677 4.07501 6.10336 3.64263 7.39975C3.55282 7.66839 3.50753 7.94788 3.50753 8.23201C3.50753 8.82697 3.7123 9.41071 4.08391 9.87562L5.05592 11.0899V12.8501L5.02727 12.9209L1.78456 20.8467C2.63888 20.8111 4.13966 20.8935 5.28818 21.7548C6.5803 22.7241 8.18056 23.1352 9.31398 23.2123V12.8392L5.96598 3.15406C5.87618 2.90632 5.83011 2.64116 5.83011 2.37174V2.32258C5.83011 1.04168 6.87179 0 8.15269 0C9.43359 0 10.4753 1.04168 10.4753 2.32258V2.39535C10.4753 2.64541 10.435 2.89277 10.3557 3.13006L8.59902 8.40115L10.0882 12.7092V24Z" fill="black"/>
<path d="M3.12039 17.0322H0L0.698324 5.16423C0.768389 3.97585 1.59136 2.98332 2.74568 2.69454L4.18801 2.33415L4.37536 3.08514L2.93381 3.44513C2.10929 3.65223 1.52129 4.361 1.47097 5.20952L0.821428 16.258H3.12039V17.0322Z" fill="black"/>
<path d="M8.92689 11.6129H4.66882V10.8387H8.92689V11.6129Z" fill="black"/>
<path d="M9.70108 13.1613H4.66882V12.3871H9.70108V13.1613Z" fill="black"/>
<path d="M13.572 16.6451H12.7979V8.23199H13.572V16.6451Z" fill="black"/>
<path d="M9.70105 23.2258V22.4516C10.4369 22.4516 11.1321 22.4516 12.1959 21.7425C12.8687 21.2942 13.9394 21.0705 14.5719 20.9718L11.2494 12.8501V11.09L12.2214 9.87525C12.5931 9.41073 12.7978 8.827 12.7978 8.23203C12.7978 7.9479 12.7525 7.66841 12.6627 7.40015C12.2303 6.10338 12.329 4.7168 12.9403 3.49435L13.2256 2.92376L13.9185 3.26984L13.6328 3.84081C13.1141 4.87784 13.0305 6.05499 13.397 7.15474C13.5132 7.50196 13.572 7.86429 13.572 8.23203C13.572 9.00197 13.3069 9.75719 12.8261 10.3587L12.0236 11.3617V12.6983L15.6767 21.6271L15.1564 21.6759C15.1394 21.6774 13.4435 21.8412 12.6256 22.3866C11.3667 23.2258 10.4818 23.2258 9.70105 23.2258Z" fill="black"/>
<path d="M16.3053 17.0322H13.1849V16.258H15.4839L14.8343 5.20952C14.784 4.361 14.196 3.65223 13.3711 3.44513L11.9299 3.08514L12.1173 2.33415L13.5592 2.69454C14.7139 2.98332 15.5369 3.97585 15.607 5.16423L16.3053 17.0322Z" fill="black"/>
<path d="M11.6365 11.6129H7.37842V10.8387H11.6365V11.6129Z" fill="black"/>
<path d="M11.6365 13.1613H6.60425V12.3871H11.6365V13.1613Z" fill="black"/>
<path d="M8.5397 14.7097H7.7655V13.9355H8.5397V14.7097Z" fill="black"/>
<path d="M8.5397 16.2581H7.7655V15.4839H8.5397V16.2581Z" fill="black"/>
<path d="M8.5397 17.8065H7.7655V17.0323H8.5397V17.8065Z" fill="black"/>
<path d="M15.7532 13.9354H13.1848V13.1612H15.7532V13.9354Z" fill="black"/>
<path d="M15.7807 15.4839H13.1848V14.7097H15.7807V15.4839Z" fill="black"/>
<path d="M3.00662 13.9354H0.438232V13.1612H3.00662V13.9354Z" fill="black"/>
<path d="M3.00652 15.4839H0.410645V14.7097H3.00652V15.4839Z" fill="black"/>
</svg>
